<svg xmlns="http://www.w3.org/2000/svg" xmlns:xlink="http://www.w3.org/1999/xlink" width="150" zoomAndPan="magnify" viewBox="0 0 112.5 56.249996" height="75" preserveAspectRatio="xMidYMid meet" version="1.0"><defs><g/><clipPath id="cb481835f6"><path d="M 0.492188 0 L 111.511719 0 L 111.511719 55.511719 L 0.492188 55.511719 Z M 0.492188 0 " clip-rule="nonzero"/></clipPath><clipPath id="521e43b13a"><path d="M 11.753906 2.648438 L 56.164062 2.648438 L 56.164062 19 L 11.753906 19 Z M 11.753906 2.648438 " clip-rule="nonzero"/></clipPath><clipPath id="1a4007e7f7"><path d="M 11.753906 4 L 12 4 L 12 6 L 11.753906 6 Z M 11.753906 4 " clip-rule="nonzero"/></clipPath><clipPath id="e5eec42466"><path d="M 11.753906 14 L 12 14 L 12 16 L 11.753906 16 Z M 11.753906 14 " clip-rule="nonzero"/></clipPath><clipPath id="22a09175cd"><path d="M 41 16 L 56.164062 16 L 56.164062 38.171875 L 41 38.171875 Z M 41 16 " clip-rule="nonzero"/></clipPath><clipPath id="2858a7ab11"><path d="M 11.753906 17 L 12 17 L 12 19 L 11.753906 19 Z M 11.753906 17 " clip-rule="nonzero"/></clipPath><clipPath id="da3b3347fa"><path d="M 11.753906 23 L 12 23 L 12 25 L 11.753906 25 Z M 11.753906 23 " clip-rule="nonzero"/></clipPath><clipPath id="0834c1db18"><path d="M 11.753906 27 L 27 27 L 27 38.171875 L 11.753906 38.171875 Z M 11.753906 27 " clip-rule="nonzero"/></clipPath><clipPath id="b51ee95149"><path d="M 11.753906 33 L 12 33 L 12 36 L 11.753906 36 Z M 11.753906 33 " clip-rule="nonzero"/></clipPath></defs><g clip-path="url(#cb481835f6)"><path fill="#ffffff" d="M 0.492188 0 L 111.511719 0 L 111.511719 55.511719 L 0.492188 55.511719 Z M 0.492188 0 " fill-opacity="1" fill-rule="nonzero"/><path fill="#ffffff" d="M 0.492188 0 L 111.511719 0 L 111.511719 55.511719 L 0.492188 55.511719 Z M 0.492188 0 " fill-opacity="1" fill-rule="nonzero"/></g><g fill="#000000" fill-opacity="1"><g transform="translate(16.015932, 49.325102)"><g><path d="M 1.53125 0 L 1.53125 -9.96875 L 2.609375 -9.96875 L 2.609375 -0.921875 L 5.421875 -0.921875 L 5.421875 0 Z M 1.53125 0 "/></g></g></g><g fill="#000000" fill-opacity="1"><g transform="translate(21.737953, 49.325102)"><g><path d="M 6.296875 0 L 5.828125 0 L 5.4375 -0.984375 C 5.21875 -0.609375 4.929688 -0.3125 4.578125 -0.09375 C 4.234375 0.125 3.851562 0.234375 3.4375 0.234375 C 1.96875 0.234375 1.234375 -0.484375 1.234375 -1.921875 L 1.234375 -3.453125 C 1.234375 -4.878906 1.96875 -5.59375 3.4375 -5.59375 L 5.21875 -5.59375 L 5.21875 -8.109375 C 5.21875 -8.484375 5.097656 -8.769531 4.859375 -8.96875 C 4.628906 -9.175781 4.285156 -9.28125 3.828125 -9.28125 C 2.910156 -9.28125 2.453125 -8.890625 2.453125 -8.109375 L 2.453125 -7.21875 L 1.375 -7.21875 L 1.375 -8.0625 C 1.375 -8.738281 1.578125 -9.265625 1.984375 -9.640625 C 2.390625 -10.015625 3 -10.203125 3.8125 -10.203125 C 4.632812 -10.203125 5.253906 -10.015625 5.671875 -9.640625 C 6.085938 -9.265625 6.296875 -8.738281 6.296875 -8.0625 Z M 5.21875 -4.6875 L 3.4375 -4.6875 C 3.007812 -4.6875 2.710938 -4.578125 2.546875 -4.359375 C 2.378906 -4.140625 2.296875 -3.835938 2.296875 -3.453125 L 2.296875 -1.921875 C 2.296875 -1.523438 2.378906 -1.21875 2.546875 -1 C 2.710938 -0.789062 3.007812 -0.6875 3.4375 -0.6875 C 3.863281 -0.6875 4.257812 -0.851562 4.625 -1.1875 C 5 -1.519531 5.195312 -1.847656 5.21875 -2.171875 Z M 5.21875 -4.6875 "/></g></g></g><g fill="#000000" fill-opacity="1"><g transform="translate(29.408213, 49.325102)"><g><path d="M 6.296875 0 L 5.828125 0 L 5.4375 -0.984375 C 5.21875 -0.609375 4.929688 -0.3125 4.578125 -0.09375 C 4.234375 0.125 3.851562 0.234375 3.4375 0.234375 C 1.96875 0.234375 1.234375 -0.484375 1.234375 -1.921875 L 1.234375 -3.453125 C 1.234375 -4.878906 1.96875 -5.59375 3.4375 -5.59375 L 5.21875 -5.59375 L 5.21875 -8.109375 C 5.21875 -8.484375 5.097656 -8.769531 4.859375 -8.96875 C 4.628906 -9.175781 4.285156 -9.28125 3.828125 -9.28125 C 2.910156 -9.28125 2.453125 -8.890625 2.453125 -8.109375 L 2.453125 -7.21875 L 1.375 -7.21875 L 1.375 -8.0625 C 1.375 -8.738281 1.578125 -9.265625 1.984375 -9.640625 C 2.390625 -10.015625 3 -10.203125 3.8125 -10.203125 C 4.632812 -10.203125 5.253906 -10.015625 5.671875 -9.640625 C 6.085938 -9.265625 6.296875 -8.738281 6.296875 -8.0625 Z M 5.21875 -4.6875 L 3.4375 -4.6875 C 3.007812 -4.6875 2.710938 -4.578125 2.546875 -4.359375 C 2.378906 -4.140625 2.296875 -3.835938 2.296875 -3.453125 L 2.296875 -1.921875 C 2.296875 -1.523438 2.378906 -1.21875 2.546875 -1 C 2.710938 -0.789062 3.007812 -0.6875 3.4375 -0.6875 C 3.863281 -0.6875 4.257812 -0.851562 4.625 -1.1875 C 5 -1.519531 5.195312 -1.847656 5.21875 -2.171875 Z M 5.21875 -4.6875 "/></g></g></g><g fill="#000000" fill-opacity="1"><g transform="translate(37.078473, 49.325102)"><g><path d="M 2.625 0 L 1.546875 0 L 1.546875 -9.96875 L 2.625 -9.96875 L 2.625 -5.734375 L 5.296875 -9.96875 L 6.484375 -9.96875 L 3.78125 -5.671875 L 6.671875 0 L 5.5 0 L 3.125 -4.65625 L 2.625 -3.828125 Z M 2.625 0 "/></g></g></g><g fill="#000000" fill-opacity="1"><g transform="translate(44.05841, 49.325102)"><g><path d="M 6.296875 0 L 5.828125 0 L 5.4375 -0.984375 C 5.21875 -0.609375 4.929688 -0.3125 4.578125 -0.09375 C 4.234375 0.125 3.851562 0.234375 3.4375 0.234375 C 1.96875 0.234375 1.234375 -0.484375 1.234375 -1.921875 L 1.234375 -3.453125 C 1.234375 -4.878906 1.96875 -5.59375 3.4375 -5.59375 L 5.21875 -5.59375 L 5.21875 -8.109375 C 5.21875 -8.484375 5.097656 -8.769531 4.859375 -8.96875 C 4.628906 -9.175781 4.285156 -9.28125 3.828125 -9.28125 C 2.910156 -9.28125 2.453125 -8.890625 2.453125 -8.109375 L 2.453125 -7.21875 L 1.375 -7.21875 L 1.375 -8.0625 C 1.375 -8.738281 1.578125 -9.265625 1.984375 -9.640625 C 2.390625 -10.015625 3 -10.203125 3.8125 -10.203125 C 4.632812 -10.203125 5.253906 -10.015625 5.671875 -9.640625 C 6.085938 -9.265625 6.296875 -8.738281 6.296875 -8.0625 Z M 5.21875 -4.6875 L 3.4375 -4.6875 C 3.007812 -4.6875 2.710938 -4.578125 2.546875 -4.359375 C 2.378906 -4.140625 2.296875 -3.835938 2.296875 -3.453125 L 2.296875 -1.921875 C 2.296875 -1.523438 2.378906 -1.21875 2.546875 -1 C 2.710938 -0.789062 3.007812 -0.6875 3.4375 -0.6875 C 3.863281 -0.6875 4.257812 -0.851562 4.625 -1.1875 C 5 -1.519531 5.195312 -1.847656 5.21875 -2.171875 Z M 5.21875 -4.6875 "/></g></g></g><path stroke-linecap="butt" transform="matrix(0.00000000129177, 0.740131, -0.740131, 0.00000000129177, 64.709799, 2.648239)" fill="none" stroke-linejoin="miter" d="M 0.000268767 1.001239 L 68.769721 1.001239 " stroke="#000000" stroke-width="2" stroke-opacity="1" stroke-miterlimit="4"/><g clip-path="url(#521e43b13a)"><path fill="#000000" d="M 13.722656 2.75 L 15.453125 2.8125 L 15.453125 6.332031 L 13.722656 6.394531 L 11.976562 6.4375 L 13.722656 6.464844 L 15.453125 6.496094 L 15.453125 8.257812 L 13.707031 8.316406 L 11.976562 8.359375 L 13.722656 8.390625 L 15.453125 8.421875 L 15.453125 11.957031 L 13.707031 12.015625 L 11.976562 12.0625 L 13.722656 12.089844 L 15.453125 12.121094 L 15.453125 13.882812 L 13.558594 13.941406 L 11.679688 13.984375 L 13.574219 14.015625 L 15.453125 14.046875 L 15.484375 16.738281 C 15.5 18.234375 15.527344 19.0625 15.558594 18.605469 C 15.617188 17.773438 15.632812 17.761719 16.089844 17.699219 L 16.566406 17.640625 L 16.089844 17.628906 L 15.601562 17.597656 L 15.601562 14.046875 L 17.363281 14.046875 L 17.421875 15.035156 L 17.46875 16.042969 L 17.496094 15.050781 L 17.527344 14.058594 L 18.089844 14 L 18.636719 13.941406 L 18.089844 13.925781 L 17.527344 13.898438 L 17.527344 12.121094 L 20.25 12.121094 C 22.722656 12.121094 22.988281 12.152344 23.046875 12.371094 C 23.109375 12.625 23.121094 12.625 23.136719 12.371094 C 23.152344 12.152344 23.390625 12.121094 25.875 12.121094 L 28.613281 12.121094 L 28.671875 12.816406 L 28.71875 13.527344 L 28.746094 12.742188 L 28.777344 11.972656 L 23.152344 11.972656 L 23.152344 8.433594 L 24.308594 8.375 L 25.445312 8.332031 L 24.308594 8.300781 L 23.152344 8.273438 L 23.152344 6.496094 L 24.914062 6.496094 L 24.972656 7.339844 L 25.015625 8.199219 L 25.078125 6.511719 L 25.640625 6.453125 L 26.1875 6.394531 L 25.640625 6.378906 L 25.089844 6.347656 L 25.03125 4.601562 L 24.988281 2.871094 L 24.957031 4.601562 L 24.929688 6.347656 L 23.152344 6.347656 L 23.152344 2.796875 L 28.613281 2.796875 L 28.671875 3.417969 L 28.734375 4.054688 L 28.746094 3.417969 L 28.777344 2.796875 L 41.804688 2.796875 L 41.804688 6.332031 L 40.144531 6.394531 L 38.472656 6.4375 L 40.132812 6.464844 L 41.789062 6.496094 L 41.847656 7.265625 L 41.890625 8.050781 L 41.921875 7.265625 L 41.953125 6.496094 L 43.726562 6.496094 L 43.726562 8.257812 L 43.105469 8.316406 L 42.46875 8.375 L 43.089844 8.390625 C 43.609375 8.421875 43.714844 8.480469 43.773438 8.746094 L 43.832031 9.085938 L 43.859375 8.746094 C 43.875 8.421875 43.921875 8.421875 45.652344 8.421875 L 47.414062 8.421875 L 47.472656 9.558594 L 47.515625 10.714844 L 47.546875 9.558594 L 47.578125 8.421875 L 49.339844 8.421875 L 49.398438 10.078125 L 49.441406 11.75 L 49.472656 10.078125 L 49.5 8.421875 L 54.976562 8.421875 L 54.976562 11.957031 L 52.652344 12.015625 L 50.316406 12.0625 L 52.652344 12.089844 L 54.976562 12.121094 L 54.976562 12.996094 C 54.976562 13.835938 54.964844 13.882812 54.578125 13.941406 L 54.164062 14 L 54.5625 14.03125 C 54.890625 14.046875 54.964844 14.117188 55.023438 14.519531 L 55.082031 15.007812 L 55.097656 14.535156 C 55.125 14.105469 55.171875 14.058594 55.6875 14 L 56.234375 13.941406 L 55.6875 13.925781 L 55.125 13.898438 L 55.125 12.136719 L 55.6875 12.078125 L 56.234375 12.015625 L 55.6875 12.003906 L 55.125 11.972656 L 55.125 8.433594 L 55.6875 8.375 L 56.234375 8.316406 L 55.6875 8.300781 L 55.125 8.273438 L 55.125 6.511719 L 55.6875 6.453125 L 56.234375 6.394531 L 55.6875 6.378906 L 55.125 6.347656 L 55.125 2.8125 L 55.6875 2.75 C 55.984375 2.722656 46.273438 2.707031 34.105469 2.707031 C 21.9375 2.707031 12.761719 2.738281 13.722656 2.75 Z M 17.378906 4.570312 L 17.378906 6.347656 L 15.601562 6.347656 L 15.601562 2.796875 L 17.378906 2.796875 Z M 23.003906 4.570312 L 23.003906 6.347656 L 21.226562 6.347656 L 21.199219 4.601562 L 21.167969 2.871094 L 21.125 4.601562 L 21.066406 6.347656 L 17.527344 6.347656 L 17.527344 2.796875 L 23.003906 2.796875 Z M 49.351562 4.570312 L 49.351562 6.347656 L 47.578125 6.347656 L 47.546875 4.601562 L 47.515625 2.871094 L 47.472656 4.601562 L 47.414062 6.347656 L 43.875 6.347656 L 43.847656 4.601562 L 43.816406 2.871094 L 43.773438 4.601562 L 43.714844 6.347656 L 41.953125 6.347656 L 41.953125 2.796875 L 49.351562 2.796875 Z M 54.976562 4.570312 L 54.976562 6.347656 L 49.5 6.347656 L 49.5 2.796875 L 54.976562 2.796875 Z M 17.378906 7.382812 L 17.378906 8.273438 L 15.601562 8.273438 L 15.601562 6.496094 L 17.378906 6.496094 Z M 21.078125 7.382812 L 21.078125 8.273438 L 17.527344 8.273438 L 17.527344 6.496094 L 21.078125 6.496094 Z M 23.003906 7.382812 L 23.003906 8.273438 L 21.226562 8.273438 L 21.226562 6.496094 L 23.003906 6.496094 Z M 47.429688 7.382812 L 47.429688 8.273438 L 43.875 8.273438 L 43.875 6.496094 L 47.429688 6.496094 Z M 49.351562 7.382812 L 49.351562 8.273438 L 47.578125 8.273438 L 47.578125 6.496094 L 49.351562 6.496094 Z M 54.976562 7.382812 L 54.976562 8.273438 L 49.5 8.273438 L 49.5 6.496094 L 54.976562 6.496094 Z M 17.378906 10.195312 L 17.378906 11.972656 L 15.601562 11.972656 L 15.601562 8.421875 L 17.378906 8.421875 Z M 21.078125 10.195312 L 21.078125 11.972656 L 17.527344 11.972656 L 17.527344 8.421875 L 21.078125 8.421875 Z M 23.003906 10.195312 L 23.003906 11.972656 L 21.226562 11.972656 L 21.226562 8.421875 L 23.003906 8.421875 Z M 17.378906 13.007812 L 17.378906 13.898438 L 15.601562 13.898438 L 15.601562 12.121094 L 17.378906 12.121094 Z M 17.378906 13.007812 " fill-opacity="1" fill-rule="nonzero"/></g><path fill="#000000" d="M 36.238281 4.203125 C 36.238281 4.925781 36.253906 5.253906 36.28125 4.914062 C 36.3125 4.570312 36.3125 3.964844 36.28125 3.582031 C 36.253906 3.195312 36.238281 3.460938 36.238281 4.203125 Z M 36.238281 4.203125 " fill-opacity="1" fill-rule="nonzero"/><g clip-path="url(#1a4007e7f7)"><path fill="#000000" d="M 11.796875 5.3125 C 11.796875 5.84375 11.828125 6.050781 11.859375 5.785156 C 11.886719 5.535156 11.886719 5.089844 11.859375 4.824219 C 11.828125 4.570312 11.796875 4.777344 11.796875 5.3125 Z M 11.796875 5.3125 " fill-opacity="1" fill-rule="nonzero"/></g><path fill="#000000" d="M 27.769531 5.015625 C 27.402344 5.253906 27.132812 5.636719 26.691406 6.585938 C 26.378906 7.265625 26.113281 7.976562 26.113281 8.167969 C 26.113281 8.714844 26.644531 9.414062 27.621094 10.152344 C 29.785156 11.808594 32.078125 13.835938 33.75 15.554688 C 35.617188 17.480469 36.546875 18.691406 37.171875 20.070312 C 37.511719 20.792969 37.539062 21 37.453125 21.949219 C 37.109375 25.605469 37.171875 26.167969 37.925781 26.449219 C 38.148438 26.523438 40.25 26.878906 42.601562 27.25 L 46.867188 27.898438 L 47.503906 27.5 C 48.613281 26.804688 49.132812 26.136719 50.046875 24.230469 C 50.539062 23.222656 51.558594 21.269531 52.328125 19.890625 C 54.503906 15.96875 54.710938 15.390625 54.164062 14.785156 C 54.03125 14.636719 49.425781 12.386719 43.90625 9.78125 L 33.882812 5.03125 L 31.902344 4.882812 C 29 4.644531 28.347656 4.675781 27.769531 5.015625 Z M 31.546875 5.769531 L 33.691406 5.933594 L 43.476562 10.582031 C 48.863281 13.140625 53.335938 15.242188 53.421875 15.273438 C 53.585938 15.332031 53.230469 16.503906 52.980469 16.710938 C 52.847656 16.8125 50.730469 15.835938 45.859375 13.4375 C 35.023438 8.09375 32.921875 7.089844 32.269531 6.957031 C 31.929688 6.882812 30.835938 6.703125 29.8125 6.554688 C 28.792969 6.421875 27.933594 6.273438 27.902344 6.246094 C 27.875 6.230469 27.964844 6.066406 28.109375 5.902344 C 28.421875 5.550781 28.628906 5.550781 31.546875 5.769531 Z M 30.257812 7.53125 L 32.402344 7.84375 L 36.726562 9.945312 C 39.09375 11.097656 41.046875 12.078125 41.046875 12.121094 C 41.0625 12.164062 40.753906 12.359375 40.367188 12.566406 C 39.496094 13.023438 39.125 13.542969 39.035156 14.371094 C 38.976562 14.859375 39.035156 15.183594 39.257812 15.613281 C 39.714844 16.457031 41.964844 19.386719 42.425781 19.730469 C 42.707031 19.921875 43.179688 20.039062 44.070312 20.113281 C 45.058594 20.1875 45.535156 20.320312 46.511719 20.78125 C 47.175781 21.089844 47.726562 21.402344 47.726562 21.460938 C 47.726562 21.519531 47.578125 21.757812 47.398438 21.964844 L 47.058594 22.347656 L 43.875 22.171875 L 40.695312 21.980469 L 40.175781 20.660156 C 39.199219 18.160156 37.511719 15.496094 35.675781 13.570312 C 34.417969 12.238281 33.632812 11.972656 32.609375 12.492188 C 32.183594 12.726562 32.183594 12.714844 31.101562 11.796875 C 30.523438 11.277344 29.605469 10.539062 29.074219 10.136719 C 27.769531 9.160156 27 8.40625 27 8.125 C 27 7.738281 27.445312 7.238281 27.785156 7.238281 C 27.964844 7.238281 29.074219 7.371094 30.257812 7.53125 Z M 47 15.023438 C 49.398438 16.207031 51.46875 17.285156 51.601562 17.40625 C 52.136719 17.878906 52.089844 18.410156 51.351562 19.742188 C 50.359375 21.5625 49.960938 21.683594 48.183594 20.632812 C 46.671875 19.757812 45.328125 19.269531 44.140625 19.179688 C 43.609375 19.136719 43.0625 19.046875 42.929688 18.972656 C 42.542969 18.753906 40.027344 15.257812 39.9375 14.816406 C 39.910156 14.59375 39.953125 14.253906 40.058594 14.046875 C 40.308594 13.570312 41.582031 12.875 42.1875 12.859375 C 42.5 12.859375 44.15625 13.601562 47 15.023438 Z M 34.476562 13.617188 C 35.261719 14.3125 36.828125 16.324219 37.6875 17.730469 C 38.445312 18.972656 39.804688 21.875 39.6875 21.980469 C 39.65625 22.023438 39.347656 22.007812 39.007812 21.949219 C 38.414062 21.859375 38.398438 21.832031 38.398438 21.28125 C 38.398438 19.804688 37.066406 17.613281 34.59375 15.066406 C 33.675781 14.117188 32.964844 13.304688 33.027344 13.261719 C 33.261719 13.007812 33.988281 13.1875 34.476562 13.617188 Z M 49.484375 22.1875 C 49.738281 22.1875 49.945312 22.214844 49.945312 22.246094 C 49.945312 22.261719 49.574219 23.074219 49.132812 24.019531 C 48.421875 25.5 48.199219 25.828125 47.5625 26.332031 C 47.148438 26.65625 46.746094 26.921875 46.660156 26.921875 C 46.464844 26.921875 39.078125 25.769531 38.488281 25.648438 L 38.058594 25.5625 L 38.132812 24.230469 C 38.175781 23.503906 38.234375 22.898438 38.265625 22.867188 C 38.382812 22.792969 44.585938 23.074219 45.695312 23.222656 C 47.117188 23.398438 47.726562 23.207031 48.183594 22.421875 C 48.433594 21.980469 48.539062 21.917969 48.761719 22.039062 C 48.910156 22.125 49.234375 22.1875 49.484375 22.1875 Z M 49.484375 22.1875 " fill-opacity="1" fill-rule="nonzero"/><path fill="#000000" d="M 28.304688 8.300781 C 27.964844 8.390625 27.964844 8.390625 28.289062 8.40625 C 28.496094 8.421875 28.628906 8.539062 28.671875 8.746094 L 28.734375 9.085938 L 28.761719 8.761719 C 28.777344 8.464844 28.867188 8.433594 29.636719 8.390625 L 30.480469 8.347656 L 29.5625 8.273438 C 29.042969 8.226562 28.480469 8.242188 28.304688 8.300781 Z M 28.304688 8.300781 " fill-opacity="1" fill-rule="nonzero"/><path fill="#000000" d="M 30.597656 9.457031 C 30.597656 9.988281 30.628906 10.195312 30.65625 9.929688 C 30.6875 9.679688 30.6875 9.234375 30.65625 8.96875 C 30.628906 8.714844 30.597656 8.921875 30.597656 9.457031 Z M 30.597656 9.457031 " fill-opacity="1" fill-rule="nonzero"/><path fill="#000000" d="M 34.296875 10.566406 C 34.296875 11.128906 34.328125 11.351562 34.359375 11.039062 C 34.386719 10.746094 34.386719 10.269531 34.359375 10.003906 C 34.328125 9.753906 34.296875 9.988281 34.296875 10.566406 Z M 34.296875 10.566406 " fill-opacity="1" fill-rule="nonzero"/><path fill="#000000" d="M 36.207031 11.1875 L 36.179688 11.957031 L 35.558594 12.015625 L 34.921875 12.078125 L 35.542969 12.089844 C 36.148438 12.121094 36.164062 12.136719 36.222656 12.667969 L 36.28125 13.230469 L 36.296875 12.683594 L 36.328125 12.136719 L 37.851562 12.078125 L 39.359375 12.03125 L 37.851562 12.003906 L 36.339844 11.972656 L 36.28125 11.1875 L 36.238281 10.417969 Z M 36.207031 11.1875 " fill-opacity="1" fill-rule="nonzero"/><path fill="#000000" d="M 41.804688 13.703125 C 41.804688 13.792969 41.625 13.910156 41.402344 13.941406 L 40.988281 14 L 41.390625 14.03125 C 41.789062 14.046875 41.789062 14.046875 41.847656 15.332031 L 41.890625 16.636719 L 41.921875 15.332031 L 41.953125 14.046875 L 42.664062 14.015625 L 43.359375 14 L 42.691406 13.941406 C 42.335938 13.898438 41.980469 13.792969 41.921875 13.703125 C 41.832031 13.570312 41.804688 13.570312 41.804688 13.703125 Z M 41.804688 13.703125 " fill-opacity="1" fill-rule="nonzero"/><path fill="#000000" d="M 43.726562 15.953125 L 43.726562 17.582031 L 43.179688 17.640625 L 42.617188 17.699219 L 43.164062 17.714844 C 43.640625 17.746094 43.714844 17.804688 43.773438 18.144531 C 43.800781 18.382812 43.847656 17.613281 43.859375 16.441406 C 43.859375 15.289062 43.847656 14.339844 43.800781 14.339844 C 43.757812 14.339844 43.726562 15.066406 43.726562 15.953125 Z M 43.726562 15.953125 " fill-opacity="1" fill-rule="nonzero"/><path fill="#000000" d="M 47.429688 16.855469 L 47.429688 17.582031 L 46.4375 17.640625 L 45.429688 17.6875 L 46.421875 17.714844 L 47.414062 17.746094 L 47.472656 18.589844 C 47.503906 19.0625 47.53125 18.691406 47.546875 17.773438 C 47.5625 16.871094 47.546875 16.117188 47.503906 16.117188 C 47.457031 16.117188 47.429688 16.441406 47.429688 16.855469 Z M 47.429688 16.855469 " fill-opacity="1" fill-rule="nonzero"/><path fill="#000000" d="M 49.382812 17.257812 C 49.351562 17.539062 49.25 17.582031 48.507812 17.640625 L 47.652344 17.6875 L 48.507812 17.714844 L 49.351562 17.746094 L 49.351562 19.507812 L 48.582031 19.566406 L 47.796875 19.609375 L 48.570312 19.640625 C 49.308594 19.667969 49.339844 19.683594 49.398438 20.144531 L 49.457031 20.632812 L 49.472656 20.15625 C 49.5 19.714844 49.546875 19.683594 50.136719 19.625 L 50.757812 19.566406 L 50.136719 19.550781 L 49.515625 19.523438 L 49.457031 18.21875 C 49.441406 17.507812 49.398438 17.078125 49.382812 17.257812 Z M 49.382812 17.257812 " fill-opacity="1" fill-rule="nonzero"/><path fill="#000000" d="M 41.832031 24.363281 L 41.804688 25.132812 L 41.109375 25.191406 C 40.707031 25.21875 41.136719 25.25 42.054688 25.265625 C 43.210938 25.28125 43.726562 25.355469 43.773438 25.472656 C 43.832031 25.621094 43.859375 25.621094 43.859375 25.472656 C 43.875 25.339844 44.351562 25.292969 45.726562 25.292969 L 47.578125 25.292969 L 47.546875 24.511719 L 47.515625 23.738281 L 47.472656 24.4375 L 47.414062 25.144531 L 43.890625 25.144531 L 43.832031 24.4375 L 43.789062 23.738281 L 43.757812 24.4375 L 43.726562 25.144531 L 41.964844 25.144531 L 41.90625 24.363281 L 41.863281 23.59375 Z M 41.832031 24.363281 " fill-opacity="1" fill-rule="nonzero"/><path fill="#000000" d="M 24.988281 10.195312 C 24.988281 11.128906 25.003906 11.515625 25.03125 11.039062 C 25.0625 10.582031 25.0625 9.8125 25.03125 9.339844 C 25.003906 8.878906 24.988281 9.265625 24.988281 10.195312 Z M 24.988281 10.195312 " fill-opacity="1" fill-rule="nonzero"/><path fill="#000000" d="M 20.175781 13.484375 C 19.109375 14.191406 18.875 14.519531 17.734375 16.855469 C 17.230469 17.878906 16.238281 19.773438 15.515625 21.074219 C 13.722656 24.257812 13.339844 25.160156 13.515625 25.648438 C 13.605469 25.855469 13.8125 26.125 14.003906 26.242188 C 14.195312 26.359375 18.769531 28.566406 24.1875 31.125 L 34.03125 35.773438 L 36.015625 35.9375 C 40.117188 36.261719 40.324219 36.203125 41.226562 34.234375 C 41.539062 33.554688 41.804688 32.828125 41.804688 32.636719 C 41.804688 32.042969 41.183594 31.347656 39.390625 29.957031 C 35.277344 26.730469 32.003906 23.355469 30.9375 21.210938 C 30.375 20.097656 30.289062 19.460938 30.496094 18.261719 C 30.730469 16.945312 30.746094 15.347656 30.539062 14.875 C 30.433594 14.679688 30.199219 14.445312 29.976562 14.371094 C 29.769531 14.296875 27.667969 13.925781 25.3125 13.570312 L 21.035156 12.90625 Z M 25.296875 14.503906 C 27.503906 14.828125 29.398438 15.15625 29.515625 15.230469 C 29.695312 15.316406 29.738281 15.613281 29.710938 16.636719 C 29.710938 17.332031 29.664062 17.9375 29.636719 17.953125 C 29.546875 18.042969 23.375 17.746094 22.191406 17.613281 C 20.785156 17.449219 20.25 17.613281 19.71875 18.382812 C 19.453125 18.78125 19.304688 18.871094 19.15625 18.765625 C 19.039062 18.691406 18.710938 18.632812 18.460938 18.632812 C 18.195312 18.632812 17.972656 18.605469 17.972656 18.574219 C 17.972656 18.558594 18.339844 17.746094 18.785156 16.796875 C 19.496094 15.316406 19.71875 14.992188 20.355469 14.488281 C 20.769531 14.164062 21.152344 13.898438 21.199219 13.898438 C 21.257812 13.898438 23.109375 14.164062 25.296875 14.503906 Z M 25.238281 18.722656 L 27.265625 18.824219 L 27.445312 19.433594 C 28.050781 21.445312 30.007812 24.746094 31.855469 26.863281 C 33.277344 28.492188 34.210938 28.890625 35.304688 28.328125 C 35.734375 28.09375 35.734375 28.105469 36.816406 29.023438 C 37.390625 29.542969 38.445312 30.402344 39.140625 30.917969 C 41.003906 32.324219 41.183594 32.621094 40.632812 33.300781 L 40.351562 33.65625 L 37.925781 33.316406 L 35.511719 32.976562 L 31.191406 30.875 C 28.820312 29.71875 26.867188 28.726562 26.867188 28.683594 C 26.851562 28.640625 27.121094 28.476562 27.460938 28.328125 C 28.390625 27.898438 28.851562 27.203125 28.851562 26.199219 C 28.851562 25.382812 28.820312 25.308594 27.609375 23.667969 C 26.246094 21.800781 25.726562 21.195312 25.328125 20.972656 C 25.179688 20.898438 24.5 20.78125 23.832031 20.707031 C 22.902344 20.617188 22.292969 20.4375 21.390625 20.023438 C 20.738281 19.730469 20.191406 19.433594 20.191406 19.375 C 20.191406 19.316406 20.339844 19.078125 20.515625 18.855469 C 20.828125 18.457031 20.859375 18.441406 22.027344 18.53125 C 22.695312 18.589844 24.128906 18.679688 25.238281 18.722656 Z M 29.164062 18.929688 C 29.414062 18.929688 29.472656 19.035156 29.488281 19.507812 C 29.546875 21.074219 30.863281 23.222656 33.320312 25.753906 C 34.238281 26.699219 34.949219 27.515625 34.890625 27.558594 C 34.847656 27.617188 34.59375 27.664062 34.34375 27.664062 C 33.957031 27.664062 33.691406 27.46875 32.804688 26.539062 C 31.632812 25.308594 30.226562 23.296875 29.445312 21.742188 C 29 20.855469 28.183594 18.972656 28.183594 18.8125 C 28.183594 18.78125 28.332031 18.78125 28.527344 18.839844 C 28.703125 18.886719 28.984375 18.929688 29.164062 18.929688 Z M 19.734375 20.1875 C 21.183594 21.03125 22.632812 21.578125 23.539062 21.609375 C 24.929688 21.652344 25.0625 21.742188 26.542969 23.753906 C 28.007812 25.753906 28.214844 26.257812 27.828125 26.847656 C 27.519531 27.308594 26.277344 27.957031 25.667969 27.957031 C 25.226562 27.957031 16.847656 23.886719 16.3125 23.414062 C 15.78125 22.941406 15.824219 22.40625 16.566406 21.074219 C 16.933594 20.394531 17.351562 19.757812 17.496094 19.683594 C 18 19.386719 18.621094 19.523438 19.734375 20.1875 Z M 23.257812 27.972656 C 35.941406 34.234375 34.949219 33.804688 37.703125 34.191406 C 38.976562 34.367188 40.027344 34.558594 40.027344 34.621094 C 40.027344 34.679688 39.894531 34.839844 39.730469 34.988281 C 39.449219 35.257812 39.289062 35.257812 36.84375 35.078125 L 34.253906 34.902344 L 24.453125 30.238281 C 19.050781 27.691406 14.582031 25.574219 14.492188 25.546875 C 14.269531 25.472656 14.847656 23.960938 15.085938 23.960938 C 15.113281 23.960938 18.785156 25.769531 23.257812 27.972656 Z M 23.257812 27.972656 " fill-opacity="1" fill-rule="nonzero"/><path fill="#000000" d="M 21.125 15.820312 C 21.125 16.429688 21.152344 16.679688 21.183594 16.367188 C 21.214844 16.074219 21.214844 15.570312 21.183594 15.257812 C 21.152344 14.960938 21.125 15.214844 21.125 15.820312 Z M 21.125 15.820312 " fill-opacity="1" fill-rule="nonzero"/><path fill="#000000" d="M 23.046875 15.894531 C 23.046875 16.546875 23.078125 16.796875 23.109375 16.441406 C 23.136719 16.101562 23.136719 15.570312 23.109375 15.257812 C 23.078125 14.960938 23.046875 15.242188 23.046875 15.894531 Z M 23.046875 15.894531 " fill-opacity="1" fill-rule="nonzero"/><path fill="#000000" d="M 24.972656 16.117188 C 24.972656 16.648438 25.003906 16.855469 25.03125 16.589844 C 25.0625 16.339844 25.0625 15.894531 25.03125 15.628906 C 25.003906 15.378906 24.972656 15.585938 24.972656 16.117188 Z M 24.972656 16.117188 " fill-opacity="1" fill-rule="nonzero"/><path fill="#000000" d="M 23.714844 19.625 C 23.964844 19.65625 24.410156 19.65625 24.675781 19.625 C 24.929688 19.597656 24.722656 19.566406 24.1875 19.566406 C 23.65625 19.566406 23.449219 19.597656 23.714844 19.625 Z M 23.714844 19.625 " fill-opacity="1" fill-rule="nonzero"/><path fill="#000000" d="M 30.570312 26.730469 C 30.554688 26.996094 30.449219 27.054688 29.933594 27.113281 L 29.296875 27.175781 L 29.917969 27.1875 L 30.539062 27.21875 L 30.597656 28.582031 L 30.640625 29.957031 L 30.671875 28.59375 C 30.703125 27.441406 30.746094 27.234375 30.96875 27.175781 C 31.191406 27.113281 31.191406 27.101562 30.96875 27.085938 C 30.835938 27.085938 30.6875 26.921875 30.65625 26.730469 L 30.597656 26.40625 Z M 30.570312 26.730469 " fill-opacity="1" fill-rule="nonzero"/><path fill="#000000" d="M 34.285156 29.988281 L 34.253906 30.757812 L 33.484375 30.816406 L 32.699219 30.859375 L 33.46875 30.890625 C 34.179688 30.917969 34.238281 30.949219 34.296875 31.320312 L 34.359375 31.734375 L 34.386719 31.320312 C 34.402344 30.933594 34.433594 30.917969 35.277344 30.917969 L 36.164062 30.917969 L 36.222656 31.6875 L 36.265625 32.472656 L 36.328125 30.933594 L 37.109375 30.875 L 37.882812 30.832031 L 37.109375 30.800781 L 36.339844 30.769531 L 36.28125 30.058594 L 36.238281 29.363281 L 36.207031 30.058594 L 36.179688 30.769531 L 34.417969 30.769531 L 34.359375 29.988281 L 34.3125 29.21875 Z M 34.285156 29.988281 " fill-opacity="1" fill-rule="nonzero"/><path fill="#000000" d="M 17.378906 21.148438 C 17.335938 21.355469 17.351562 21.949219 17.394531 22.480469 L 17.484375 23.445312 L 17.496094 22.527344 L 17.527344 21.609375 L 19.199219 21.550781 L 20.859375 21.503906 L 19.199219 21.476562 C 17.617188 21.445312 17.542969 21.429688 17.496094 21.105469 C 17.453125 20.792969 17.4375 20.792969 17.378906 21.148438 Z M 17.378906 21.148438 " fill-opacity="1" fill-rule="nonzero"/><path fill="#000000" d="M 21.140625 23.445312 C 21.140625 24.332031 21.152344 24.6875 21.183594 24.214844 C 21.214844 23.738281 21.214844 23.015625 21.183594 22.585938 C 21.152344 22.15625 21.140625 22.542969 21.140625 23.445312 Z M 21.140625 23.445312 " fill-opacity="1" fill-rule="nonzero"/><path fill="#000000" d="M 23.035156 23.621094 L 23.003906 25.132812 L 22.234375 25.191406 L 21.449219 25.234375 L 22.21875 25.265625 C 22.960938 25.292969 22.988281 25.308594 23.046875 25.769531 L 23.109375 26.257812 L 23.121094 25.769531 L 23.152344 25.292969 L 24.914062 25.292969 L 24.972656 26.136719 L 25.015625 26.996094 L 25.078125 25.308594 L 26.007812 25.25 C 26.511719 25.21875 26.082031 25.191406 25.046875 25.175781 L 23.167969 25.144531 L 23.109375 23.621094 L 23.0625 22.113281 Z M 23.035156 23.621094 " fill-opacity="1" fill-rule="nonzero"/><path fill="#000000" d="M 24.972656 24.109375 C 24.972656 24.644531 25.003906 24.851562 25.03125 24.582031 C 25.0625 24.332031 25.0625 23.886719 25.03125 23.621094 C 25.003906 23.371094 24.972656 23.578125 24.972656 24.109375 Z M 24.972656 24.109375 " fill-opacity="1" fill-rule="nonzero"/><g clip-path="url(#e5eec42466)"><path fill="#000000" d="M 11.796875 15.082031 C 11.796875 15.613281 11.828125 15.820312 11.859375 15.554688 C 11.886719 15.304688 11.886719 14.859375 11.859375 14.59375 C 11.828125 14.339844 11.796875 14.546875 11.796875 15.082031 Z M 11.796875 15.082031 " fill-opacity="1" fill-rule="nonzero"/></g><g clip-path="url(#22a09175cd)"><path fill="#000000" d="M 55.007812 17.847656 L 54.976562 19.507812 L 54.207031 19.566406 L 53.421875 19.609375 L 54.207031 19.640625 L 54.976562 19.667969 L 54.976562 21.429688 L 53.542969 21.492188 L 52.089844 21.535156 L 53.542969 21.5625 L 54.976562 21.59375 L 54.976562 25.144531 L 52.578125 25.191406 L 50.167969 25.234375 L 52.578125 25.265625 L 54.976562 25.292969 L 54.976562 27.070312 L 52.238281 27.070312 C 50.449219 27.070312 49.5 27.011719 49.5 26.921875 C 49.5 26.832031 49.414062 26.847656 49.292969 26.953125 C 49.175781 27.054688 49.144531 27.160156 49.21875 27.1875 C 49.292969 27.21875 49.351562 28.03125 49.351562 29.007812 L 49.351562 30.769531 L 47.589844 30.769531 L 47.53125 29.484375 L 47.488281 28.179688 L 47.457031 29.46875 L 47.429688 30.769531 L 43.890625 30.769531 L 43.832031 29.410156 L 43.789062 28.03125 L 43.757812 29.394531 L 43.726562 30.769531 L 41.953125 30.769531 L 41.921875 29.246094 L 41.890625 27.738281 L 41.820312 29.289062 C 41.730469 30.757812 41.773438 31.511719 41.921875 31.097656 C 41.953125 30.976562 42.308594 30.917969 42.855469 30.917969 L 43.726562 30.917969 L 43.726562 32.679688 L 43.105469 32.738281 L 42.46875 32.796875 L 43.105469 32.8125 L 43.726562 32.84375 L 43.726562 36.378906 L 42.882812 36.441406 L 42.027344 36.484375 L 42.871094 36.515625 L 43.714844 36.542969 L 43.773438 37.386719 L 43.816406 38.246094 L 43.847656 37.386719 L 43.875 36.542969 L 47.414062 36.542969 L 47.472656 37.386719 C 47.503906 37.859375 47.53125 37.03125 47.546875 35.539062 L 47.578125 32.84375 L 49.351562 32.84375 L 49.398438 35.539062 L 49.425781 38.246094 L 49.472656 35.539062 L 49.5 32.84375 L 54.976562 32.84375 L 54.976562 36.394531 L 52.285156 36.394531 C 50.804688 36.394531 49.632812 36.425781 49.679688 36.46875 C 49.722656 36.515625 50.492188 36.558594 51.394531 36.558594 L 53.039062 36.558594 L 53.097656 36.957031 L 53.15625 37.359375 L 53.1875 36.941406 C 53.203125 36.558594 53.230469 36.542969 54.089844 36.542969 L 54.964844 36.542969 L 55.023438 37.386719 C 55.050781 37.859375 55.082031 37.03125 55.097656 35.550781 L 55.125 32.859375 L 55.6875 32.796875 L 56.234375 32.738281 L 55.6875 32.726562 L 55.125 32.695312 L 55.125 30.933594 L 55.6875 30.875 L 56.234375 30.816406 L 55.6875 30.800781 L 55.125 30.769531 L 55.125 27.234375 L 55.6875 27.175781 L 56.234375 27.113281 L 55.6875 27.101562 L 55.125 27.070312 L 55.125 25.308594 L 55.6875 25.25 L 56.234375 25.191406 L 55.6875 25.175781 L 55.125 25.144531 L 55.125 21.609375 L 55.6875 21.550781 L 56.234375 21.492188 L 55.6875 21.476562 L 55.125 21.445312 L 55.125 19.683594 L 55.6875 19.625 L 56.234375 19.566406 L 55.6875 19.550781 L 55.140625 19.523438 L 55.082031 17.847656 L 55.039062 16.191406 Z M 54.976562 28.996094 L 54.976562 30.769531 L 49.5 30.769531 L 49.5 27.21875 L 54.976562 27.21875 Z M 47.429688 31.808594 L 47.429688 32.695312 L 43.875 32.695312 L 43.875 30.917969 L 47.429688 30.917969 Z M 49.351562 31.808594 L 49.351562 32.695312 L 47.578125 32.695312 L 47.578125 30.917969 L 49.351562 30.917969 Z M 54.976562 31.808594 L 54.976562 32.695312 L 49.5 32.695312 L 49.5 30.917969 L 54.976562 30.917969 Z M 47.429688 34.621094 L 47.429688 36.394531 L 43.875 36.394531 L 43.875 32.84375 L 47.429688 32.84375 Z M 47.429688 34.621094 " fill-opacity="1" fill-rule="nonzero"/></g><path fill="#000000" d="M 34.285156 18.292969 L 34.253906 19.507812 L 32.671875 19.566406 L 31.070312 19.609375 L 32.671875 19.640625 L 34.253906 19.667969 L 34.253906 21.429688 L 33.039062 21.492188 L 31.8125 21.535156 L 33.027344 21.5625 L 34.238281 21.59375 L 34.296875 23.105469 L 34.34375 24.628906 L 34.371094 23.105469 L 34.402344 21.59375 L 36.179688 21.59375 L 36.179688 25.132812 L 35.558594 25.191406 L 34.921875 25.25 L 35.542969 25.265625 C 36.164062 25.292969 36.164062 25.292969 36.222656 25.917969 C 36.253906 26.269531 36.28125 25.441406 36.296875 24.082031 C 36.328125 21.875 36.355469 21.609375 36.59375 21.550781 C 36.816406 21.492188 36.816406 21.476562 36.59375 21.460938 C 36.402344 21.445312 36.328125 21.269531 36.28125 20.585938 L 36.238281 19.742188 L 36.207031 20.585938 L 36.179688 21.445312 L 34.402344 21.445312 L 34.402344 19.683594 L 35.261719 19.625 L 36.105469 19.582031 L 35.261719 19.550781 L 34.417969 19.523438 L 34.359375 18.292969 L 34.3125 17.078125 Z M 34.285156 18.292969 " fill-opacity="1" fill-rule="nonzero"/><g clip-path="url(#2858a7ab11)"><path fill="#000000" d="M 11.796875 18.410156 C 11.796875 18.898438 11.828125 19.078125 11.859375 18.8125 C 11.886719 18.542969 11.886719 18.144531 11.859375 17.921875 C 11.828125 17.699219 11.796875 17.921875 11.796875 18.410156 Z M 11.796875 18.410156 " fill-opacity="1" fill-rule="nonzero"/></g><path fill="#000000" d="M 13.945312 17.699219 C 14.195312 17.730469 14.640625 17.730469 14.90625 17.699219 C 15.160156 17.671875 14.953125 17.640625 14.417969 17.640625 C 13.886719 17.640625 13.679688 17.671875 13.945312 17.699219 Z M 13.945312 17.699219 " fill-opacity="1" fill-rule="nonzero"/><path fill="#000000" d="M 32.078125 17.699219 C 32.464844 17.730469 33.085938 17.730469 33.484375 17.699219 C 33.871094 17.671875 33.542969 17.65625 32.773438 17.65625 C 32.003906 17.65625 31.679688 17.671875 32.078125 17.699219 Z M 32.078125 17.699219 " fill-opacity="1" fill-rule="nonzero"/><path fill="#000000" d="M 12.820312 19.625 C 13.292969 19.65625 14.0625 19.65625 14.523438 19.625 C 14.996094 19.597656 14.609375 19.582031 13.679688 19.582031 C 12.746094 19.582031 12.359375 19.597656 12.820312 19.625 Z M 12.820312 19.625 " fill-opacity="1" fill-rule="nonzero"/><path fill="#000000" d="M 12.597656 21.550781 C 12.953125 21.578125 13.515625 21.578125 13.855469 21.550781 C 14.210938 21.519531 13.929688 21.492188 13.234375 21.492188 C 12.539062 21.492188 12.257812 21.519531 12.597656 21.550781 Z M 12.597656 21.550781 " fill-opacity="1" fill-rule="nonzero"/><g clip-path="url(#da3b3347fa)"><path fill="#000000" d="M 11.796875 24.109375 C 11.796875 24.644531 11.828125 24.851562 11.859375 24.582031 C 11.886719 24.332031 11.886719 23.886719 11.859375 23.621094 C 11.828125 23.371094 11.796875 23.578125 11.796875 24.109375 Z M 11.796875 24.109375 " fill-opacity="1" fill-rule="nonzero"/></g><path fill="#000000" d="M 12.539062 27.175781 C 12.835938 27.203125 13.339844 27.203125 13.648438 27.175781 C 13.945312 27.144531 13.695312 27.113281 13.085938 27.113281 C 12.480469 27.113281 12.226562 27.144531 12.539062 27.175781 Z M 12.539062 27.175781 " fill-opacity="1" fill-rule="nonzero"/><g clip-path="url(#0834c1db18)"><path fill="#000000" d="M 15.484375 29.246094 L 15.453125 30.757812 L 13.722656 30.816406 L 11.976562 30.859375 L 13.722656 30.890625 L 15.453125 30.917969 L 15.453125 32.679688 L 13.722656 32.738281 L 11.976562 32.785156 L 13.722656 32.8125 L 15.453125 32.84375 L 15.453125 36.378906 L 13.796875 36.441406 L 12.125 36.484375 L 13.78125 36.515625 L 15.441406 36.542969 L 15.5 37.386719 L 15.542969 38.246094 L 15.574219 37.386719 L 15.601562 36.542969 L 17.363281 36.542969 L 17.421875 37.386719 C 17.453125 37.859375 17.484375 37.03125 17.496094 35.539062 L 17.527344 32.84375 L 21.078125 32.84375 L 21.078125 36.378906 L 19.347656 36.441406 L 17.601562 36.484375 L 19.332031 36.515625 L 21.066406 36.542969 L 21.125 37.386719 L 21.167969 38.246094 L 21.199219 37.386719 L 21.226562 36.542969 L 22.988281 36.542969 L 23.046875 37.386719 C 23.078125 37.859375 23.109375 37.03125 23.121094 35.550781 L 23.152344 32.859375 L 24.675781 32.796875 L 26.1875 32.753906 L 24.675781 32.726562 L 23.167969 32.695312 L 23.109375 31.984375 L 23.0625 31.289062 L 23.035156 31.984375 L 23.003906 32.695312 L 21.226562 32.695312 L 21.226562 31.820312 C 21.226562 30.976562 21.242188 30.933594 21.640625 30.875 C 21.863281 30.84375 21.035156 30.800781 19.792969 30.785156 L 17.542969 30.769531 L 17.484375 29.765625 L 17.4375 28.773438 L 17.410156 29.765625 L 17.378906 30.769531 L 15.617188 30.769531 L 15.558594 29.246094 L 15.515625 27.738281 Z M 17.378906 31.808594 L 17.378906 32.695312 L 15.601562 32.695312 L 15.601562 30.917969 L 17.378906 30.917969 Z M 21.078125 31.808594 L 21.078125 32.695312 L 17.527344 32.695312 L 17.527344 30.917969 L 21.078125 30.917969 Z M 17.378906 34.621094 L 17.378906 36.394531 L 15.601562 36.394531 L 15.601562 32.84375 L 17.378906 32.84375 Z M 23.003906 34.621094 L 23.003906 36.394531 L 21.226562 36.394531 L 21.226562 32.84375 L 23.003906 32.84375 Z M 23.003906 34.621094 " fill-opacity="1" fill-rule="nonzero"/></g><g clip-path="url(#b51ee95149)"><path fill="#000000" d="M 11.8125 34.621094 C 11.8125 35.550781 11.828125 35.9375 11.859375 35.464844 C 11.886719 35.003906 11.886719 34.234375 11.859375 33.761719 C 11.828125 33.300781 11.8125 33.6875 11.8125 34.621094 Z M 11.8125 34.621094 " fill-opacity="1" fill-rule="nonzero"/></g><path fill="#000000" d="M 24.988281 34.621094 C 24.988281 35.550781 25.003906 35.9375 25.03125 35.464844 C 25.0625 35.003906 25.0625 34.234375 25.03125 33.761719 C 25.003906 33.300781 24.988281 33.6875 24.988281 34.621094 Z M 24.988281 34.621094 " fill-opacity="1" fill-rule="nonzero"/><path fill="#000000" d="M 28.628906 35.210938 L 28.628906 36.394531 L 25.933594 36.425781 C 24.441406 36.441406 23.609375 36.46875 24.070312 36.5 L 24.914062 36.558594 L 24.972656 37.253906 L 25.015625 37.949219 L 25.046875 37.238281 L 25.078125 36.542969 L 28.613281 36.542969 L 28.671875 37.386719 C 28.703125 37.859375 28.734375 37.296875 28.746094 36.128906 C 28.761719 34.976562 28.746094 34.027344 28.703125 34.027344 C 28.660156 34.027344 28.628906 34.558594 28.628906 35.210938 Z M 28.628906 35.210938 " fill-opacity="1" fill-rule="nonzero"/><path fill="#000000" d="M 41.863281 36.320312 C 41.863281 37.386719 41.878906 37.785156 41.90625 37.238281 C 41.9375 36.691406 41.9375 35.816406 41.90625 35.316406 C 41.878906 34.8125 41.863281 35.257812 41.863281 36.320312 Z M 41.863281 36.320312 " fill-opacity="1" fill-rule="nonzero"/><path fill="#000000" d="M 30.613281 36.617188 C 30.613281 37.519531 30.628906 37.859375 30.65625 37.386719 C 30.6875 36.914062 30.6875 36.1875 30.65625 35.757812 C 30.628906 35.328125 30.613281 35.714844 30.613281 36.617188 Z M 30.613281 36.617188 " fill-opacity="1" fill-rule="nonzero"/><path fill="#000000" d="M 31.558594 36.5 C 31.988281 36.527344 32.65625 36.527344 33.039062 36.5 C 33.425781 36.46875 33.070312 36.453125 32.257812 36.453125 C 31.441406 36.453125 31.132812 36.46875 31.558594 36.5 Z M 31.558594 36.5 " fill-opacity="1" fill-rule="nonzero"/><path fill="#000000" d="M 34.296875 37.285156 C 34.296875 37.816406 34.328125 38.023438 34.359375 37.757812 C 34.386719 37.503906 34.386719 37.0625 34.359375 36.796875 C 34.328125 36.542969 34.296875 36.75 34.296875 37.285156 Z M 34.296875 37.285156 " fill-opacity="1" fill-rule="nonzero"/><g fill="#000000" fill-opacity="1"><g transform="translate(68.413702, 25.480021)"><g><path d="M 0.828125 0 L 0.828125 -3.46875 L 0.171875 -3.46875 L 0.171875 -4.140625 L 0.828125 -4.140625 C 0.773438 -4.316406 0.75 -4.484375 0.75 -4.640625 C 0.75 -4.898438 0.804688 -5.125 0.921875 -5.3125 C 1.046875 -5.5 1.210938 -5.640625 1.421875 -5.734375 C 1.640625 -5.828125 1.894531 -5.875 2.1875 -5.875 C 2.613281 -5.875 2.941406 -5.789062 3.171875 -5.625 L 2.921875 -5.015625 L 2.84375 -5.015625 C 2.6875 -5.128906 2.484375 -5.1875 2.234375 -5.1875 C 2.015625 -5.1875 1.847656 -5.128906 1.734375 -5.015625 C 1.628906 -4.910156 1.578125 -4.765625 1.578125 -4.578125 C 1.578125 -4.429688 1.597656 -4.285156 1.640625 -4.140625 L 2.890625 -4.140625 L 2.890625 -3.46875 L 1.640625 -3.46875 L 1.640625 0 Z M 0.828125 0 "/></g></g></g><g fill="#000000" fill-opacity="1"><g transform="translate(71.369253, 25.480021)"><g><path d="M 1.078125 -4.78125 C 0.910156 -4.78125 0.773438 -4.828125 0.671875 -4.921875 C 0.578125 -5.023438 0.53125 -5.148438 0.53125 -5.296875 C 0.53125 -5.453125 0.578125 -5.578125 0.671875 -5.671875 C 0.773438 -5.765625 0.910156 -5.8125 1.078125 -5.8125 C 1.234375 -5.8125 1.359375 -5.765625 1.453125 -5.671875 C 1.554688 -5.578125 1.609375 -5.453125 1.609375 -5.296875 C 1.609375 -5.148438 1.554688 -5.023438 1.453125 -4.921875 C 1.359375 -4.828125 1.234375 -4.78125 1.078125 -4.78125 Z M 0.65625 0 L 0.65625 -4.125 L 1.484375 -4.125 L 1.484375 0 Z M 0.65625 0 "/></g></g></g><g fill="#000000" fill-opacity="1"><g transform="translate(73.502783, 25.480021)"><g><path d="M 0.65625 0 L 0.65625 -4.125 L 1.453125 -4.125 L 1.453125 -3.5 L 1.53125 -3.484375 C 1.65625 -3.722656 1.820312 -3.898438 2.03125 -4.015625 C 2.25 -4.140625 2.507812 -4.203125 2.8125 -4.203125 C 3.289062 -4.203125 3.640625 -4.070312 3.859375 -3.8125 C 4.085938 -3.5625 4.203125 -3.179688 4.203125 -2.671875 L 4.203125 0 L 3.375 0 L 3.375 -2.609375 C 3.375 -2.929688 3.3125 -3.160156 3.1875 -3.296875 C 3.0625 -3.429688 2.859375 -3.5 2.578125 -3.5 C 2.242188 -3.5 1.976562 -3.390625 1.78125 -3.171875 C 1.582031 -2.953125 1.484375 -2.601562 1.484375 -2.125 L 1.484375 0 Z M 0.65625 0 "/></g></g></g><g fill="#000000" fill-opacity="1"><g transform="translate(78.289203, 25.480021)"><g><path d="M 2.09375 0.078125 C 1.757812 0.078125 1.46875 0 1.21875 -0.15625 C 0.96875 -0.3125 0.769531 -0.550781 0.625 -0.875 C 0.476562 -1.195312 0.40625 -1.59375 0.40625 -2.0625 C 0.40625 -2.53125 0.476562 -2.925781 0.625 -3.25 C 0.78125 -3.570312 0.988281 -3.8125 1.25 -3.96875 C 1.507812 -4.125 1.8125 -4.203125 2.15625 -4.203125 C 2.425781 -4.203125 2.660156 -4.15625 2.859375 -4.0625 C 3.066406 -3.96875 3.238281 -3.816406 3.375 -3.609375 L 3.46875 -3.625 L 3.46875 -5.796875 L 4.28125 -5.796875 L 4.28125 0 L 3.46875 0 L 3.46875 -0.5625 L 3.375 -0.578125 C 3.25 -0.378906 3.078125 -0.21875 2.859375 -0.09375 C 2.648438 0.0195312 2.394531 0.078125 2.09375 0.078125 Z M 2.359375 -0.640625 C 2.691406 -0.640625 2.957031 -0.753906 3.15625 -0.984375 C 3.363281 -1.222656 3.46875 -1.582031 3.46875 -2.0625 C 3.46875 -2.550781 3.363281 -2.910156 3.15625 -3.140625 C 2.957031 -3.378906 2.691406 -3.5 2.359375 -3.5 C 1.628906 -3.5 1.265625 -3.019531 1.265625 -2.0625 C 1.265625 -1.113281 1.628906 -0.640625 2.359375 -0.640625 Z M 2.359375 -0.640625 "/></g></g></g><g fill="#000000" fill-opacity="1"><g transform="translate(83.221337, 25.480021)"><g/></g></g><g fill="#000000" fill-opacity="1"><g transform="translate(85.063422, 25.480021)"><g><path d="M 0.875 1.75 C 0.71875 1.75 0.570312 1.734375 0.4375 1.703125 C 0.300781 1.679688 0.191406 1.648438 0.109375 1.609375 L 0.25 0.953125 L 0.3125 0.921875 C 0.375 0.953125 0.445312 0.976562 0.53125 1 C 0.625 1.019531 0.722656 1.03125 0.828125 1.03125 C 0.992188 1.03125 1.128906 1.007812 1.234375 0.96875 C 1.347656 0.925781 1.441406 0.851562 1.515625 0.75 C 1.597656 0.644531 1.671875 0.503906 1.734375 0.328125 L 1.8125 0.125 L 0.15625 -4.125 L 1.015625 -4.125 L 2.1875 -1.015625 L 2.265625 -1.015625 L 3.390625 -4.125 L 4.234375 -4.125 L 2.484375 0.453125 C 2.367188 0.765625 2.238281 1.015625 2.09375 1.203125 C 1.945312 1.390625 1.773438 1.523438 1.578125 1.609375 C 1.378906 1.703125 1.144531 1.75 0.875 1.75 Z M 0.875 1.75 "/></g></g></g><g fill="#000000" fill-opacity="1"><g transform="translate(89.450032, 25.480021)"><g><path d="M 2.390625 0.078125 C 1.992188 0.078125 1.644531 -0.00390625 1.34375 -0.171875 C 1.050781 -0.335938 0.820312 -0.578125 0.65625 -0.890625 C 0.488281 -1.210938 0.40625 -1.601562 0.40625 -2.0625 C 0.40625 -2.519531 0.488281 -2.910156 0.65625 -3.234375 C 0.820312 -3.554688 1.050781 -3.796875 1.34375 -3.953125 C 1.644531 -4.117188 1.992188 -4.203125 2.390625 -4.203125 C 2.785156 -4.203125 3.128906 -4.117188 3.421875 -3.953125 C 3.722656 -3.796875 3.953125 -3.554688 4.109375 -3.234375 C 4.273438 -2.910156 4.359375 -2.519531 4.359375 -2.0625 C 4.359375 -1.601562 4.273438 -1.210938 4.109375 -0.890625 C 3.953125 -0.578125 3.722656 -0.335938 3.421875 -0.171875 C 3.128906 -0.00390625 2.785156 0.078125 2.390625 0.078125 Z M 2.390625 -0.640625 C 3.128906 -0.640625 3.5 -1.113281 3.5 -2.0625 C 3.5 -3.019531 3.128906 -3.5 2.390625 -3.5 C 2.023438 -3.5 1.742188 -3.378906 1.546875 -3.140625 C 1.359375 -2.910156 1.265625 -2.550781 1.265625 -2.0625 C 1.265625 -1.113281 1.640625 -0.640625 2.390625 -0.640625 Z M 2.390625 -0.640625 "/></g></g></g><g fill="#000000" fill-opacity="1"><g transform="translate(94.210289, 25.480021)"><g><path d="M 1.96875 0.078125 C 1.5 0.078125 1.148438 -0.046875 0.921875 -0.296875 C 0.703125 -0.546875 0.59375 -0.910156 0.59375 -1.390625 L 0.59375 -4.125 L 1.421875 -4.125 L 1.421875 -1.46875 C 1.421875 -1.175781 1.484375 -0.960938 1.609375 -0.828125 C 1.742188 -0.691406 1.9375 -0.625 2.1875 -0.625 C 2.519531 -0.625 2.78125 -0.734375 2.96875 -0.953125 C 3.15625 -1.171875 3.25 -1.519531 3.25 -2 L 3.25 -4.125 L 4.078125 -4.125 L 4.078125 0 L 3.296875 0 L 3.296875 -0.625 L 3.21875 -0.640625 C 3.082031 -0.398438 2.914062 -0.21875 2.71875 -0.09375 C 2.519531 0.0195312 2.269531 0.078125 1.96875 0.078125 Z M 1.96875 0.078125 "/></g></g></g><g fill="#000000" fill-opacity="1"><g transform="translate(98.936925, 25.480021)"><g><path d="M 0.65625 0 L 0.65625 -4.125 L 1.453125 -4.125 L 1.453125 -3.5 L 1.53125 -3.484375 C 1.632812 -3.722656 1.769531 -3.894531 1.9375 -4 C 2.113281 -4.113281 2.320312 -4.171875 2.5625 -4.171875 C 2.820312 -4.171875 3.019531 -4.125 3.15625 -4.03125 L 2.984375 -3.328125 L 2.90625 -3.3125 C 2.832031 -3.34375 2.757812 -3.363281 2.6875 -3.375 C 2.613281 -3.394531 2.53125 -3.40625 2.4375 -3.40625 C 2.132812 -3.40625 1.898438 -3.289062 1.734375 -3.0625 C 1.566406 -2.84375 1.484375 -2.484375 1.484375 -1.984375 L 1.484375 0 Z M 0.65625 0 "/></g></g></g><g fill="#000000" fill-opacity="1"><g transform="translate(68.429545, 34.085703)"><g><path d="M 0.65625 1.671875 L 0.65625 -4.125 L 1.484375 -4.125 L 1.484375 -3.5625 L 1.5625 -3.546875 C 1.695312 -3.765625 1.875 -3.925781 2.09375 -4.03125 C 2.3125 -4.144531 2.5625 -4.203125 2.84375 -4.203125 C 3.1875 -4.203125 3.484375 -4.125 3.734375 -3.96875 C 3.984375 -3.8125 4.175781 -3.570312 4.3125 -3.25 C 4.457031 -2.9375 4.53125 -2.539062 4.53125 -2.0625 C 4.53125 -1.59375 4.453125 -1.195312 4.296875 -0.875 C 4.148438 -0.550781 3.945312 -0.3125 3.6875 -0.15625 C 3.425781 0 3.125 0.078125 2.78125 0.078125 C 2.519531 0.078125 2.285156 0.03125 2.078125 -0.0625 C 1.878906 -0.15625 1.707031 -0.300781 1.5625 -0.5 L 1.484375 -0.484375 L 1.484375 1.671875 Z M 2.578125 -0.640625 C 2.929688 -0.640625 3.203125 -0.753906 3.390625 -0.984375 C 3.578125 -1.210938 3.671875 -1.570312 3.671875 -2.0625 C 3.671875 -2.5625 3.578125 -2.925781 3.390625 -3.15625 C 3.203125 -3.382812 2.929688 -3.5 2.578125 -3.5 C 2.242188 -3.5 1.972656 -3.378906 1.765625 -3.140625 C 1.566406 -2.898438 1.46875 -2.539062 1.46875 -2.0625 C 1.46875 -1.582031 1.566406 -1.222656 1.765625 -0.984375 C 1.972656 -0.753906 2.242188 -0.640625 2.578125 -0.640625 Z M 2.578125 -0.640625 "/></g></g></g><g fill="#000000" fill-opacity="1"><g transform="translate(73.35795, 34.085703)"><g><path d="M 4.015625 -1.875 L 1.265625 -1.875 C 1.304688 -1.050781 1.691406 -0.640625 2.421875 -0.640625 C 2.679688 -0.640625 2.894531 -0.6875 3.0625 -0.78125 C 3.226562 -0.875 3.359375 -1.023438 3.453125 -1.234375 L 3.53125 -1.234375 L 4.078125 -0.890625 C 3.941406 -0.597656 3.738281 -0.363281 3.46875 -0.1875 C 3.207031 -0.0078125 2.859375 0.078125 2.421875 0.078125 C 2.003906 0.078125 1.644531 0 1.34375 -0.15625 C 1.050781 -0.320312 0.820312 -0.5625 0.65625 -0.875 C 0.488281 -1.195312 0.40625 -1.59375 0.40625 -2.0625 C 0.40625 -2.53125 0.488281 -2.925781 0.65625 -3.25 C 0.832031 -3.570312 1.066406 -3.8125 1.359375 -3.96875 C 1.660156 -4.125 1.992188 -4.203125 2.359375 -4.203125 C 2.921875 -4.203125 3.351562 -4.050781 3.65625 -3.75 C 3.957031 -3.445312 4.109375 -3 4.109375 -2.40625 C 4.109375 -2.1875 4.101562 -2.023438 4.09375 -1.921875 Z M 3.3125 -2.46875 C 3.300781 -2.84375 3.210938 -3.113281 3.046875 -3.28125 C 2.890625 -3.457031 2.660156 -3.546875 2.359375 -3.546875 C 2.054688 -3.546875 1.8125 -3.457031 1.625 -3.28125 C 1.445312 -3.113281 1.332031 -2.84375 1.28125 -2.46875 Z M 3.3125 -2.46875 "/></g></g></g><g fill="#000000" fill-opacity="1"><g transform="translate(77.796871, 34.085703)"><g><path d="M 0.65625 0 L 0.65625 -4.125 L 1.453125 -4.125 L 1.453125 -3.5 L 1.53125 -3.484375 C 1.632812 -3.722656 1.769531 -3.894531 1.9375 -4 C 2.113281 -4.113281 2.320312 -4.171875 2.5625 -4.171875 C 2.820312 -4.171875 3.019531 -4.125 3.15625 -4.03125 L 2.984375 -3.328125 L 2.90625 -3.3125 C 2.832031 -3.34375 2.757812 -3.363281 2.6875 -3.375 C 2.613281 -3.394531 2.53125 -3.40625 2.4375 -3.40625 C 2.132812 -3.40625 1.898438 -3.289062 1.734375 -3.0625 C 1.566406 -2.84375 1.484375 -2.484375 1.484375 -1.984375 L 1.484375 0 Z M 0.65625 0 "/></g></g></g><g fill="#000000" fill-opacity="1"><g transform="translate(81.006502, 34.085703)"><g><path d="M 0.828125 0 L 0.828125 -3.46875 L 0.171875 -3.46875 L 0.171875 -4.140625 L 0.828125 -4.140625 C 0.773438 -4.316406 0.75 -4.484375 0.75 -4.640625 C 0.75 -4.898438 0.804688 -5.125 0.921875 -5.3125 C 1.046875 -5.5 1.210938 -5.640625 1.421875 -5.734375 C 1.640625 -5.828125 1.894531 -5.875 2.1875 -5.875 C 2.613281 -5.875 2.941406 -5.789062 3.171875 -5.625 L 2.921875 -5.015625 L 2.84375 -5.015625 C 2.6875 -5.128906 2.484375 -5.1875 2.234375 -5.1875 C 2.015625 -5.1875 1.847656 -5.128906 1.734375 -5.015625 C 1.628906 -4.910156 1.578125 -4.765625 1.578125 -4.578125 C 1.578125 -4.429688 1.597656 -4.285156 1.640625 -4.140625 L 2.890625 -4.140625 L 2.890625 -3.46875 L 1.640625 -3.46875 L 1.640625 0 Z M 0.828125 0 "/></g></g></g><g fill="#000000" fill-opacity="1"><g transform="translate(83.962054, 34.085703)"><g><path d="M 4.015625 -1.875 L 1.265625 -1.875 C 1.304688 -1.050781 1.691406 -0.640625 2.421875 -0.640625 C 2.679688 -0.640625 2.894531 -0.6875 3.0625 -0.78125 C 3.226562 -0.875 3.359375 -1.023438 3.453125 -1.234375 L 3.53125 -1.234375 L 4.078125 -0.890625 C 3.941406 -0.597656 3.738281 -0.363281 3.46875 -0.1875 C 3.207031 -0.0078125 2.859375 0.078125 2.421875 0.078125 C 2.003906 0.078125 1.644531 0 1.34375 -0.15625 C 1.050781 -0.320312 0.820312 -0.5625 0.65625 -0.875 C 0.488281 -1.195312 0.40625 -1.59375 0.40625 -2.0625 C 0.40625 -2.53125 0.488281 -2.925781 0.65625 -3.25 C 0.832031 -3.570312 1.066406 -3.8125 1.359375 -3.96875 C 1.660156 -4.125 1.992188 -4.203125 2.359375 -4.203125 C 2.921875 -4.203125 3.351562 -4.050781 3.65625 -3.75 C 3.957031 -3.445312 4.109375 -3 4.109375 -2.40625 C 4.109375 -2.1875 4.101562 -2.023438 4.09375 -1.921875 Z M 3.3125 -2.46875 C 3.300781 -2.84375 3.210938 -3.113281 3.046875 -3.28125 C 2.890625 -3.457031 2.660156 -3.546875 2.359375 -3.546875 C 2.054688 -3.546875 1.8125 -3.457031 1.625 -3.28125 C 1.445312 -3.113281 1.332031 -2.84375 1.28125 -2.46875 Z M 3.3125 -2.46875 "/></g></g></g><g fill="#000000" fill-opacity="1"><g transform="translate(88.400975, 34.085703)"><g><path d="M 2.390625 0.078125 C 2.003906 0.078125 1.660156 -0.00390625 1.359375 -0.171875 C 1.066406 -0.335938 0.832031 -0.582031 0.65625 -0.90625 C 0.488281 -1.226562 0.40625 -1.613281 0.40625 -2.0625 C 0.40625 -2.507812 0.488281 -2.894531 0.65625 -3.21875 C 0.832031 -3.550781 1.066406 -3.796875 1.359375 -3.953125 C 1.660156 -4.117188 2 -4.203125 2.375 -4.203125 C 2.820312 -4.203125 3.175781 -4.117188 3.4375 -3.953125 C 3.707031 -3.796875 3.898438 -3.570312 4.015625 -3.28125 L 3.453125 -2.875 L 3.375 -2.875 C 3.28125 -3.09375 3.15625 -3.25 3 -3.34375 C 2.84375 -3.445312 2.632812 -3.5 2.375 -3.5 C 2.03125 -3.5 1.757812 -3.378906 1.5625 -3.140625 C 1.363281 -2.898438 1.265625 -2.539062 1.265625 -2.0625 C 1.265625 -1.59375 1.363281 -1.238281 1.5625 -1 C 1.769531 -0.757812 2.046875 -0.640625 2.390625 -0.640625 C 2.898438 -0.640625 3.242188 -0.890625 3.421875 -1.390625 L 3.5 -1.390625 L 4.078125 -1.078125 C 3.960938 -0.722656 3.765625 -0.441406 3.484375 -0.234375 C 3.210938 -0.0234375 2.847656 0.078125 2.390625 0.078125 Z M 2.390625 0.078125 "/></g></g></g><g fill="#000000" fill-opacity="1"><g transform="translate(92.649344, 34.085703)"><g><path d="M 2.828125 -0.828125 L 3.0625 -0.21875 C 2.957031 -0.125 2.820312 -0.0507812 2.65625 0 C 2.488281 0.0507812 2.304688 0.078125 2.109375 0.078125 C 1.691406 0.078125 1.375 -0.03125 1.15625 -0.25 C 0.9375 -0.46875 0.828125 -0.796875 0.828125 -1.234375 L 0.828125 -3.46875 L 0.15625 -3.46875 L 0.15625 -4.140625 L 0.828125 -4.140625 L 0.828125 -4.96875 L 1.65625 -5.109375 L 1.65625 -4.140625 L 2.90625 -4.140625 L 2.90625 -3.46875 L 1.65625 -3.46875 L 1.65625 -1.296875 C 1.65625 -1.066406 1.703125 -0.898438 1.796875 -0.796875 C 1.890625 -0.703125 2.03125 -0.65625 2.21875 -0.65625 C 2.414062 -0.65625 2.59375 -0.710938 2.75 -0.828125 Z M 2.828125 -0.828125 "/></g></g></g><g fill="#000000" fill-opacity="1"><g transform="translate(95.82161, 34.085703)"><g/></g></g><g fill="#000000" fill-opacity="1"><g transform="translate(97.663696, 34.085703)"><g><path d="M 0.828125 0 L 0.828125 -3.46875 L 0.171875 -3.46875 L 0.171875 -4.140625 L 0.828125 -4.140625 C 0.773438 -4.316406 0.75 -4.484375 0.75 -4.640625 C 0.75 -4.898438 0.804688 -5.125 0.921875 -5.3125 C 1.046875 -5.5 1.210938 -5.640625 1.421875 -5.734375 C 1.640625 -5.828125 1.894531 -5.875 2.1875 -5.875 C 2.613281 -5.875 2.941406 -5.789062 3.171875 -5.625 L 2.921875 -5.015625 L 2.84375 -5.015625 C 2.6875 -5.128906 2.484375 -5.1875 2.234375 -5.1875 C 2.015625 -5.1875 1.847656 -5.128906 1.734375 -5.015625 C 1.628906 -4.910156 1.578125 -4.765625 1.578125 -4.578125 C 1.578125 -4.429688 1.597656 -4.285156 1.640625 -4.140625 L 2.890625 -4.140625 L 2.890625 -3.46875 L 1.640625 -3.46875 L 1.640625 0 Z M 0.828125 0 "/></g></g></g><g fill="#000000" fill-opacity="1"><g transform="translate(100.619247, 34.085703)"><g><path d="M 1.078125 -4.78125 C 0.910156 -4.78125 0.773438 -4.828125 0.671875 -4.921875 C 0.578125 -5.023438 0.53125 -5.148438 0.53125 -5.296875 C 0.53125 -5.453125 0.578125 -5.578125 0.671875 -5.671875 C 0.773438 -5.765625 0.910156 -5.8125 1.078125 -5.8125 C 1.234375 -5.8125 1.359375 -5.765625 1.453125 -5.671875 C 1.554688 -5.578125 1.609375 -5.453125 1.609375 -5.296875 C 1.609375 -5.148438 1.554688 -5.023438 1.453125 -4.921875 C 1.359375 -4.828125 1.234375 -4.78125 1.078125 -4.78125 Z M 0.65625 0 L 0.65625 -4.125 L 1.484375 -4.125 L 1.484375 0 Z M 0.65625 0 "/></g></g></g><g fill="#000000" fill-opacity="1"><g transform="translate(102.752777, 34.085703)"><g><path d="M 2.828125 -0.828125 L 3.0625 -0.21875 C 2.957031 -0.125 2.820312 -0.0507812 2.65625 0 C 2.488281 0.0507812 2.304688 0.078125 2.109375 0.078125 C 1.691406 0.078125 1.375 -0.03125 1.15625 -0.25 C 0.9375 -0.46875 0.828125 -0.796875 0.828125 -1.234375 L 0.828125 -3.46875 L 0.15625 -3.46875 L 0.15625 -4.140625 L 0.828125 -4.140625 L 0.828125 -4.96875 L 1.65625 -5.109375 L 1.65625 -4.140625 L 2.90625 -4.140625 L 2.90625 -3.46875 L 1.65625 -3.46875 L 1.65625 -1.296875 C 1.65625 -1.066406 1.703125 -0.898438 1.796875 -0.796875 C 1.890625 -0.703125 2.03125 -0.65625 2.21875 -0.65625 C 2.414062 -0.65625 2.59375 -0.710938 2.75 -0.828125 Z M 2.828125 -0.828125 "/></g></g></g></svg>