<svg xmlns="http://www.w3.org/2000/svg" xmlns:xlink="http://www.w3.org/1999/xlink" width="100" zoomAndPan="magnify" viewBox="0 0 75 74.999997" height="100" preserveAspectRatio="xMidYMid meet" version="1.0"><defs><g/><clipPath id="f6d7918647"><path d="M 10.472656 3.226562 L 64.1875 3.226562 L 64.1875 23 L 10.472656 23 Z M 10.472656 3.226562 " clip-rule="nonzero"/></clipPath><clipPath id="8c222ffa7b"><path d="M 10.472656 5 L 11 5 L 11 8 L 10.472656 8 Z M 10.472656 5 " clip-rule="nonzero"/></clipPath><clipPath id="223b34d15a"><path d="M 10.472656 17 L 11 17 L 11 19 L 10.472656 19 Z M 10.472656 17 " clip-rule="nonzero"/></clipPath><clipPath id="c1c3236c6f"><path d="M 46 19 L 64.1875 19 L 64.1875 45.976562 L 46 45.976562 Z M 46 19 " clip-rule="nonzero"/></clipPath><clipPath id="095712b530"><path d="M 10.472656 21 L 11 21 L 11 23 L 10.472656 23 Z M 10.472656 21 " clip-rule="nonzero"/></clipPath><clipPath id="9eb6d727f8"><path d="M 10.472656 28 L 11 28 L 11 30 L 10.472656 30 Z M 10.472656 28 " clip-rule="nonzero"/></clipPath><clipPath id="6fec660e81"><path d="M 10.472656 33 L 28 33 L 28 45.976562 L 10.472656 45.976562 Z M 10.472656 33 " clip-rule="nonzero"/></clipPath><clipPath id="0618516171"><path d="M 10.472656 40 L 11 40 L 11 43 L 10.472656 43 Z M 10.472656 40 " clip-rule="nonzero"/></clipPath><clipPath id="dd09837f41"><path d="M 25 40 L 32 40 L 32 45.976562 L 25 45.976562 Z M 25 40 " clip-rule="nonzero"/></clipPath><clipPath id="5a2ac7d02c"><path d="M 46 42 L 47 42 L 47 45.976562 L 46 45.976562 Z M 46 42 " clip-rule="nonzero"/></clipPath><clipPath id="e74db2c5a5"><path d="M 33 42 L 34 42 L 34 45.976562 L 33 45.976562 Z M 33 42 " clip-rule="nonzero"/></clipPath><clipPath id="9ef56875ef"><path d="M 37 44 L 38 44 L 38 45.976562 L 37 45.976562 Z M 37 44 " clip-rule="nonzero"/></clipPath></defs><rect x="-7.5" width="90" fill="#ffffff" y="-7.5" height="89.999996" fill-opacity="1"/><rect x="-7.5" width="90" fill="#ffffff" y="-7.5" height="89.999996" fill-opacity="1"/><g fill="#000000" fill-opacity="1"><g transform="translate(12.939137, 65.447722)"><g><path d="M 2.109375 0 L 2.109375 -13.71875 L 3.59375 -13.71875 L 3.59375 -1.265625 L 7.453125 -1.265625 L 7.453125 0 Z M 2.109375 0 "/></g></g></g><g fill="#000000" fill-opacity="1"><g transform="translate(20.805688, 65.447722)"><g><path d="M 8.65625 0 L 8.015625 0 L 7.46875 -1.34375 C 7.175781 -0.84375 6.789062 -0.441406 6.3125 -0.140625 C 5.832031 0.160156 5.300781 0.3125 4.71875 0.3125 C 2.695312 0.3125 1.6875 -0.671875 1.6875 -2.640625 L 1.6875 -4.75 C 1.6875 -6.71875 2.695312 -7.703125 4.71875 -7.703125 L 7.171875 -7.703125 L 7.171875 -11.15625 C 7.171875 -11.664062 7.007812 -12.0625 6.6875 -12.34375 C 6.363281 -12.625 5.882812 -12.765625 5.25 -12.765625 C 4 -12.765625 3.375 -12.226562 3.375 -11.15625 L 3.375 -9.921875 L 1.90625 -9.921875 L 1.90625 -11.078125 C 1.90625 -12.015625 2.179688 -12.738281 2.734375 -13.25 C 3.285156 -13.769531 4.125 -14.03125 5.25 -14.03125 C 6.375 -14.03125 7.222656 -13.769531 7.796875 -13.25 C 8.367188 -12.738281 8.65625 -12.015625 8.65625 -11.078125 Z M 7.171875 -6.4375 L 4.71875 -6.4375 C 4.132812 -6.4375 3.726562 -6.285156 3.5 -5.984375 C 3.28125 -5.691406 3.171875 -5.28125 3.171875 -4.75 L 3.171875 -2.640625 C 3.171875 -2.097656 3.28125 -1.679688 3.5 -1.390625 C 3.726562 -1.097656 4.132812 -0.953125 4.71875 -0.953125 C 5.3125 -0.953125 5.859375 -1.179688 6.359375 -1.640625 C 6.867188 -2.097656 7.140625 -2.550781 7.171875 -3 Z M 7.171875 -6.4375 "/></g></g></g><g fill="#000000" fill-opacity="1"><g transform="translate(31.350666, 65.447722)"><g><path d="M 8.65625 0 L 8.015625 0 L 7.46875 -1.34375 C 7.175781 -0.84375 6.789062 -0.441406 6.3125 -0.140625 C 5.832031 0.160156 5.300781 0.3125 4.71875 0.3125 C 2.695312 0.3125 1.6875 -0.671875 1.6875 -2.640625 L 1.6875 -4.75 C 1.6875 -6.71875 2.695312 -7.703125 4.71875 -7.703125 L 7.171875 -7.703125 L 7.171875 -11.15625 C 7.171875 -11.664062 7.007812 -12.0625 6.6875 -12.34375 C 6.363281 -12.625 5.882812 -12.765625 5.25 -12.765625 C 4 -12.765625 3.375 -12.226562 3.375 -11.15625 L 3.375 -9.921875 L 1.90625 -9.921875 L 1.90625 -11.078125 C 1.90625 -12.015625 2.179688 -12.738281 2.734375 -13.25 C 3.285156 -13.769531 4.125 -14.03125 5.25 -14.03125 C 6.375 -14.03125 7.222656 -13.769531 7.796875 -13.25 C 8.367188 -12.738281 8.65625 -12.015625 8.65625 -11.078125 Z M 7.171875 -6.4375 L 4.71875 -6.4375 C 4.132812 -6.4375 3.726562 -6.285156 3.5 -5.984375 C 3.28125 -5.691406 3.171875 -5.28125 3.171875 -4.75 L 3.171875 -2.640625 C 3.171875 -2.097656 3.28125 -1.679688 3.5 -1.390625 C 3.726562 -1.097656 4.132812 -0.953125 4.71875 -0.953125 C 5.3125 -0.953125 5.859375 -1.179688 6.359375 -1.640625 C 6.867188 -2.097656 7.140625 -2.550781 7.171875 -3 Z M 7.171875 -6.4375 "/></g></g></g><g fill="#000000" fill-opacity="1"><g transform="translate(41.895644, 65.447722)"><g><path d="M 3.609375 0 L 2.125 0 L 2.125 -13.71875 L 3.609375 -13.71875 L 3.609375 -7.890625 L 7.28125 -13.71875 L 8.921875 -13.71875 L 5.1875 -7.8125 L 9.171875 0 L 7.546875 0 L 4.296875 -6.390625 L 3.609375 -5.28125 Z M 3.609375 0 "/></g></g></g><g fill="#000000" fill-opacity="1"><g transform="translate(51.491576, 65.447722)"><g><path d="M 8.65625 0 L 8.015625 0 L 7.46875 -1.34375 C 7.175781 -0.84375 6.789062 -0.441406 6.3125 -0.140625 C 5.832031 0.160156 5.300781 0.3125 4.71875 0.3125 C 2.695312 0.3125 1.6875 -0.671875 1.6875 -2.640625 L 1.6875 -4.75 C 1.6875 -6.71875 2.695312 -7.703125 4.71875 -7.703125 L 7.171875 -7.703125 L 7.171875 -11.15625 C 7.171875 -11.664062 7.007812 -12.0625 6.6875 -12.34375 C 6.363281 -12.625 5.882812 -12.765625 5.25 -12.765625 C 4 -12.765625 3.375 -12.226562 3.375 -11.15625 L 3.375 -9.921875 L 1.90625 -9.921875 L 1.90625 -11.078125 C 1.90625 -12.015625 2.179688 -12.738281 2.734375 -13.25 C 3.285156 -13.769531 4.125 -14.03125 5.25 -14.03125 C 6.375 -14.03125 7.222656 -13.769531 7.796875 -13.25 C 8.367188 -12.738281 8.65625 -12.015625 8.65625 -11.078125 Z M 7.171875 -6.4375 L 4.71875 -6.4375 C 4.132812 -6.4375 3.726562 -6.285156 3.5 -5.984375 C 3.28125 -5.691406 3.171875 -5.28125 3.171875 -4.75 L 3.171875 -2.640625 C 3.171875 -2.097656 3.28125 -1.679688 3.5 -1.390625 C 3.726562 -1.097656 4.132812 -0.953125 4.71875 -0.953125 C 5.3125 -0.953125 5.859375 -1.179688 6.359375 -1.640625 C 6.867188 -2.097656 7.140625 -2.550781 7.171875 -3 Z M 7.171875 -6.4375 "/></g></g></g><g clip-path="url(#f6d7918647)"><path fill="#000000" d="M 12.855469 3.351562 L 14.949219 3.421875 L 14.949219 7.660156 L 12.855469 7.734375 L 10.742188 7.785156 L 12.855469 7.824219 L 14.949219 7.859375 L 14.949219 9.976562 L 12.835938 10.050781 L 10.742188 10.101562 L 12.855469 10.136719 L 14.949219 10.171875 L 14.949219 14.429688 L 12.835938 14.503906 L 10.742188 14.554688 L 12.855469 14.589844 L 14.949219 14.628906 L 14.949219 16.746094 L 12.660156 16.816406 L 10.382812 16.871094 L 12.675781 16.90625 L 14.949219 16.941406 L 14.984375 20.183594 C 15.003906 21.984375 15.039062 22.980469 15.074219 22.429688 C 15.148438 21.433594 15.164062 21.414062 15.71875 21.34375 L 16.292969 21.269531 L 15.71875 21.253906 L 15.128906 21.21875 L 15.128906 16.941406 L 17.261719 16.941406 L 17.332031 18.136719 L 17.386719 19.347656 L 17.421875 18.152344 L 17.457031 16.960938 L 18.136719 16.890625 L 18.800781 16.816406 L 18.136719 16.800781 L 17.457031 16.765625 L 17.457031 14.628906 L 20.75 14.628906 C 23.742188 14.628906 24.0625 14.664062 24.136719 14.929688 C 24.207031 15.234375 24.226562 15.234375 24.242188 14.929688 C 24.261719 14.664062 24.546875 14.628906 27.554688 14.628906 L 30.867188 14.628906 L 30.9375 15.464844 L 30.992188 16.320312 L 31.027344 15.375 L 31.0625 14.449219 L 24.261719 14.449219 L 24.261719 10.191406 L 25.65625 10.121094 L 27.035156 10.066406 L 25.65625 10.03125 L 24.261719 9.996094 L 24.261719 7.859375 L 26.390625 7.859375 L 26.460938 8.875 L 26.515625 9.90625 L 26.550781 8.890625 L 26.589844 7.875 L 27.269531 7.804688 L 27.929688 7.734375 L 27.269531 7.714844 L 26.605469 7.679688 L 26.535156 5.578125 L 26.480469 3.492188 L 26.445312 5.578125 L 26.410156 7.679688 L 24.261719 7.679688 L 24.261719 3.40625 L 30.867188 3.40625 L 30.9375 4.152344 L 31.011719 4.917969 L 31.027344 4.152344 L 31.0625 3.40625 L 46.820312 3.40625 L 46.820312 7.660156 L 44.816406 7.734375 L 42.792969 7.785156 L 44.796875 7.824219 L 46.800781 7.859375 L 46.875 8.785156 L 46.929688 9.726562 L 46.964844 8.785156 L 47 7.859375 L 49.148438 7.859375 L 49.148438 9.976562 L 48.394531 10.050781 L 47.625 10.121094 L 48.378906 10.136719 C 49.003906 10.171875 49.128906 10.246094 49.203125 10.566406 L 49.273438 10.976562 L 49.308594 10.566406 C 49.328125 10.171875 49.378906 10.171875 51.476562 10.171875 L 53.605469 10.171875 L 53.679688 11.546875 L 53.730469 12.933594 L 53.765625 11.546875 L 53.804688 10.171875 L 55.933594 10.171875 L 56.003906 12.167969 L 56.058594 14.183594 L 56.09375 12.167969 L 56.128906 10.171875 L 62.753906 10.171875 L 62.753906 14.429688 L 59.945312 14.503906 L 57.117188 14.554688 L 59.945312 14.589844 L 62.753906 14.628906 L 62.753906 15.679688 C 62.753906 16.695312 62.738281 16.746094 62.273438 16.816406 L 61.769531 16.890625 L 62.253906 16.925781 C 62.648438 16.941406 62.738281 17.03125 62.808594 17.511719 L 62.878906 18.101562 L 62.898438 17.53125 C 62.933594 17.015625 62.988281 16.960938 63.613281 16.890625 L 64.277344 16.816406 L 63.613281 16.800781 L 62.933594 16.765625 L 62.933594 14.644531 L 63.613281 14.574219 L 64.277344 14.503906 L 63.613281 14.484375 L 62.933594 14.449219 L 62.933594 10.191406 L 63.613281 10.121094 L 64.277344 10.050781 L 63.613281 10.03125 L 62.933594 9.996094 L 62.933594 7.875 L 63.613281 7.804688 L 64.277344 7.734375 L 63.613281 7.714844 L 62.933594 7.679688 L 62.933594 3.421875 L 63.613281 3.351562 C 63.972656 3.316406 52.226562 3.296875 37.511719 3.296875 C 22.792969 3.296875 11.691406 3.332031 12.855469 3.351562 Z M 17.277344 5.542969 L 17.277344 7.679688 L 15.128906 7.679688 L 15.128906 3.40625 L 17.277344 3.40625 Z M 24.082031 5.542969 L 24.082031 7.679688 L 21.933594 7.679688 L 21.898438 5.578125 L 21.863281 3.492188 L 21.808594 5.578125 L 21.734375 7.679688 L 17.457031 7.679688 L 17.457031 3.40625 L 24.082031 3.40625 Z M 55.953125 5.542969 L 55.953125 7.679688 L 53.804688 7.679688 L 53.765625 5.578125 L 53.730469 3.492188 L 53.679688 5.578125 L 53.605469 7.679688 L 49.328125 7.679688 L 49.292969 5.578125 L 49.253906 3.492188 L 49.203125 5.578125 L 49.128906 7.679688 L 47 7.679688 L 47 3.40625 L 55.953125 3.40625 Z M 62.753906 5.542969 L 62.753906 7.679688 L 56.128906 7.679688 L 56.128906 3.40625 L 62.753906 3.40625 Z M 17.277344 8.925781 L 17.277344 9.996094 L 15.128906 9.996094 L 15.128906 7.859375 L 17.277344 7.859375 Z M 21.753906 8.925781 L 21.753906 9.996094 L 17.457031 9.996094 L 17.457031 7.859375 L 21.753906 7.859375 Z M 24.082031 8.925781 L 24.082031 9.996094 L 21.933594 9.996094 L 21.933594 7.859375 L 24.082031 7.859375 Z M 53.625 8.925781 L 53.625 9.996094 L 49.328125 9.996094 L 49.328125 7.859375 L 53.625 7.859375 Z M 55.953125 8.925781 L 55.953125 9.996094 L 53.804688 9.996094 L 53.804688 7.859375 L 55.953125 7.859375 Z M 62.753906 8.925781 L 62.753906 9.996094 L 56.128906 9.996094 L 56.128906 7.859375 L 62.753906 7.859375 Z M 17.277344 12.3125 L 17.277344 14.449219 L 15.128906 14.449219 L 15.128906 10.171875 L 17.277344 10.171875 Z M 21.753906 12.3125 L 21.753906 14.449219 L 17.457031 14.449219 L 17.457031 10.171875 L 21.753906 10.171875 Z M 24.082031 12.3125 L 24.082031 14.449219 L 21.933594 14.449219 L 21.933594 10.171875 L 24.082031 10.171875 Z M 17.277344 15.695312 L 17.277344 16.765625 L 15.128906 16.765625 L 15.128906 14.628906 L 17.277344 14.628906 Z M 17.277344 15.695312 " fill-opacity="1" fill-rule="nonzero"/></g><path fill="#000000" d="M 40.089844 5.097656 C 40.089844 5.96875 40.105469 6.363281 40.140625 5.953125 C 40.179688 5.542969 40.179688 4.8125 40.140625 4.347656 C 40.105469 3.886719 40.089844 4.207031 40.089844 5.097656 Z M 40.089844 5.097656 " fill-opacity="1" fill-rule="nonzero"/><g clip-path="url(#8c222ffa7b)"><path fill="#000000" d="M 10.527344 6.433594 C 10.527344 7.074219 10.5625 7.324219 10.597656 7.003906 C 10.636719 6.699219 10.636719 6.164062 10.597656 5.84375 C 10.5625 5.542969 10.527344 5.792969 10.527344 6.433594 Z M 10.527344 6.433594 " fill-opacity="1" fill-rule="nonzero"/></g><path fill="#000000" d="M 29.847656 6.078125 C 29.398438 6.363281 29.078125 6.824219 28.539062 7.964844 C 28.164062 8.785156 27.839844 9.640625 27.839844 9.871094 C 27.839844 10.53125 28.484375 11.367188 29.667969 12.257812 C 32.28125 14.253906 35.058594 16.695312 37.082031 18.757812 C 39.335938 21.074219 40.464844 22.535156 41.214844 24.191406 C 41.628906 25.066406 41.664062 25.316406 41.554688 26.453125 C 41.144531 30.855469 41.214844 31.53125 42.128906 31.871094 C 42.398438 31.960938 44.941406 32.386719 47.789062 32.832031 L 52.945312 33.617188 L 53.714844 33.136719 C 55.054688 32.296875 55.683594 31.496094 56.792969 29.199219 C 57.382812 27.988281 58.621094 25.636719 59.550781 23.980469 C 62.183594 19.257812 62.433594 18.5625 61.769531 17.832031 C 61.609375 17.65625 56.042969 14.949219 49.363281 11.8125 L 37.242188 6.09375 L 34.84375 5.917969 C 31.332031 5.632812 30.546875 5.667969 29.847656 6.078125 Z M 34.414062 6.984375 L 37.007812 7.179688 L 48.84375 12.773438 C 55.359375 15.855469 60.769531 18.386719 60.875 18.421875 C 61.074219 18.492188 60.644531 19.898438 60.339844 20.148438 C 60.175781 20.273438 57.617188 19.097656 51.726562 16.210938 C 38.621094 9.78125 36.078125 8.570312 35.289062 8.410156 C 34.878906 8.320312 33.554688 8.105469 32.316406 7.929688 C 31.082031 7.769531 30.042969 7.589844 30.007812 7.554688 C 29.972656 7.539062 30.078125 7.339844 30.257812 7.144531 C 30.632812 6.71875 30.886719 6.71875 34.414062 6.984375 Z M 32.855469 9.105469 L 35.449219 9.480469 L 40.679688 12.007812 C 43.542969 13.398438 45.90625 14.574219 45.90625 14.628906 C 45.925781 14.679688 45.550781 14.910156 45.082031 15.160156 C 44.027344 15.714844 43.578125 16.335938 43.472656 17.335938 C 43.402344 17.921875 43.472656 18.3125 43.742188 18.832031 C 44.296875 19.847656 47.015625 23.375 47.574219 23.78125 C 47.914062 24.015625 48.484375 24.15625 49.558594 24.246094 C 50.757812 24.335938 51.332031 24.496094 52.515625 25.046875 C 53.320312 25.421875 53.980469 25.796875 53.980469 25.867188 C 53.980469 25.9375 53.804688 26.222656 53.589844 26.472656 L 53.175781 26.9375 L 49.328125 26.722656 L 45.476562 26.492188 L 44.851562 24.90625 C 43.667969 21.894531 41.628906 18.6875 39.40625 16.371094 C 37.886719 14.769531 36.9375 14.449219 35.703125 15.074219 C 35.183594 15.355469 35.183594 15.339844 33.875 14.234375 C 33.175781 13.613281 32.066406 12.722656 31.421875 12.238281 C 29.847656 11.0625 28.914062 10.15625 28.914062 9.816406 C 28.914062 9.355469 29.453125 8.75 29.863281 8.75 C 30.078125 8.75 31.421875 8.910156 32.855469 9.105469 Z M 53.105469 18.117188 C 56.003906 19.542969 58.511719 20.84375 58.671875 20.988281 C 59.316406 21.554688 59.265625 22.199219 58.367188 23.800781 C 57.167969 25.992188 56.6875 26.132812 54.539062 24.871094 C 52.710938 23.820312 51.082031 23.230469 49.648438 23.125 C 49.003906 23.070312 48.34375 22.964844 48.179688 22.875 C 47.714844 22.605469 44.671875 18.402344 44.5625 17.867188 C 44.527344 17.601562 44.582031 17.191406 44.707031 16.941406 C 45.011719 16.371094 46.550781 15.535156 47.285156 15.519531 C 47.660156 15.519531 49.667969 16.410156 53.105469 18.117188 Z M 37.957031 16.425781 C 38.90625 17.261719 40.804688 19.6875 41.84375 21.378906 C 42.757812 22.875 44.402344 26.367188 44.261719 26.492188 C 44.222656 26.542969 43.847656 26.527344 43.4375 26.453125 C 42.71875 26.347656 42.703125 26.3125 42.703125 25.652344 C 42.703125 23.871094 41.089844 21.234375 38.101562 18.171875 C 36.992188 17.03125 36.132812 16.050781 36.203125 16 C 36.488281 15.695312 37.367188 15.910156 37.957031 16.425781 Z M 56.113281 26.738281 C 56.417969 26.738281 56.667969 26.777344 56.667969 26.8125 C 56.667969 26.828125 56.21875 27.808594 55.683594 28.949219 C 54.824219 30.730469 54.554688 31.121094 53.785156 31.726562 C 53.285156 32.121094 52.800781 32.441406 52.691406 32.441406 C 52.460938 32.441406 43.527344 31.050781 42.808594 30.910156 L 42.289062 30.800781 L 42.378906 29.199219 C 42.433594 28.324219 42.503906 27.59375 42.542969 27.558594 C 42.683594 27.46875 50.1875 27.808594 51.527344 27.988281 C 53.25 28.199219 53.980469 27.96875 54.539062 27.023438 C 54.839844 26.492188 54.96875 26.417969 55.234375 26.5625 C 55.414062 26.667969 55.808594 26.738281 56.113281 26.738281 Z M 56.113281 26.738281 " fill-opacity="1" fill-rule="nonzero"/><path fill="#000000" d="M 30.492188 10.03125 C 30.078125 10.136719 30.078125 10.136719 30.472656 10.15625 C 30.722656 10.171875 30.886719 10.316406 30.9375 10.566406 L 31.011719 10.976562 L 31.046875 10.582031 C 31.0625 10.226562 31.171875 10.191406 32.101562 10.136719 L 33.125 10.085938 L 32.011719 9.996094 C 31.386719 9.941406 30.707031 9.960938 30.492188 10.03125 Z M 30.492188 10.03125 " fill-opacity="1" fill-rule="nonzero"/><path fill="#000000" d="M 33.265625 11.421875 C 33.265625 12.0625 33.300781 12.3125 33.339844 11.992188 C 33.375 11.6875 33.375 11.152344 33.339844 10.832031 C 33.300781 10.53125 33.265625 10.78125 33.265625 11.421875 Z M 33.265625 11.421875 " fill-opacity="1" fill-rule="nonzero"/><path fill="#000000" d="M 37.742188 12.757812 C 37.742188 13.433594 37.777344 13.699219 37.8125 13.328125 C 37.851562 12.96875 37.851562 12.398438 37.8125 12.078125 C 37.777344 11.777344 37.742188 12.0625 37.742188 12.757812 Z M 37.742188 12.757812 " fill-opacity="1" fill-rule="nonzero"/><path fill="#000000" d="M 40.050781 13.503906 L 40.015625 14.429688 L 39.265625 14.503906 L 38.496094 14.574219 L 39.246094 14.589844 C 39.980469 14.628906 40 14.644531 40.070312 15.285156 L 40.140625 15.964844 L 40.160156 15.304688 L 40.195312 14.644531 L 42.039062 14.574219 L 43.867188 14.519531 L 42.039062 14.484375 L 40.214844 14.449219 L 40.140625 13.503906 L 40.089844 12.578125 Z M 40.050781 13.503906 " fill-opacity="1" fill-rule="nonzero"/><path fill="#000000" d="M 46.820312 16.53125 C 46.820312 16.640625 46.605469 16.78125 46.335938 16.816406 L 45.835938 16.890625 L 46.320312 16.925781 C 46.800781 16.941406 46.800781 16.941406 46.875 18.492188 L 46.929688 20.058594 L 46.964844 18.492188 L 47 16.941406 L 47.859375 16.90625 L 48.699219 16.890625 L 47.894531 16.816406 C 47.464844 16.765625 47.035156 16.640625 46.964844 16.53125 C 46.855469 16.371094 46.820312 16.371094 46.820312 16.53125 Z M 46.820312 16.53125 " fill-opacity="1" fill-rule="nonzero"/><path fill="#000000" d="M 49.148438 19.242188 L 49.148438 21.199219 L 48.484375 21.269531 L 47.804688 21.34375 L 48.46875 21.359375 C 49.039062 21.394531 49.128906 21.46875 49.203125 21.878906 C 49.238281 22.160156 49.292969 21.234375 49.308594 19.828125 C 49.308594 18.4375 49.292969 17.300781 49.238281 17.300781 C 49.183594 17.300781 49.148438 18.171875 49.148438 19.242188 Z M 49.148438 19.242188 " fill-opacity="1" fill-rule="nonzero"/><path fill="#000000" d="M 53.625 20.328125 L 53.625 21.199219 L 52.425781 21.269531 L 51.207031 21.324219 L 53.605469 21.394531 L 53.679688 22.410156 C 53.714844 22.980469 53.75 22.535156 53.765625 21.433594 C 53.785156 20.34375 53.765625 19.4375 53.714844 19.4375 C 53.660156 19.4375 53.625 19.828125 53.625 20.328125 Z M 53.625 20.328125 " fill-opacity="1" fill-rule="nonzero"/><path fill="#000000" d="M 55.988281 20.808594 C 55.953125 21.148438 55.828125 21.199219 54.929688 21.269531 L 53.894531 21.324219 L 54.929688 21.359375 L 55.953125 21.394531 L 55.953125 23.515625 L 55.019531 23.585938 L 54.070312 23.640625 L 55.003906 23.675781 C 55.898438 23.710938 55.933594 23.730469 56.003906 24.28125 L 56.078125 24.871094 L 56.09375 24.300781 C 56.128906 23.765625 56.183594 23.730469 56.902344 23.660156 L 57.652344 23.585938 L 56.902344 23.570312 L 56.148438 23.535156 L 56.078125 21.964844 C 56.058594 21.109375 56.003906 20.59375 55.988281 20.808594 Z M 55.988281 20.808594 " fill-opacity="1" fill-rule="nonzero"/><path fill="#000000" d="M 46.855469 29.359375 L 46.820312 30.285156 L 45.980469 30.355469 C 45.496094 30.390625 46.015625 30.425781 47.125 30.445312 C 48.519531 30.464844 49.148438 30.550781 49.203125 30.695312 C 49.273438 30.871094 49.308594 30.871094 49.308594 30.695312 C 49.328125 30.535156 49.898438 30.480469 51.566406 30.480469 L 53.804688 30.480469 L 53.765625 29.535156 L 53.730469 28.609375 L 53.679688 29.449219 L 53.605469 30.300781 L 49.34375 30.300781 L 49.273438 29.449219 L 49.21875 28.609375 L 49.183594 29.449219 L 49.148438 30.300781 L 47.015625 30.300781 L 46.945312 29.359375 L 46.890625 28.433594 Z M 46.855469 29.359375 " fill-opacity="1" fill-rule="nonzero"/><path fill="#000000" d="M 26.480469 12.3125 C 26.480469 13.433594 26.5 13.898438 26.535156 13.328125 C 26.570312 12.773438 26.570312 11.847656 26.535156 11.277344 C 26.5 10.726562 26.480469 11.1875 26.480469 12.3125 Z M 26.480469 12.3125 " fill-opacity="1" fill-rule="nonzero"/><path fill="#000000" d="M 20.660156 16.265625 C 19.371094 17.121094 19.085938 17.511719 17.707031 20.328125 C 17.097656 21.554688 15.898438 23.835938 15.023438 25.402344 C 12.855469 29.234375 12.390625 30.320312 12.605469 30.910156 C 12.710938 31.15625 12.960938 31.476562 13.195312 31.621094 C 13.429688 31.761719 18.960938 34.417969 25.515625 37.5 L 37.421875 43.09375 L 39.820312 43.289062 C 44.777344 43.679688 45.03125 43.609375 46.121094 41.238281 C 46.5 40.421875 46.820312 39.546875 46.820312 39.316406 C 46.820312 38.605469 46.070312 37.765625 43.902344 36.09375 C 38.925781 32.207031 34.96875 28.148438 33.679688 25.5625 C 32.996094 24.226562 32.890625 23.460938 33.140625 22.019531 C 33.425781 20.433594 33.445312 18.511719 33.195312 17.941406 C 33.070312 17.707031 32.78125 17.421875 32.515625 17.335938 C 32.265625 17.246094 29.722656 16.800781 26.875 16.371094 L 21.699219 15.570312 Z M 26.855469 17.496094 C 29.523438 17.886719 31.816406 18.277344 31.960938 18.367188 C 32.175781 18.476562 32.226562 18.832031 32.191406 20.058594 C 32.191406 20.898438 32.136719 21.628906 32.101562 21.644531 C 31.996094 21.753906 24.527344 21.394531 23.097656 21.234375 C 21.394531 21.039062 20.75 21.234375 20.105469 22.160156 C 19.785156 22.644531 19.605469 22.75 19.425781 22.625 C 19.28125 22.535156 18.890625 22.464844 18.585938 22.464844 C 18.261719 22.464844 17.992188 22.429688 17.992188 22.394531 C 17.992188 22.375 18.441406 21.394531 18.980469 20.257812 C 19.839844 18.476562 20.105469 18.082031 20.875 17.476562 C 21.378906 17.085938 21.84375 16.765625 21.898438 16.765625 C 21.96875 16.765625 24.207031 17.085938 26.855469 17.496094 Z M 26.785156 22.570312 L 29.238281 22.695312 L 29.453125 23.425781 C 30.1875 25.847656 32.550781 29.820312 34.789062 32.367188 C 36.507812 34.328125 37.636719 34.808594 38.960938 34.132812 C 39.480469 33.847656 39.480469 33.867188 40.785156 34.96875 C 41.484375 35.59375 42.757812 36.625 43.597656 37.25 C 45.855469 38.941406 46.070312 39.296875 45.40625 40.117188 L 45.066406 40.546875 L 42.128906 40.136719 L 39.210938 39.726562 L 33.984375 37.195312 C 31.117188 35.808594 28.753906 34.613281 28.753906 34.558594 C 28.738281 34.507812 29.058594 34.3125 29.472656 34.132812 C 30.597656 33.617188 31.152344 32.777344 31.152344 31.566406 C 31.152344 30.585938 31.117188 30.5 29.648438 28.519531 C 28.003906 26.277344 27.375 25.546875 26.890625 25.28125 C 26.714844 25.191406 25.890625 25.046875 25.085938 24.957031 C 23.957031 24.851562 23.222656 24.636719 22.128906 24.140625 C 21.34375 23.78125 20.679688 23.425781 20.679688 23.355469 C 20.679688 23.285156 20.859375 23 21.074219 22.730469 C 21.449219 22.25 21.484375 22.234375 22.898438 22.339844 C 23.707031 22.410156 25.441406 22.519531 26.785156 22.570312 Z M 31.53125 22.820312 C 31.835938 22.820312 31.90625 22.945312 31.921875 23.515625 C 31.996094 25.402344 33.589844 27.988281 36.5625 31.03125 C 37.671875 32.171875 38.53125 33.152344 38.457031 33.207031 C 38.40625 33.277344 38.101562 33.332031 37.796875 33.332031 C 37.332031 33.332031 37.007812 33.097656 35.933594 31.976562 C 34.519531 30.5 32.820312 28.074219 31.871094 26.207031 C 31.332031 25.136719 30.347656 22.875 30.347656 22.679688 C 30.347656 22.644531 30.527344 22.644531 30.761719 22.714844 C 30.976562 22.769531 31.316406 22.820312 31.53125 22.820312 Z M 20.125 24.335938 C 21.878906 25.351562 23.632812 26.007812 24.726562 26.046875 C 26.410156 26.097656 26.570312 26.207031 28.359375 28.628906 C 30.132812 31.03125 30.382812 31.640625 29.917969 32.351562 C 29.542969 32.902344 28.039062 33.6875 27.304688 33.6875 C 26.765625 33.6875 16.632812 28.789062 15.988281 28.21875 C 15.34375 27.648438 15.398438 27.007812 16.292969 25.402344 C 16.742188 24.585938 17.242188 23.820312 17.421875 23.730469 C 18.03125 23.375 18.78125 23.535156 20.125 24.335938 Z M 24.386719 33.703125 C 39.730469 41.238281 38.53125 40.722656 41.859375 41.1875 C 43.402344 41.398438 44.671875 41.632812 44.671875 41.703125 C 44.671875 41.773438 44.511719 41.96875 44.3125 42.148438 C 43.972656 42.46875 43.777344 42.46875 40.824219 42.253906 L 37.6875 42.042969 L 25.835938 36.429688 C 19.300781 33.367188 13.894531 30.820312 13.785156 30.785156 C 13.519531 30.695312 14.214844 28.878906 14.503906 28.878906 C 14.539062 28.878906 18.980469 31.050781 24.386719 33.703125 Z M 24.386719 33.703125 " fill-opacity="1" fill-rule="nonzero"/><path fill="#000000" d="M 21.808594 19.082031 C 21.808594 19.8125 21.84375 20.113281 21.878906 19.738281 C 21.914062 19.382812 21.914062 18.777344 21.878906 18.402344 C 21.84375 18.046875 21.808594 18.351562 21.808594 19.082031 Z M 21.808594 19.082031 " fill-opacity="1" fill-rule="nonzero"/><path fill="#000000" d="M 24.136719 19.167969 C 24.136719 19.953125 24.171875 20.257812 24.207031 19.828125 C 24.242188 19.417969 24.242188 18.777344 24.207031 18.402344 C 24.171875 18.046875 24.136719 18.386719 24.136719 19.167969 Z M 24.136719 19.167969 " fill-opacity="1" fill-rule="nonzero"/><path fill="#000000" d="M 26.460938 19.4375 C 26.460938 20.078125 26.5 20.328125 26.535156 20.007812 C 26.570312 19.703125 26.570312 19.167969 26.535156 18.847656 C 26.5 18.546875 26.460938 18.796875 26.460938 19.4375 Z M 26.460938 19.4375 " fill-opacity="1" fill-rule="nonzero"/><path fill="#000000" d="M 24.941406 23.660156 C 25.246094 23.695312 25.78125 23.695312 26.105469 23.660156 C 26.410156 23.621094 26.160156 23.585938 25.515625 23.585938 C 24.871094 23.585938 24.617188 23.621094 24.941406 23.660156 Z M 24.941406 23.660156 " fill-opacity="1" fill-rule="nonzero"/><path fill="#000000" d="M 33.230469 32.207031 C 33.210938 32.53125 33.085938 32.601562 32.460938 32.671875 L 31.691406 32.742188 L 32.441406 32.761719 L 33.195312 32.796875 L 33.265625 34.433594 L 33.320312 36.09375 L 33.355469 34.453125 C 33.390625 33.0625 33.445312 32.8125 33.714844 32.742188 C 33.984375 32.671875 33.984375 32.652344 33.714844 32.636719 C 33.554688 32.636719 33.375 32.441406 33.339844 32.207031 L 33.265625 31.816406 Z M 33.230469 32.207031 " fill-opacity="1" fill-rule="nonzero"/><path fill="#000000" d="M 37.726562 36.128906 L 37.6875 37.054688 L 36.757812 37.125 L 35.808594 37.179688 L 36.738281 37.214844 C 37.597656 37.25 37.671875 37.285156 37.742188 37.730469 L 37.8125 38.230469 L 37.851562 37.730469 C 37.867188 37.269531 37.902344 37.25 38.925781 37.25 L 40 37.25 L 40.070312 38.175781 L 40.125 39.121094 L 40.195312 37.269531 L 41.144531 37.195312 L 42.074219 37.144531 L 41.144531 37.105469 L 40.214844 37.070312 L 40.140625 36.214844 L 40.089844 35.378906 L 40.050781 36.214844 L 40.015625 37.070312 L 37.886719 37.070312 L 37.8125 36.128906 L 37.761719 35.203125 Z M 37.726562 36.128906 " fill-opacity="1" fill-rule="nonzero"/><path fill="#000000" d="M 17.277344 25.492188 C 17.222656 25.742188 17.242188 26.453125 17.296875 27.097656 L 17.402344 28.253906 L 17.421875 27.148438 L 17.457031 26.046875 L 19.480469 25.972656 L 21.484375 25.921875 L 19.480469 25.886719 C 17.5625 25.847656 17.476562 25.832031 17.421875 25.441406 C 17.367188 25.066406 17.347656 25.066406 17.277344 25.492188 Z M 17.277344 25.492188 " fill-opacity="1" fill-rule="nonzero"/><path fill="#000000" d="M 21.824219 28.253906 C 21.824219 29.324219 21.84375 29.75 21.878906 29.179688 C 21.914062 28.609375 21.914062 27.738281 21.878906 27.222656 C 21.84375 26.703125 21.824219 27.167969 21.824219 28.253906 Z M 21.824219 28.253906 " fill-opacity="1" fill-rule="nonzero"/><path fill="#000000" d="M 24.117188 28.46875 L 24.082031 30.285156 L 23.152344 30.355469 L 22.203125 30.410156 L 23.132812 30.445312 C 24.027344 30.480469 24.0625 30.5 24.136719 31.050781 L 24.207031 31.640625 L 24.226562 31.050781 L 24.261719 30.480469 L 26.390625 30.480469 L 26.460938 31.496094 L 26.515625 32.53125 L 26.550781 31.515625 L 26.589844 30.5 L 27.714844 30.425781 C 28.324219 30.390625 27.804688 30.355469 26.550781 30.339844 L 24.277344 30.300781 L 24.207031 28.46875 L 24.152344 26.652344 Z M 24.117188 28.46875 " fill-opacity="1" fill-rule="nonzero"/><path fill="#000000" d="M 26.460938 29.054688 C 26.460938 29.695312 26.5 29.945312 26.535156 29.625 C 26.570312 29.324219 26.570312 28.789062 26.535156 28.46875 C 26.5 28.164062 26.460938 28.414062 26.460938 29.054688 Z M 26.460938 29.054688 " fill-opacity="1" fill-rule="nonzero"/><g clip-path="url(#223b34d15a)"><path fill="#000000" d="M 10.527344 18.191406 C 10.527344 18.832031 10.5625 19.082031 10.597656 18.757812 C 10.636719 18.457031 10.636719 17.921875 10.597656 17.601562 C 10.5625 17.300781 10.527344 17.546875 10.527344 18.191406 Z M 10.527344 18.191406 " fill-opacity="1" fill-rule="nonzero"/></g><g clip-path="url(#c1c3236c6f)"><path fill="#000000" d="M 62.792969 21.519531 L 62.753906 23.515625 L 61.824219 23.585938 L 60.875 23.640625 L 61.824219 23.675781 L 62.753906 23.710938 L 62.753906 25.832031 L 61.019531 25.902344 L 59.265625 25.957031 L 61.019531 25.992188 L 62.753906 26.027344 L 62.753906 30.300781 L 59.855469 30.355469 L 56.9375 30.410156 L 59.855469 30.445312 L 62.753906 30.480469 L 62.753906 32.617188 L 59.441406 32.617188 C 57.277344 32.617188 56.128906 32.546875 56.128906 32.441406 C 56.128906 32.332031 56.023438 32.351562 55.878906 32.476562 C 55.738281 32.601562 55.699219 32.726562 55.789062 32.761719 C 55.878906 32.796875 55.953125 33.777344 55.953125 34.953125 L 55.953125 37.070312 L 53.820312 37.070312 L 53.75 35.523438 L 53.695312 33.953125 L 53.660156 35.503906 L 53.625 37.070312 L 49.34375 37.070312 L 49.273438 35.433594 L 49.21875 33.777344 L 49.183594 35.414062 L 49.148438 37.070312 L 47 37.070312 L 46.964844 35.238281 L 46.929688 33.421875 L 46.839844 35.289062 C 46.730469 37.054688 46.785156 37.960938 46.964844 37.464844 C 47 37.320312 47.429688 37.25 48.089844 37.25 L 49.148438 37.25 L 49.148438 39.371094 L 48.394531 39.441406 L 47.625 39.511719 L 48.394531 39.53125 L 49.148438 39.566406 L 49.148438 43.824219 L 48.128906 43.894531 L 47.089844 43.949219 L 49.128906 44.019531 L 49.203125 45.035156 L 49.253906 46.066406 L 49.292969 45.035156 L 49.328125 44.019531 L 53.605469 44.019531 L 53.679688 45.035156 C 53.714844 45.605469 53.75 44.605469 53.765625 42.808594 L 53.804688 39.566406 L 55.953125 39.566406 L 56.003906 42.808594 L 56.042969 46.066406 L 56.09375 42.808594 L 56.128906 39.566406 L 62.753906 39.566406 L 62.753906 43.839844 L 59.496094 43.839844 C 57.707031 43.839844 56.292969 43.875 56.34375 43.929688 C 56.398438 43.984375 57.332031 44.035156 58.421875 44.035156 L 60.410156 44.035156 L 60.480469 44.519531 L 60.554688 45 L 60.589844 44.5 C 60.605469 44.035156 60.644531 44.019531 61.679688 44.019531 L 62.738281 44.019531 L 62.808594 45.035156 C 62.84375 45.605469 62.878906 44.605469 62.898438 42.824219 L 62.933594 39.582031 L 63.613281 39.511719 L 64.277344 39.441406 L 63.613281 39.421875 L 62.933594 39.386719 L 62.933594 37.269531 L 63.613281 37.195312 L 64.277344 37.125 L 63.613281 37.105469 L 62.933594 37.070312 L 62.933594 32.8125 L 63.613281 32.742188 L 64.277344 32.671875 L 63.613281 32.652344 L 62.933594 32.617188 L 62.933594 30.5 L 63.613281 30.425781 L 64.277344 30.355469 L 63.613281 30.339844 L 62.933594 30.300781 L 62.933594 26.046875 L 63.613281 25.972656 L 64.277344 25.902344 L 63.613281 25.886719 L 62.933594 25.847656 L 62.933594 23.730469 L 63.613281 23.660156 L 64.277344 23.585938 L 63.613281 23.570312 L 62.953125 23.535156 L 62.878906 21.519531 L 62.828125 19.527344 Z M 62.753906 34.933594 L 62.753906 37.070312 L 56.128906 37.070312 L 56.128906 32.796875 L 62.753906 32.796875 Z M 53.625 38.320312 L 53.625 39.386719 L 49.328125 39.386719 L 49.328125 37.25 L 53.625 37.25 Z M 55.953125 38.320312 L 55.953125 39.386719 L 53.804688 39.386719 L 53.804688 37.25 L 55.953125 37.25 Z M 62.753906 38.320312 L 62.753906 39.386719 L 56.128906 39.386719 L 56.128906 37.25 L 62.753906 37.25 Z M 53.625 41.703125 L 53.625 43.839844 L 49.328125 43.839844 L 49.328125 39.566406 L 53.625 39.566406 Z M 53.625 41.703125 " fill-opacity="1" fill-rule="nonzero"/></g><path fill="#000000" d="M 37.726562 22.054688 L 37.6875 23.515625 L 35.773438 23.585938 L 33.839844 23.640625 L 35.773438 23.675781 L 37.6875 23.710938 L 37.6875 25.832031 L 36.222656 25.902344 L 34.734375 25.957031 L 37.671875 26.027344 L 37.742188 27.84375 L 37.796875 29.679688 L 37.832031 27.84375 L 37.867188 26.027344 L 40.015625 26.027344 L 40.015625 30.285156 L 39.265625 30.355469 L 38.496094 30.425781 L 39.246094 30.445312 C 40 30.480469 40 30.480469 40.070312 31.230469 C 40.105469 31.65625 40.140625 30.660156 40.160156 29.019531 C 40.195312 26.367188 40.230469 26.046875 40.519531 25.972656 C 40.785156 25.902344 40.785156 25.886719 40.519531 25.867188 C 40.285156 25.847656 40.195312 25.636719 40.140625 24.816406 L 40.089844 23.800781 L 40.050781 24.816406 L 40.015625 25.847656 L 37.867188 25.847656 L 37.867188 23.730469 L 38.90625 23.660156 L 39.925781 23.605469 L 37.886719 23.535156 L 37.8125 22.054688 L 37.761719 20.59375 Z M 37.726562 22.054688 " fill-opacity="1" fill-rule="nonzero"/><g clip-path="url(#095712b530)"><path fill="#000000" d="M 10.527344 22.199219 C 10.527344 22.785156 10.5625 23 10.597656 22.679688 C 10.636719 22.359375 10.636719 21.878906 10.597656 21.609375 C 10.5625 21.34375 10.527344 21.609375 10.527344 22.199219 Z M 10.527344 22.199219 " fill-opacity="1" fill-rule="nonzero"/></g><path fill="#000000" d="M 13.125 21.34375 C 13.429688 21.378906 13.964844 21.378906 14.289062 21.34375 C 14.59375 21.308594 14.339844 21.269531 13.695312 21.269531 C 13.050781 21.269531 12.800781 21.308594 13.125 21.34375 Z M 13.125 21.34375 " fill-opacity="1" fill-rule="nonzero"/><path fill="#000000" d="M 35.058594 21.34375 C 35.523438 21.378906 36.273438 21.378906 36.757812 21.34375 C 37.222656 21.308594 36.828125 21.289062 35.898438 21.289062 C 34.96875 21.289062 34.574219 21.308594 35.058594 21.34375 Z M 35.058594 21.34375 " fill-opacity="1" fill-rule="nonzero"/><path fill="#000000" d="M 11.761719 23.660156 C 12.335938 23.695312 13.265625 23.695312 13.820312 23.660156 C 14.394531 23.621094 13.929688 23.605469 12.800781 23.605469 C 11.671875 23.605469 11.207031 23.621094 11.761719 23.660156 Z M 11.761719 23.660156 " fill-opacity="1" fill-rule="nonzero"/><path fill="#000000" d="M 11.496094 25.972656 C 11.925781 26.007812 12.605469 26.007812 13.015625 25.972656 C 13.445312 25.9375 13.105469 25.902344 12.265625 25.902344 C 11.421875 25.902344 11.082031 25.9375 11.496094 25.972656 Z M 11.496094 25.972656 " fill-opacity="1" fill-rule="nonzero"/><g clip-path="url(#9eb6d727f8)"><path fill="#000000" d="M 10.527344 29.054688 C 10.527344 29.695312 10.5625 29.945312 10.597656 29.625 C 10.636719 29.324219 10.636719 28.789062 10.597656 28.46875 C 10.5625 28.164062 10.527344 28.414062 10.527344 29.054688 Z M 10.527344 29.054688 " fill-opacity="1" fill-rule="nonzero"/></g><path fill="#000000" d="M 11.421875 32.742188 C 11.78125 32.777344 12.390625 32.777344 12.765625 32.742188 C 13.125 32.707031 12.820312 32.671875 12.085938 32.671875 C 11.351562 32.671875 11.046875 32.707031 11.421875 32.742188 Z M 11.421875 32.742188 " fill-opacity="1" fill-rule="nonzero"/><g clip-path="url(#6fec660e81)"><path fill="#000000" d="M 14.984375 35.238281 L 14.949219 37.054688 L 12.855469 37.125 L 10.742188 37.179688 L 12.855469 37.214844 L 14.949219 37.25 L 14.949219 39.371094 L 12.855469 39.441406 L 10.742188 39.496094 L 12.855469 39.53125 L 14.949219 39.566406 L 14.949219 43.824219 L 12.945312 43.894531 L 10.921875 43.949219 L 12.925781 43.984375 L 14.933594 44.019531 L 15.003906 45.035156 L 15.058594 46.066406 L 15.09375 45.035156 L 15.128906 44.019531 L 17.261719 44.019531 L 17.332031 45.035156 C 17.367188 45.605469 17.402344 44.605469 17.421875 42.808594 L 17.457031 39.566406 L 21.753906 39.566406 L 21.753906 43.824219 L 19.660156 43.894531 L 17.546875 43.949219 L 21.734375 44.019531 L 21.808594 45.035156 L 21.863281 46.066406 L 21.898438 45.035156 L 21.933594 44.019531 L 24.0625 44.019531 L 24.136719 45.035156 C 24.171875 45.605469 24.207031 44.605469 24.226562 42.824219 L 24.261719 39.582031 L 26.105469 39.511719 L 27.929688 39.457031 L 26.105469 39.421875 L 24.277344 39.386719 L 24.207031 38.53125 L 24.152344 37.695312 L 24.117188 38.53125 L 24.082031 39.386719 L 21.933594 39.386719 L 21.933594 38.335938 C 21.933594 37.320312 21.949219 37.269531 22.433594 37.195312 C 22.703125 37.160156 21.699219 37.105469 20.195312 37.089844 L 17.476562 37.070312 L 17.402344 35.859375 L 17.347656 34.667969 L 17.3125 35.859375 L 17.277344 37.070312 L 15.148438 37.070312 L 15.074219 35.238281 L 15.023438 33.421875 Z M 17.277344 38.320312 L 17.277344 39.386719 L 15.128906 39.386719 L 15.128906 37.25 L 17.277344 37.25 Z M 21.753906 38.320312 L 21.753906 39.386719 L 17.457031 39.386719 L 17.457031 37.25 L 21.753906 37.25 Z M 17.277344 41.703125 L 17.277344 43.839844 L 15.128906 43.839844 L 15.128906 39.566406 L 17.277344 39.566406 Z M 24.082031 41.703125 L 24.082031 43.839844 L 21.933594 43.839844 L 21.933594 39.566406 L 24.082031 39.566406 Z M 24.082031 41.703125 " fill-opacity="1" fill-rule="nonzero"/></g><g clip-path="url(#0618516171)"><path fill="#000000" d="M 10.546875 41.703125 C 10.546875 42.824219 10.5625 43.289062 10.597656 42.71875 C 10.636719 42.167969 10.636719 41.238281 10.597656 40.671875 C 10.5625 40.117188 10.546875 40.582031 10.546875 41.703125 Z M 10.546875 41.703125 " fill-opacity="1" fill-rule="nonzero"/></g><path fill="#000000" d="M 26.480469 41.703125 C 26.480469 42.824219 26.5 43.289062 26.535156 42.71875 C 26.570312 42.167969 26.570312 41.238281 26.535156 40.671875 C 26.5 40.117188 26.480469 40.582031 26.480469 41.703125 Z M 26.480469 41.703125 " fill-opacity="1" fill-rule="nonzero"/><g clip-path="url(#dd09837f41)"><path fill="#000000" d="M 30.886719 42.414062 L 30.886719 43.839844 L 27.625 43.875 C 25.816406 43.894531 24.816406 43.929688 25.371094 43.964844 L 26.390625 44.035156 L 26.460938 44.875 L 26.515625 45.710938 L 26.550781 44.855469 L 26.589844 44.019531 L 30.867188 44.019531 L 30.9375 45.035156 C 30.976562 45.605469 31.011719 44.925781 31.027344 43.519531 C 31.046875 42.128906 31.027344 40.992188 30.976562 40.992188 C 30.921875 40.992188 30.886719 41.632812 30.886719 42.414062 Z M 30.886719 42.414062 " fill-opacity="1" fill-rule="nonzero"/></g><g clip-path="url(#5a2ac7d02c)"><path fill="#000000" d="M 46.890625 43.75 C 46.890625 45.035156 46.910156 45.515625 46.945312 44.855469 C 46.980469 44.195312 46.980469 43.144531 46.945312 42.539062 C 46.910156 41.933594 46.890625 42.46875 46.890625 43.75 Z M 46.890625 43.75 " fill-opacity="1" fill-rule="nonzero"/></g><g clip-path="url(#e74db2c5a5)"><path fill="#000000" d="M 33.285156 44.109375 C 33.285156 45.195312 33.300781 45.605469 33.339844 45.035156 C 33.375 44.464844 33.375 43.589844 33.339844 43.074219 C 33.300781 42.558594 33.285156 43.019531 33.285156 44.109375 Z M 33.285156 44.109375 " fill-opacity="1" fill-rule="nonzero"/></g><path fill="#000000" d="M 34.429688 43.964844 C 34.949219 44 35.753906 44 36.222656 43.964844 C 36.6875 43.929688 36.257812 43.910156 35.273438 43.910156 C 34.289062 43.910156 33.910156 43.929688 34.429688 43.964844 Z M 34.429688 43.964844 " fill-opacity="1" fill-rule="nonzero"/><g clip-path="url(#9ef56875ef)"><path fill="#000000" d="M 37.742188 44.910156 C 37.742188 45.550781 37.777344 45.800781 37.8125 45.480469 C 37.851562 45.175781 37.851562 44.640625 37.8125 44.320312 C 37.777344 44.019531 37.742188 44.269531 37.742188 44.910156 Z M 37.742188 44.910156 " fill-opacity="1" fill-rule="nonzero"/></g></svg>