<svg xmlns="http://www.w3.org/2000/svg" xmlns:xlink="http://www.w3.org/1999/xlink" width="80" zoomAndPan="magnify" viewBox="0 0 60 60" height="80" preserveAspectRatio="xMidYMid meet" version="1.0"><defs><g/></defs><rect x="-6" width="72" fill="#ffffff" y="-6" height="72" fill-opacity="1"/><rect x="-6" width="72" fill="#ffffff" y="-6" height="72" fill-opacity="1"/><g fill="#000000" fill-opacity="1"><g transform="translate(6, 35.379774)"><g><path d="M 2.0625 0 L 2.0625 -13.390625 L 3.5 -13.390625 L 3.5 -1.234375 L 7.28125 -1.234375 L 7.28125 0 Z M 2.0625 0 "/></g></g></g><g fill="#000000" fill-opacity="1"><g transform="translate(13.687924, 35.379774)"><g><path d="M 8.453125 0 L 7.828125 0 L 7.296875 -1.3125 C 7.003906 -0.820312 6.625 -0.425781 6.15625 -0.125 C 5.695312 0.164062 5.179688 0.3125 4.609375 0.3125 C 2.640625 0.3125 1.65625 -0.648438 1.65625 -2.578125 L 1.65625 -4.640625 C 1.65625 -6.554688 2.640625 -7.515625 4.609375 -7.515625 L 7 -7.515625 L 7 -10.90625 C 7 -11.394531 6.84375 -11.773438 6.53125 -12.046875 C 6.21875 -12.328125 5.75 -12.46875 5.125 -12.46875 C 3.90625 -12.46875 3.296875 -11.945312 3.296875 -10.90625 L 3.296875 -9.6875 L 1.859375 -9.6875 L 1.859375 -10.8125 C 1.859375 -11.738281 2.128906 -12.453125 2.671875 -12.953125 C 3.210938 -13.453125 4.03125 -13.703125 5.125 -13.703125 C 6.226562 -13.703125 7.054688 -13.453125 7.609375 -12.953125 C 8.171875 -12.453125 8.453125 -11.738281 8.453125 -10.8125 Z M 7 -6.28125 L 4.609375 -6.28125 C 4.035156 -6.28125 3.640625 -6.132812 3.421875 -5.84375 C 3.203125 -5.5625 3.09375 -5.160156 3.09375 -4.640625 L 3.09375 -2.578125 C 3.09375 -2.054688 3.203125 -1.648438 3.421875 -1.359375 C 3.640625 -1.066406 4.035156 -0.921875 4.609375 -0.921875 C 5.191406 -0.921875 5.726562 -1.144531 6.21875 -1.59375 C 6.71875 -2.039062 6.976562 -2.484375 7 -2.921875 Z M 7 -6.28125 "/></g></g></g><g fill="#000000" fill-opacity="1"><g transform="translate(23.99344, 35.379774)"><g><path d="M 8.453125 0 L 7.828125 0 L 7.296875 -1.3125 C 7.003906 -0.820312 6.625 -0.425781 6.15625 -0.125 C 5.695312 0.164062 5.179688 0.3125 4.609375 0.3125 C 2.640625 0.3125 1.65625 -0.648438 1.65625 -2.578125 L 1.65625 -4.640625 C 1.65625 -6.554688 2.640625 -7.515625 4.609375 -7.515625 L 7 -7.515625 L 7 -10.90625 C 7 -11.394531 6.84375 -11.773438 6.53125 -12.046875 C 6.21875 -12.328125 5.75 -12.46875 5.125 -12.46875 C 3.90625 -12.46875 3.296875 -11.945312 3.296875 -10.90625 L 3.296875 -9.6875 L 1.859375 -9.6875 L 1.859375 -10.8125 C 1.859375 -11.738281 2.128906 -12.453125 2.671875 -12.953125 C 3.210938 -13.453125 4.03125 -13.703125 5.125 -13.703125 C 6.226562 -13.703125 7.054688 -13.453125 7.609375 -12.953125 C 8.171875 -12.453125 8.453125 -11.738281 8.453125 -10.8125 Z M 7 -6.28125 L 4.609375 -6.28125 C 4.035156 -6.28125 3.640625 -6.132812 3.421875 -5.84375 C 3.203125 -5.5625 3.09375 -5.160156 3.09375 -4.640625 L 3.09375 -2.578125 C 3.09375 -2.054688 3.203125 -1.648438 3.421875 -1.359375 C 3.640625 -1.066406 4.035156 -0.921875 4.609375 -0.921875 C 5.191406 -0.921875 5.726562 -1.144531 6.21875 -1.59375 C 6.71875 -2.039062 6.976562 -2.484375 7 -2.921875 Z M 7 -6.28125 "/></g></g></g><g fill="#000000" fill-opacity="1"><g transform="translate(34.298955, 35.379774)"><g><path d="M 3.53125 0 L 2.078125 0 L 2.078125 -13.390625 L 3.53125 -13.390625 L 3.53125 -7.703125 L 7.109375 -13.390625 L 8.71875 -13.390625 L 5.0625 -7.625 L 8.96875 0 L 7.375 0 L 4.203125 -6.25 L 3.53125 -5.15625 Z M 3.53125 0 "/></g></g></g><g fill="#000000" fill-opacity="1"><g transform="translate(43.676975, 35.379774)"><g><path d="M 8.453125 0 L 7.828125 0 L 7.296875 -1.3125 C 7.003906 -0.820312 6.625 -0.425781 6.15625 -0.125 C 5.695312 0.164062 5.179688 0.3125 4.609375 0.3125 C 2.640625 0.3125 1.65625 -0.648438 1.65625 -2.578125 L 1.65625 -4.640625 C 1.65625 -6.554688 2.640625 -7.515625 4.609375 -7.515625 L 7 -7.515625 L 7 -10.90625 C 7 -11.394531 6.84375 -11.773438 6.53125 -12.046875 C 6.21875 -12.328125 5.75 -12.46875 5.125 -12.46875 C 3.90625 -12.46875 3.296875 -11.945312 3.296875 -10.90625 L 3.296875 -9.6875 L 1.859375 -9.6875 L 1.859375 -10.8125 C 1.859375 -11.738281 2.128906 -12.453125 2.671875 -12.953125 C 3.210938 -13.453125 4.03125 -13.703125 5.125 -13.703125 C 6.226562 -13.703125 7.054688 -13.453125 7.609375 -12.953125 C 8.171875 -12.453125 8.453125 -11.738281 8.453125 -10.8125 Z M 7 -6.28125 L 4.609375 -6.28125 C 4.035156 -6.28125 3.640625 -6.132812 3.421875 -5.84375 C 3.203125 -5.5625 3.09375 -5.160156 3.09375 -4.640625 L 3.09375 -2.578125 C 3.09375 -2.054688 3.203125 -1.648438 3.421875 -1.359375 C 3.640625 -1.066406 4.035156 -0.921875 4.609375 -0.921875 C 5.191406 -0.921875 5.726562 -1.144531 6.21875 -1.59375 C 6.71875 -2.039062 6.976562 -2.484375 7 -2.921875 Z M 7 -6.28125 "/></g></g></g></svg>