<svg xmlns="http://www.w3.org/2000/svg" xmlns:xlink="http://www.w3.org/1999/xlink" width="150" zoomAndPan="magnify" viewBox="0 0 112.5 56.249996" height="75" preserveAspectRatio="xMidYMid meet" version="1.0"><defs><g/><clipPath id="ba967dab27"><path d="M 0.492188 0 L 111.511719 0 L 111.511719 55.511719 L 0.492188 55.511719 Z M 0.492188 0 " clip-rule="nonzero"/></clipPath><clipPath id="82f70862b3"><path d="M 11.753906 2.648438 L 56.164062 2.648438 L 56.164062 19 L 11.753906 19 Z M 11.753906 2.648438 " clip-rule="nonzero"/></clipPath><clipPath id="93c17812fb"><path d="M 11.753906 4 L 12 4 L 12 6 L 11.753906 6 Z M 11.753906 4 " clip-rule="nonzero"/></clipPath><clipPath id="a66694befe"><path d="M 11.753906 14 L 12 14 L 12 16 L 11.753906 16 Z M 11.753906 14 " clip-rule="nonzero"/></clipPath><clipPath id="4e59341091"><path d="M 41 16 L 56.164062 16 L 56.164062 38.171875 L 41 38.171875 Z M 41 16 " clip-rule="nonzero"/></clipPath><clipPath id="39435feda4"><path d="M 11.753906 17 L 12 17 L 12 19 L 11.753906 19 Z M 11.753906 17 " clip-rule="nonzero"/></clipPath><clipPath id="9c60d97292"><path d="M 11.753906 23 L 12 23 L 12 25 L 11.753906 25 Z M 11.753906 23 " clip-rule="nonzero"/></clipPath><clipPath id="2fa3e9483a"><path d="M 11.753906 27 L 27 27 L 27 38.171875 L 11.753906 38.171875 Z M 11.753906 27 " clip-rule="nonzero"/></clipPath><clipPath id="773fa150ee"><path d="M 11.753906 33 L 12 33 L 12 36 L 11.753906 36 Z M 11.753906 33 " clip-rule="nonzero"/></clipPath></defs><g clip-path="url(#ba967dab27)"><path fill="#ffffff" d="M 0.492188 0 L 111.511719 0 L 111.511719 55.511719 L 0.492188 55.511719 Z M 0.492188 0 " fill-opacity="1" fill-rule="nonzero"/><path fill="#000000" d="M 0.492188 0 L 111.511719 0 L 111.511719 55.511719 L 0.492188 55.511719 Z M 0.492188 0 " fill-opacity="1" fill-rule="nonzero"/></g><g fill="#ffffff" fill-opacity="1"><g transform="translate(16.015932, 49.325102)"><g><path d="M 1.53125 0 L 1.53125 -9.96875 L 2.609375 -9.96875 L 2.609375 -0.921875 L 5.421875 -0.921875 L 5.421875 0 Z M 1.53125 0 "/></g></g></g><g fill="#ffffff" fill-opacity="1"><g transform="translate(21.737953, 49.325102)"><g><path d="M 6.296875 0 L 5.828125 0 L 5.4375 -0.984375 C 5.21875 -0.609375 4.929688 -0.3125 4.578125 -0.09375 C 4.234375 0.125 3.851562 0.234375 3.4375 0.234375 C 1.96875 0.234375 1.234375 -0.484375 1.234375 -1.921875 L 1.234375 -3.453125 C 1.234375 -4.878906 1.96875 -5.59375 3.4375 -5.59375 L 5.21875 -5.59375 L 5.21875 -8.109375 C 5.21875 -8.484375 5.097656 -8.769531 4.859375 -8.96875 C 4.628906 -9.175781 4.285156 -9.28125 3.828125 -9.28125 C 2.910156 -9.28125 2.453125 -8.890625 2.453125 -8.109375 L 2.453125 -7.21875 L 1.375 -7.21875 L 1.375 -8.0625 C 1.375 -8.738281 1.578125 -9.265625 1.984375 -9.640625 C 2.390625 -10.015625 3 -10.203125 3.8125 -10.203125 C 4.632812 -10.203125 5.253906 -10.015625 5.671875 -9.640625 C 6.085938 -9.265625 6.296875 -8.738281 6.296875 -8.0625 Z M 5.21875 -4.6875 L 3.4375 -4.6875 C 3.007812 -4.6875 2.710938 -4.578125 2.546875 -4.359375 C 2.378906 -4.140625 2.296875 -3.835938 2.296875 -3.453125 L 2.296875 -1.921875 C 2.296875 -1.523438 2.378906 -1.21875 2.546875 -1 C 2.710938 -0.789062 3.007812 -0.6875 3.4375 -0.6875 C 3.863281 -0.6875 4.257812 -0.851562 4.625 -1.1875 C 5 -1.519531 5.195312 -1.847656 5.21875 -2.171875 Z M 5.21875 -4.6875 "/></g></g></g><g fill="#ffffff" fill-opacity="1"><g transform="translate(29.408213, 49.325102)"><g><path d="M 6.296875 0 L 5.828125 0 L 5.4375 -0.984375 C 5.21875 -0.609375 4.929688 -0.3125 4.578125 -0.09375 C 4.234375 0.125 3.851562 0.234375 3.4375 0.234375 C 1.96875 0.234375 1.234375 -0.484375 1.234375 -1.921875 L 1.234375 -3.453125 C 1.234375 -4.878906 1.96875 -5.59375 3.4375 -5.59375 L 5.21875 -5.59375 L 5.21875 -8.109375 C 5.21875 -8.484375 5.097656 -8.769531 4.859375 -8.96875 C 4.628906 -9.175781 4.285156 -9.28125 3.828125 -9.28125 C 2.910156 -9.28125 2.453125 -8.890625 2.453125 -8.109375 L 2.453125 -7.21875 L 1.375 -7.21875 L 1.375 -8.0625 C 1.375 -8.738281 1.578125 -9.265625 1.984375 -9.640625 C 2.390625 -10.015625 3 -10.203125 3.8125 -10.203125 C 4.632812 -10.203125 5.253906 -10.015625 5.671875 -9.640625 C 6.085938 -9.265625 6.296875 -8.738281 6.296875 -8.0625 Z M 5.21875 -4.6875 L 3.4375 -4.6875 C 3.007812 -4.6875 2.710938 -4.578125 2.546875 -4.359375 C 2.378906 -4.140625 2.296875 -3.835938 2.296875 -3.453125 L 2.296875 -1.921875 C 2.296875 -1.523438 2.378906 -1.21875 2.546875 -1 C 2.710938 -0.789062 3.007812 -0.6875 3.4375 -0.6875 C 3.863281 -0.6875 4.257812 -0.851562 4.625 -1.1875 C 5 -1.519531 5.195312 -1.847656 5.21875 -2.171875 Z M 5.21875 -4.6875 "/></g></g></g><g fill="#ffffff" fill-opacity="1"><g transform="translate(37.078473, 49.325102)"><g><path d="M 2.625 0 L 1.546875 0 L 1.546875 -9.96875 L 2.625 -9.96875 L 2.625 -5.734375 L 5.296875 -9.96875 L 6.484375 -9.96875 L 3.78125 -5.671875 L 6.671875 0 L 5.5 0 L 3.125 -4.65625 L 2.625 -3.828125 Z M 2.625 0 "/></g></g></g><g fill="#ffffff" fill-opacity="1"><g transform="translate(44.05841, 49.325102)"><g><path d="M 6.296875 0 L 5.828125 0 L 5.4375 -0.984375 C 5.21875 -0.609375 4.929688 -0.3125 4.578125 -0.09375 C 4.234375 0.125 3.851562 0.234375 3.4375 0.234375 C 1.96875 0.234375 1.234375 -0.484375 1.234375 -1.921875 L 1.234375 -3.453125 C 1.234375 -4.878906 1.96875 -5.59375 3.4375 -5.59375 L 5.21875 -5.59375 L 5.21875 -8.109375 C 5.21875 -8.484375 5.097656 -8.769531 4.859375 -8.96875 C 4.628906 -9.175781 4.285156 -9.28125 3.828125 -9.28125 C 2.910156 -9.28125 2.453125 -8.890625 2.453125 -8.109375 L 2.453125 -7.21875 L 1.375 -7.21875 L 1.375 -8.0625 C 1.375 -8.738281 1.578125 -9.265625 1.984375 -9.640625 C 2.390625 -10.015625 3 -10.203125 3.8125 -10.203125 C 4.632812 -10.203125 5.253906 -10.015625 5.671875 -9.640625 C 6.085938 -9.265625 6.296875 -8.738281 6.296875 -8.0625 Z M 5.21875 -4.6875 L 3.4375 -4.6875 C 3.007812 -4.6875 2.710938 -4.578125 2.546875 -4.359375 C 2.378906 -4.140625 2.296875 -3.835938 2.296875 -3.453125 L 2.296875 -1.921875 C 2.296875 -1.523438 2.378906 -1.21875 2.546875 -1 C 2.710938 -0.789062 3.007812 -0.6875 3.4375 -0.6875 C 3.863281 -0.6875 4.257812 -0.851562 4.625 -1.1875 C 5 -1.519531 5.195312 -1.847656 5.21875 -2.171875 Z M 5.21875 -4.6875 "/></g></g></g><path stroke-linecap="butt" transform="matrix(0.00000000129177, 0.740131, -0.740131, 0.00000000129177, 64.339733, 2.648239)" fill="none" stroke-linejoin="miter" d="M 0.000268768 0.501239 L 68.769721 0.501239 " stroke="#ffffff" stroke-width="1" stroke-opacity="1" stroke-miterlimit="4"/><g clip-path="url(#82f70862b3)"><path fill="#ffffff" d="M 13.714844 2.75 L 15.441406 2.808594 L 15.441406 6.320312 L 13.714844 6.378906 L 11.976562 6.421875 L 13.714844 6.453125 L 15.441406 6.484375 L 15.441406 8.238281 L 13.699219 8.296875 L 11.976562 8.339844 L 13.714844 8.371094 L 15.441406 8.398438 L 15.441406 11.925781 L 13.699219 11.984375 L 11.976562 12.027344 L 13.714844 12.058594 L 15.441406 12.085938 L 15.441406 13.84375 L 13.554688 13.902344 L 11.679688 13.945312 L 13.570312 13.976562 L 15.441406 14.003906 L 15.472656 16.6875 C 15.484375 18.179688 15.515625 19.003906 15.542969 18.546875 C 15.605469 17.722656 15.617188 17.707031 16.074219 17.648438 L 16.546875 17.589844 L 16.074219 17.574219 L 15.589844 17.542969 L 15.589844 14.003906 L 17.34375 14.003906 L 17.402344 14.992188 L 17.449219 15.996094 L 17.476562 15.007812 L 17.507812 14.019531 L 18.066406 13.960938 L 18.613281 13.902344 L 18.066406 13.886719 L 17.507812 13.855469 L 17.507812 12.085938 L 20.21875 12.085938 C 22.683594 12.085938 22.949219 12.117188 23.007812 12.335938 C 23.066406 12.589844 23.082031 12.589844 23.097656 12.335938 C 23.109375 12.117188 23.347656 12.085938 25.824219 12.085938 L 28.554688 12.085938 L 28.613281 12.78125 L 28.65625 13.488281 L 28.6875 12.707031 L 28.714844 11.941406 L 23.109375 11.941406 L 23.109375 8.414062 L 24.261719 8.355469 L 25.398438 8.3125 L 24.261719 8.28125 L 23.109375 8.253906 L 23.109375 6.484375 L 24.867188 6.484375 L 24.925781 7.324219 L 24.96875 8.179688 L 25 7.339844 L 25.027344 6.496094 L 25.589844 6.4375 L 26.132812 6.378906 L 25.589844 6.363281 L 25.042969 6.335938 L 24.984375 4.59375 L 24.941406 2.867188 L 24.910156 4.59375 L 24.878906 6.335938 L 23.109375 6.335938 L 23.109375 2.796875 L 28.554688 2.796875 L 28.613281 3.414062 L 28.671875 4.050781 L 28.6875 3.414062 L 28.714844 2.796875 L 41.695312 2.796875 L 41.695312 6.320312 L 40.042969 6.378906 L 38.375 6.421875 L 41.679688 6.484375 L 41.738281 7.25 L 41.78125 8.03125 L 41.8125 7.25 L 41.839844 6.484375 L 43.613281 6.484375 L 43.613281 8.238281 L 42.992188 8.296875 L 42.359375 8.355469 L 42.976562 8.371094 C 43.492188 8.398438 43.597656 8.457031 43.65625 8.722656 L 43.714844 9.0625 L 43.746094 8.722656 C 43.757812 8.398438 43.804688 8.398438 45.527344 8.398438 L 47.285156 8.398438 L 47.34375 9.535156 L 47.386719 10.6875 L 47.417969 9.535156 L 47.445312 8.398438 L 49.203125 8.398438 L 49.261719 10.050781 L 49.304688 11.71875 L 49.332031 10.050781 L 49.363281 8.398438 L 54.820312 8.398438 L 54.820312 11.925781 L 52.503906 11.984375 L 50.175781 12.027344 L 52.503906 12.058594 L 54.820312 12.085938 L 54.820312 12.957031 C 54.820312 13.796875 54.804688 13.84375 54.421875 13.902344 L 54.007812 13.960938 L 54.40625 13.988281 C 54.730469 14.003906 54.804688 14.078125 54.863281 14.476562 L 54.921875 14.964844 L 54.9375 14.492188 C 54.96875 14.0625 55.011719 14.019531 55.527344 13.960938 L 56.074219 13.902344 L 55.527344 13.886719 L 54.96875 13.855469 L 54.96875 12.101562 L 55.527344 12.042969 L 56.074219 11.984375 L 55.527344 11.96875 L 54.96875 11.941406 L 54.96875 8.414062 L 55.527344 8.355469 L 56.074219 8.296875 L 55.527344 8.28125 L 54.96875 8.253906 L 54.96875 6.496094 L 55.527344 6.4375 L 56.074219 6.378906 L 55.527344 6.363281 L 54.96875 6.335938 L 54.96875 2.808594 L 55.527344 2.75 C 55.824219 2.722656 46.148438 2.707031 34.023438 2.707031 C 21.902344 2.707031 12.757812 2.734375 13.714844 2.75 Z M 17.359375 4.566406 L 17.359375 6.335938 L 15.589844 6.335938 L 15.589844 2.796875 L 17.359375 2.796875 Z M 22.964844 4.566406 L 22.964844 6.335938 L 21.195312 6.335938 L 21.164062 4.59375 L 21.132812 2.867188 L 21.089844 4.59375 L 21.03125 6.335938 L 17.507812 6.335938 L 17.507812 2.796875 L 22.964844 2.796875 Z M 49.214844 4.566406 L 49.214844 6.335938 L 47.445312 6.335938 L 47.417969 4.59375 L 47.386719 2.867188 L 47.34375 4.59375 L 47.285156 6.335938 L 43.757812 6.335938 L 43.730469 4.59375 L 43.699219 2.867188 L 43.65625 4.59375 L 43.597656 6.335938 L 41.839844 6.335938 L 41.839844 2.796875 L 49.214844 2.796875 Z M 54.820312 4.566406 L 54.820312 6.335938 L 49.363281 6.335938 L 49.363281 2.796875 L 54.820312 2.796875 Z M 17.359375 7.367188 L 17.359375 8.253906 L 15.589844 8.253906 L 15.589844 6.484375 L 17.359375 6.484375 Z M 21.046875 7.367188 L 21.046875 8.253906 L 17.507812 8.253906 L 17.507812 6.484375 L 21.046875 6.484375 Z M 22.964844 7.367188 L 22.964844 8.253906 L 21.195312 8.253906 L 21.195312 6.484375 L 22.964844 6.484375 Z M 47.296875 7.367188 L 47.296875 8.253906 L 43.757812 8.253906 L 43.757812 6.484375 L 47.296875 6.484375 Z M 49.214844 7.367188 L 49.214844 8.253906 L 47.445312 8.253906 L 47.445312 6.484375 L 49.214844 6.484375 Z M 54.820312 7.367188 L 54.820312 8.253906 L 49.363281 8.253906 L 49.363281 6.484375 L 54.820312 6.484375 Z M 17.359375 10.167969 L 17.359375 11.941406 L 15.589844 11.941406 L 15.589844 8.398438 L 17.359375 8.398438 Z M 21.046875 10.167969 L 21.046875 11.941406 L 17.507812 11.941406 L 17.507812 8.398438 L 21.046875 8.398438 Z M 22.964844 10.167969 L 22.964844 11.941406 L 21.195312 11.941406 L 21.195312 8.398438 L 22.964844 8.398438 Z M 17.359375 12.972656 L 17.359375 13.855469 L 15.589844 13.855469 L 15.589844 12.085938 L 17.359375 12.085938 Z M 17.359375 12.972656 " fill-opacity="1" fill-rule="nonzero"/></g><path fill="#ffffff" d="M 36.148438 4.195312 C 36.148438 4.917969 36.164062 5.242188 36.191406 4.90625 C 36.222656 4.566406 36.222656 3.960938 36.191406 3.578125 C 36.164062 3.195312 36.148438 3.460938 36.148438 4.195312 Z M 36.148438 4.195312 " fill-opacity="1" fill-rule="nonzero"/><g clip-path="url(#93c17812fb)"><path fill="#ffffff" d="M 11.796875 5.300781 C 11.796875 5.832031 11.828125 6.039062 11.859375 5.773438 C 11.886719 5.523438 11.886719 5.082031 11.859375 4.816406 C 11.828125 4.566406 11.796875 4.773438 11.796875 5.300781 Z M 11.796875 5.300781 " fill-opacity="1" fill-rule="nonzero"/></g><path fill="#ffffff" d="M 27.710938 5.007812 C 27.34375 5.242188 27.078125 5.628906 26.636719 6.570312 C 26.324219 7.25 26.0625 7.957031 26.0625 8.148438 C 26.0625 8.695312 26.589844 9.386719 27.566406 10.125 C 29.71875 11.777344 32.003906 13.796875 33.671875 15.507812 C 35.527344 17.425781 36.457031 18.636719 37.078125 20.007812 C 37.417969 20.730469 37.445312 20.9375 37.359375 21.878906 C 37.019531 25.523438 37.078125 26.082031 37.828125 26.363281 C 38.050781 26.4375 40.144531 26.792969 42.492188 27.160156 L 46.738281 27.808594 L 47.371094 27.410156 C 48.480469 26.71875 48.996094 26.054688 49.910156 24.152344 C 50.394531 23.148438 51.414062 21.203125 52.179688 19.828125 C 54.347656 15.921875 54.554688 15.347656 54.007812 14.742188 C 53.875 14.59375 49.289062 12.351562 43.789062 9.757812 L 33.804688 5.023438 L 31.828125 4.875 C 28.9375 4.640625 28.289062 4.667969 27.710938 5.007812 Z M 31.472656 5.761719 L 33.613281 5.921875 L 43.359375 10.554688 C 48.730469 13.105469 53.183594 15.199219 53.273438 15.226562 C 53.433594 15.289062 53.082031 16.453125 52.828125 16.660156 C 52.695312 16.761719 50.585938 15.789062 45.734375 13.398438 C 34.9375 8.074219 32.84375 7.074219 32.195312 6.941406 C 31.855469 6.867188 30.765625 6.6875 29.746094 6.542969 C 28.730469 6.410156 27.875 6.261719 27.84375 6.230469 C 27.816406 6.21875 27.902344 6.054688 28.050781 5.890625 C 28.363281 5.539062 28.566406 5.539062 31.472656 5.761719 Z M 30.191406 7.515625 L 32.328125 7.824219 L 36.636719 9.917969 C 38.996094 11.070312 40.941406 12.042969 40.941406 12.085938 C 40.957031 12.132812 40.648438 12.324219 40.261719 12.53125 C 39.394531 12.988281 39.023438 13.503906 38.9375 14.328125 C 38.878906 14.816406 38.9375 15.140625 39.15625 15.566406 C 39.613281 16.410156 41.855469 19.328125 42.3125 19.667969 C 42.59375 19.859375 43.066406 19.976562 43.949219 20.050781 C 44.9375 20.125 45.410156 20.257812 46.382812 20.714844 C 47.046875 21.023438 47.59375 21.335938 47.59375 21.394531 C 47.59375 21.453125 47.445312 21.6875 47.269531 21.894531 L 46.929688 22.277344 L 43.757812 22.101562 L 40.589844 21.910156 L 40.070312 20.597656 C 39.097656 18.105469 37.417969 15.449219 35.589844 13.53125 C 34.335938 12.203125 33.554688 11.941406 32.535156 12.457031 C 32.109375 12.691406 32.109375 12.675781 31.03125 11.761719 C 30.457031 11.246094 29.542969 10.507812 29.011719 10.109375 C 27.710938 9.136719 26.945312 8.386719 26.945312 8.105469 C 26.945312 7.722656 27.386719 7.21875 27.726562 7.21875 C 27.902344 7.21875 29.011719 7.351562 30.191406 7.515625 Z M 46.871094 14.976562 C 49.261719 16.15625 51.324219 17.234375 51.457031 17.351562 C 51.988281 17.824219 51.945312 18.355469 51.207031 19.683594 C 50.21875 21.496094 49.820312 21.613281 48.050781 20.566406 C 46.546875 19.699219 45.203125 19.210938 44.023438 19.121094 C 43.492188 19.078125 42.949219 18.988281 42.816406 18.914062 C 42.429688 18.695312 39.925781 15.214844 39.835938 14.769531 C 39.804688 14.550781 39.851562 14.210938 39.953125 14.003906 C 40.203125 13.53125 41.472656 12.839844 42.078125 12.824219 C 42.386719 12.824219 44.039062 13.5625 46.871094 14.976562 Z M 34.394531 13.578125 C 35.175781 14.269531 36.738281 16.277344 37.59375 17.675781 C 38.347656 18.914062 39.703125 21.804688 39.585938 21.910156 C 39.554688 21.953125 39.246094 21.9375 38.90625 21.878906 C 38.316406 21.792969 38.300781 21.761719 38.300781 21.214844 C 38.300781 19.742188 36.972656 17.558594 34.511719 15.023438 C 33.597656 14.078125 32.890625 13.265625 32.949219 13.222656 C 33.183594 12.972656 33.90625 13.148438 34.394531 13.578125 Z M 49.347656 22.117188 C 49.597656 22.117188 49.804688 22.144531 49.804688 22.175781 C 49.804688 22.191406 49.4375 23 48.996094 23.945312 C 48.285156 25.417969 48.066406 25.746094 47.429688 26.246094 C 47.019531 26.570312 46.621094 26.835938 46.53125 26.835938 C 46.339844 26.835938 38.980469 25.683594 38.390625 25.566406 L 37.960938 25.480469 L 38.035156 24.152344 C 38.082031 23.429688 38.140625 22.824219 38.167969 22.792969 C 38.289062 22.722656 44.46875 23 45.574219 23.148438 C 46.988281 23.324219 47.59375 23.132812 48.050781 22.351562 C 48.300781 21.910156 48.40625 21.851562 48.625 21.96875 C 48.773438 22.058594 49.097656 22.117188 49.347656 22.117188 Z M 49.347656 22.117188 " fill-opacity="1" fill-rule="nonzero"/><path fill="#ffffff" d="M 28.242188 8.28125 C 27.902344 8.371094 27.902344 8.371094 28.230469 8.386719 C 28.433594 8.398438 28.566406 8.519531 28.613281 8.722656 L 28.671875 9.0625 L 28.699219 8.738281 C 28.714844 8.445312 28.804688 8.414062 29.570312 8.371094 L 30.410156 8.324219 L 29.496094 8.253906 C 28.980469 8.207031 28.421875 8.222656 28.242188 8.28125 Z M 28.242188 8.28125 " fill-opacity="1" fill-rule="nonzero"/><path fill="#ffffff" d="M 30.53125 9.433594 C 30.53125 9.964844 30.558594 10.167969 30.589844 9.902344 C 30.617188 9.652344 30.617188 9.210938 30.589844 8.945312 C 30.558594 8.695312 30.53125 8.902344 30.53125 9.433594 Z M 30.53125 9.433594 " fill-opacity="1" fill-rule="nonzero"/><path fill="#ffffff" d="M 34.214844 10.539062 C 34.214844 11.097656 34.246094 11.320312 34.277344 11.011719 C 34.304688 10.714844 34.304688 10.242188 34.277344 9.976562 C 34.246094 9.726562 34.214844 9.964844 34.214844 10.539062 Z M 34.214844 10.539062 " fill-opacity="1" fill-rule="nonzero"/><path fill="#ffffff" d="M 36.117188 11.15625 L 36.089844 11.925781 L 35.46875 11.984375 L 34.835938 12.042969 L 35.457031 12.058594 C 36.058594 12.085938 36.074219 12.101562 36.132812 12.632812 L 36.191406 13.191406 L 36.207031 12.648438 L 36.238281 12.101562 L 37.757812 12.042969 L 39.261719 12 L 37.757812 11.96875 L 36.25 11.941406 L 36.191406 11.15625 L 36.148438 10.390625 Z M 36.117188 11.15625 " fill-opacity="1" fill-rule="nonzero"/><path fill="#ffffff" d="M 41.695312 13.664062 C 41.695312 13.753906 41.515625 13.871094 41.296875 13.902344 L 40.882812 13.960938 L 41.28125 13.988281 C 41.679688 14.003906 41.679688 14.003906 41.738281 15.289062 L 41.78125 16.585938 L 41.8125 15.289062 L 41.839844 14.003906 L 42.550781 13.976562 L 43.242188 13.960938 L 42.578125 13.902344 C 42.226562 13.855469 41.871094 13.753906 41.8125 13.664062 C 41.722656 13.53125 41.695312 13.53125 41.695312 13.664062 Z M 41.695312 13.664062 " fill-opacity="1" fill-rule="nonzero"/><path fill="#ffffff" d="M 43.613281 15.90625 L 43.613281 17.527344 L 43.066406 17.589844 L 42.503906 17.648438 L 43.050781 17.660156 C 43.523438 17.691406 43.597656 17.75 43.65625 18.089844 C 43.683594 18.324219 43.730469 17.558594 43.746094 16.394531 C 43.746094 15.242188 43.730469 14.300781 43.683594 14.300781 C 43.640625 14.300781 43.613281 15.023438 43.613281 15.90625 Z M 43.613281 15.90625 " fill-opacity="1" fill-rule="nonzero"/><path fill="#ffffff" d="M 47.296875 16.804688 L 47.296875 17.527344 L 46.308594 17.589844 L 45.308594 17.632812 L 46.296875 17.660156 L 47.285156 17.691406 L 47.34375 18.53125 C 47.371094 19.003906 47.402344 18.636719 47.417969 17.722656 C 47.429688 16.820312 47.417969 16.070312 47.371094 16.070312 C 47.328125 16.070312 47.296875 16.394531 47.296875 16.804688 Z M 47.296875 16.804688 " fill-opacity="1" fill-rule="nonzero"/><path fill="#ffffff" d="M 49.246094 17.203125 C 49.214844 17.484375 49.113281 17.527344 48.375 17.589844 L 47.519531 17.632812 L 48.375 17.660156 L 49.214844 17.691406 L 49.214844 19.445312 L 48.449219 19.503906 L 47.667969 19.550781 L 48.433594 19.578125 C 49.171875 19.609375 49.203125 19.625 49.261719 20.082031 L 49.320312 20.566406 L 49.332031 20.09375 C 49.363281 19.652344 49.40625 19.625 49.996094 19.566406 L 50.617188 19.503906 L 49.996094 19.492188 L 49.378906 19.460938 L 49.320312 18.164062 C 49.304688 17.457031 49.261719 17.027344 49.246094 17.203125 Z M 49.246094 17.203125 " fill-opacity="1" fill-rule="nonzero"/><path fill="#ffffff" d="M 41.722656 24.285156 L 41.695312 25.050781 L 41 25.109375 C 40.601562 25.140625 41.03125 25.167969 41.945312 25.183594 C 43.09375 25.199219 43.613281 25.273438 43.65625 25.390625 C 43.714844 25.539062 43.746094 25.539062 43.746094 25.390625 C 43.757812 25.257812 44.230469 25.214844 45.601562 25.214844 L 47.445312 25.214844 L 47.417969 24.429688 L 47.386719 23.664062 L 47.34375 24.359375 L 47.285156 25.066406 L 43.773438 25.066406 L 43.714844 24.359375 L 43.671875 23.664062 L 43.640625 24.359375 L 43.613281 25.066406 L 41.855469 25.066406 L 41.796875 24.285156 L 41.753906 23.515625 Z M 41.722656 24.285156 " fill-opacity="1" fill-rule="nonzero"/><path fill="#ffffff" d="M 24.941406 10.167969 C 24.941406 11.097656 24.953125 11.480469 24.984375 11.011719 C 25.011719 10.554688 25.011719 9.785156 24.984375 9.3125 C 24.953125 8.855469 24.941406 9.242188 24.941406 10.167969 Z M 24.941406 10.167969 " fill-opacity="1" fill-rule="nonzero"/><path fill="#ffffff" d="M 20.144531 13.445312 C 19.085938 14.152344 18.847656 14.476562 17.710938 16.804688 C 17.210938 17.824219 16.222656 19.710938 15.5 21.011719 C 13.714844 24.179688 13.332031 25.082031 13.507812 25.566406 C 13.597656 25.773438 13.804688 26.039062 13.996094 26.15625 C 14.1875 26.273438 18.746094 28.472656 24.144531 31.023438 L 33.949219 35.65625 L 35.925781 35.816406 C 40.011719 36.140625 40.21875 36.082031 41.117188 34.121094 C 41.429688 33.441406 41.695312 32.71875 41.695312 32.527344 C 41.695312 31.9375 41.074219 31.246094 39.289062 29.859375 C 35.191406 26.644531 31.929688 23.28125 30.867188 21.144531 C 30.308594 20.035156 30.21875 19.402344 30.425781 18.207031 C 30.664062 16.894531 30.675781 15.300781 30.46875 14.832031 C 30.367188 14.636719 30.132812 14.402344 29.910156 14.328125 C 29.703125 14.253906 27.609375 13.886719 25.265625 13.53125 L 21 12.867188 Z M 25.25 14.460938 C 27.445312 14.785156 29.335938 15.109375 29.453125 15.183594 C 29.628906 15.273438 29.675781 15.566406 29.644531 16.585938 C 29.644531 17.277344 29.601562 17.882812 29.570312 17.898438 C 29.480469 17.988281 23.332031 17.691406 22.152344 17.558594 C 20.75 17.394531 20.21875 17.558594 19.6875 18.324219 C 19.421875 18.722656 19.277344 18.8125 19.128906 18.710938 C 19.011719 18.636719 18.6875 18.578125 18.433594 18.578125 C 18.171875 18.578125 17.949219 18.546875 17.949219 18.515625 C 17.949219 18.503906 18.316406 17.691406 18.761719 16.746094 C 19.46875 15.273438 19.6875 14.949219 20.324219 14.445312 C 20.734375 14.121094 21.121094 13.855469 21.164062 13.855469 C 21.222656 13.855469 23.066406 14.121094 25.25 14.460938 Z M 25.191406 18.664062 L 27.210938 18.769531 L 27.386719 19.371094 C 27.992188 21.378906 29.9375 24.667969 31.78125 26.777344 C 33.199219 28.398438 34.128906 28.796875 35.21875 28.238281 C 35.648438 28 35.648438 28.015625 36.722656 28.929688 C 37.300781 29.445312 38.347656 30.300781 39.039062 30.816406 C 40.898438 32.21875 41.074219 32.515625 40.527344 33.191406 L 40.25 33.546875 L 37.828125 33.207031 L 35.425781 32.867188 L 31.121094 30.773438 C 28.757812 29.625 26.8125 28.636719 26.8125 28.589844 C 26.796875 28.546875 27.0625 28.382812 27.402344 28.238281 C 28.332031 27.808594 28.789062 27.117188 28.789062 26.113281 C 28.789062 25.300781 28.757812 25.226562 27.550781 23.589844 C 26.191406 21.734375 25.675781 21.128906 25.277344 20.90625 C 25.132812 20.832031 24.453125 20.714844 23.789062 20.640625 C 22.859375 20.550781 22.253906 20.375 21.355469 19.960938 C 20.707031 19.667969 20.160156 19.371094 20.160156 19.3125 C 20.160156 19.253906 20.308594 19.019531 20.484375 18.796875 C 20.796875 18.398438 20.824219 18.382812 21.988281 18.472656 C 22.652344 18.53125 24.085938 18.621094 25.191406 18.664062 Z M 29.097656 18.871094 C 29.347656 18.871094 29.410156 18.972656 29.421875 19.445312 C 29.480469 21.011719 30.792969 23.148438 33.242188 25.671875 C 34.15625 26.613281 34.867188 27.425781 34.804688 27.46875 C 34.761719 27.527344 34.511719 27.574219 34.261719 27.574219 C 33.878906 27.574219 33.613281 27.382812 32.726562 26.453125 C 31.5625 25.226562 30.160156 23.222656 29.378906 21.671875 C 28.9375 20.789062 28.125 18.914062 28.125 18.753906 C 28.125 18.722656 28.273438 18.722656 28.464844 18.78125 C 28.640625 18.828125 28.921875 18.871094 29.097656 18.871094 Z M 19.703125 20.125 C 21.148438 20.964844 22.59375 21.511719 23.496094 21.539062 C 24.878906 21.585938 25.011719 21.671875 26.488281 23.679688 C 27.949219 25.671875 28.15625 26.171875 27.769531 26.761719 C 27.460938 27.21875 26.222656 27.867188 25.617188 27.867188 C 25.175781 27.867188 16.828125 23.8125 16.296875 23.339844 C 15.765625 22.867188 15.808594 22.335938 16.546875 21.011719 C 16.917969 20.332031 17.328125 19.699219 17.476562 19.625 C 17.976562 19.328125 18.597656 19.460938 19.703125 20.125 Z M 23.214844 27.882812 C 35.855469 34.121094 34.867188 33.695312 37.609375 34.078125 C 38.878906 34.253906 39.925781 34.445312 39.925781 34.503906 C 39.925781 34.5625 39.792969 34.726562 39.628906 34.875 C 39.347656 35.140625 39.1875 35.140625 36.753906 34.960938 L 34.171875 34.785156 L 24.410156 30.140625 C 19.027344 27.601562 14.570312 25.492188 14.484375 25.464844 C 14.261719 25.390625 14.835938 23.886719 15.074219 23.886719 C 15.101562 23.886719 18.761719 25.683594 23.214844 27.882812 Z M 23.214844 27.882812 " fill-opacity="1" fill-rule="nonzero"/><path fill="#ffffff" d="M 21.089844 15.773438 C 21.089844 16.378906 21.121094 16.628906 21.148438 16.320312 C 21.179688 16.023438 21.179688 15.523438 21.148438 15.214844 C 21.121094 14.917969 21.089844 15.167969 21.089844 15.773438 Z M 21.089844 15.773438 " fill-opacity="1" fill-rule="nonzero"/><path fill="#ffffff" d="M 23.007812 15.847656 C 23.007812 16.496094 23.035156 16.746094 23.066406 16.394531 C 23.097656 16.054688 23.097656 15.523438 23.066406 15.214844 C 23.035156 14.917969 23.007812 15.199219 23.007812 15.847656 Z M 23.007812 15.847656 " fill-opacity="1" fill-rule="nonzero"/><path fill="#ffffff" d="M 24.925781 16.070312 C 24.925781 16.601562 24.953125 16.804688 24.984375 16.542969 C 25.011719 16.289062 25.011719 15.847656 24.984375 15.582031 C 24.953125 15.332031 24.925781 15.539062 24.925781 16.070312 Z M 24.925781 16.070312 " fill-opacity="1" fill-rule="nonzero"/><path fill="#ffffff" d="M 23.671875 19.566406 C 23.921875 19.59375 24.363281 19.59375 24.628906 19.566406 C 24.878906 19.535156 24.675781 19.503906 24.144531 19.503906 C 23.613281 19.503906 23.40625 19.535156 23.671875 19.566406 Z M 23.671875 19.566406 " fill-opacity="1" fill-rule="nonzero"/><path fill="#ffffff" d="M 30.5 26.644531 C 30.484375 26.910156 30.382812 26.96875 29.867188 27.027344 L 29.230469 27.085938 L 29.851562 27.101562 L 30.46875 27.128906 L 30.53125 28.488281 L 30.574219 29.859375 L 30.601562 28.503906 C 30.632812 27.351562 30.675781 27.144531 30.898438 27.085938 C 31.121094 27.027344 31.121094 27.011719 30.898438 26.996094 C 30.765625 26.996094 30.617188 26.835938 30.589844 26.644531 L 30.53125 26.320312 Z M 30.5 26.644531 " fill-opacity="1" fill-rule="nonzero"/><path fill="#ffffff" d="M 34.203125 29.886719 L 34.171875 30.65625 L 33.40625 30.714844 L 32.625 30.757812 L 33.390625 30.789062 C 34.097656 30.816406 34.15625 30.847656 34.214844 31.214844 L 34.277344 31.628906 L 34.304688 31.214844 C 34.320312 30.832031 34.347656 30.816406 35.191406 30.816406 L 36.074219 30.816406 L 36.132812 31.585938 L 36.179688 32.367188 L 36.207031 31.597656 L 36.238281 30.832031 L 37.019531 30.773438 L 37.785156 30.730469 L 37.019531 30.699219 L 36.25 30.671875 L 36.191406 29.960938 L 36.148438 29.269531 L 36.117188 29.960938 L 36.089844 30.671875 L 34.335938 30.671875 L 34.277344 29.886719 L 34.230469 29.121094 Z M 34.203125 29.886719 " fill-opacity="1" fill-rule="nonzero"/><path fill="#ffffff" d="M 17.359375 21.082031 C 17.316406 21.289062 17.328125 21.878906 17.375 22.410156 L 17.460938 23.371094 L 17.476562 22.457031 L 17.507812 21.539062 L 19.171875 21.480469 L 20.824219 21.4375 L 19.171875 21.40625 C 17.59375 21.378906 17.519531 21.363281 17.476562 21.039062 C 17.433594 20.730469 17.417969 20.730469 17.359375 21.082031 Z M 17.359375 21.082031 " fill-opacity="1" fill-rule="nonzero"/><path fill="#ffffff" d="M 21.105469 23.371094 C 21.105469 24.253906 21.121094 24.609375 21.148438 24.136719 C 21.179688 23.664062 21.179688 22.941406 21.148438 22.515625 C 21.121094 22.085938 21.105469 22.46875 21.105469 23.371094 Z M 21.105469 23.371094 " fill-opacity="1" fill-rule="nonzero"/><path fill="#ffffff" d="M 22.992188 23.546875 L 22.964844 25.050781 L 22.195312 25.109375 L 21.414062 25.152344 L 22.183594 25.183594 C 22.917969 25.214844 22.949219 25.226562 23.007812 25.683594 L 23.066406 26.171875 L 23.082031 25.683594 L 23.109375 25.214844 L 24.867188 25.214844 L 24.925781 26.054688 L 24.96875 26.910156 L 25 26.070312 L 25.027344 25.226562 L 25.957031 25.167969 C 26.457031 25.140625 26.03125 25.109375 25 25.09375 L 23.125 25.066406 L 23.066406 23.546875 L 23.023438 22.042969 Z M 22.992188 23.546875 " fill-opacity="1" fill-rule="nonzero"/><path fill="#ffffff" d="M 24.925781 24.035156 C 24.925781 24.5625 24.953125 24.769531 24.984375 24.503906 C 25.011719 24.253906 25.011719 23.8125 24.984375 23.546875 C 24.953125 23.296875 24.925781 23.503906 24.925781 24.035156 Z M 24.925781 24.035156 " fill-opacity="1" fill-rule="nonzero"/><g clip-path="url(#a66694befe)"><path fill="#ffffff" d="M 11.796875 15.035156 C 11.796875 15.566406 11.828125 15.773438 11.859375 15.507812 C 11.886719 15.257812 11.886719 14.816406 11.859375 14.550781 C 11.828125 14.300781 11.796875 14.503906 11.796875 15.035156 Z M 11.796875 15.035156 " fill-opacity="1" fill-rule="nonzero"/></g><g clip-path="url(#4e59341091)"><path fill="#ffffff" d="M 54.851562 17.792969 L 54.820312 19.445312 L 54.054688 19.503906 L 53.273438 19.550781 L 54.054688 19.578125 L 54.820312 19.609375 L 54.820312 21.363281 L 53.390625 21.421875 L 51.945312 21.46875 L 53.390625 21.496094 L 54.820312 21.527344 L 54.820312 25.066406 L 52.429688 25.109375 L 50.027344 25.152344 L 52.429688 25.183594 L 54.820312 25.214844 L 54.820312 26.984375 L 52.09375 26.984375 C 50.308594 26.984375 49.363281 26.925781 49.363281 26.835938 C 49.363281 26.746094 49.273438 26.761719 49.15625 26.863281 C 49.039062 26.96875 49.007812 27.070312 49.082031 27.101562 C 49.15625 27.128906 49.214844 27.941406 49.214844 28.914062 L 49.214844 30.671875 L 47.460938 30.671875 L 47.402344 29.386719 L 47.359375 28.089844 L 47.328125 29.371094 L 47.296875 30.671875 L 43.773438 30.671875 L 43.714844 29.3125 L 43.671875 27.941406 L 43.640625 29.296875 L 43.613281 30.671875 L 41.839844 30.671875 L 41.8125 29.152344 L 41.78125 27.648438 L 41.707031 29.195312 C 41.621094 30.65625 41.664062 31.40625 41.8125 30.996094 C 41.839844 30.875 42.195312 30.816406 42.742188 30.816406 L 43.613281 30.816406 L 43.613281 32.574219 L 42.992188 32.632812 L 42.359375 32.691406 L 42.992188 32.707031 L 43.613281 32.734375 L 43.613281 36.261719 L 42.769531 36.320312 L 41.914062 36.363281 L 42.757812 36.394531 L 43.597656 36.421875 L 43.65625 37.261719 L 43.699219 38.117188 L 43.730469 37.261719 L 43.757812 36.421875 L 47.285156 36.421875 L 47.34375 37.261719 C 47.371094 37.734375 47.402344 36.910156 47.417969 35.417969 L 47.445312 32.734375 L 49.214844 32.734375 L 49.261719 35.417969 L 49.289062 38.117188 L 49.332031 35.417969 L 49.363281 32.734375 L 54.820312 32.734375 L 54.820312 36.273438 L 52.136719 36.273438 C 50.660156 36.273438 49.496094 36.304688 49.539062 36.347656 C 49.585938 36.394531 50.351562 36.4375 51.25 36.4375 L 52.886719 36.4375 L 52.949219 36.835938 L 53.007812 37.234375 L 53.035156 36.820312 C 53.050781 36.4375 53.082031 36.421875 53.933594 36.421875 L 54.804688 36.421875 L 54.863281 37.261719 C 54.894531 37.734375 54.921875 36.910156 54.9375 35.433594 L 54.96875 32.75 L 55.527344 32.691406 L 56.074219 32.632812 L 55.527344 32.617188 L 54.96875 32.585938 L 54.96875 30.832031 L 55.527344 30.773438 L 56.074219 30.714844 L 55.527344 30.699219 L 54.96875 30.671875 L 54.96875 27.144531 L 55.527344 27.085938 L 56.074219 27.027344 L 55.527344 27.011719 L 54.96875 26.984375 L 54.96875 25.226562 L 55.527344 25.167969 L 56.074219 25.109375 L 55.527344 25.09375 L 54.96875 25.066406 L 54.96875 21.539062 L 55.527344 21.480469 L 56.074219 21.421875 L 55.527344 21.40625 L 54.96875 21.378906 L 54.96875 19.625 L 55.527344 19.566406 L 56.074219 19.503906 L 55.527344 19.492188 L 54.984375 19.460938 L 54.921875 17.792969 L 54.878906 16.144531 Z M 54.820312 28.902344 L 54.820312 30.671875 L 49.363281 30.671875 L 49.363281 27.128906 L 54.820312 27.128906 Z M 47.296875 31.703125 L 47.296875 32.585938 L 43.757812 32.585938 L 43.757812 30.816406 L 47.296875 30.816406 Z M 49.214844 31.703125 L 49.214844 32.585938 L 47.445312 32.585938 L 47.445312 30.816406 L 49.214844 30.816406 Z M 54.820312 31.703125 L 54.820312 32.585938 L 49.363281 32.585938 L 49.363281 30.816406 L 54.820312 30.816406 Z M 47.296875 34.503906 L 47.296875 36.273438 L 43.757812 36.273438 L 43.757812 32.734375 L 47.296875 32.734375 Z M 47.296875 34.503906 " fill-opacity="1" fill-rule="nonzero"/></g><path fill="#ffffff" d="M 34.203125 18.238281 L 34.171875 19.445312 L 32.59375 19.503906 L 31 19.550781 L 32.59375 19.578125 L 34.171875 19.609375 L 34.171875 21.363281 L 32.964844 21.421875 L 31.738281 21.46875 L 32.949219 21.496094 L 34.15625 21.527344 L 34.214844 23.03125 L 34.261719 24.550781 L 34.289062 23.03125 L 34.320312 21.527344 L 36.089844 21.527344 L 36.089844 25.050781 L 35.46875 25.109375 L 34.835938 25.167969 L 35.457031 25.183594 C 36.074219 25.214844 36.074219 25.214844 36.132812 25.832031 C 36.164062 26.1875 36.191406 25.359375 36.207031 24.003906 C 36.238281 21.804688 36.265625 21.539062 36.503906 21.480469 C 36.722656 21.421875 36.722656 21.40625 36.503906 21.394531 C 36.3125 21.378906 36.238281 21.203125 36.191406 20.523438 L 36.148438 19.683594 L 36.117188 20.523438 L 36.089844 21.378906 L 34.320312 21.378906 L 34.320312 19.625 L 35.175781 19.566406 L 36.015625 19.519531 L 35.175781 19.492188 L 34.335938 19.460938 L 34.277344 18.238281 L 34.230469 17.027344 Z M 34.203125 18.238281 " fill-opacity="1" fill-rule="nonzero"/><g clip-path="url(#39435feda4)"><path fill="#ffffff" d="M 11.796875 18.355469 C 11.796875 18.84375 11.828125 19.019531 11.859375 18.753906 C 11.886719 18.488281 11.886719 18.089844 11.859375 17.867188 C 11.828125 17.648438 11.796875 17.867188 11.796875 18.355469 Z M 11.796875 18.355469 " fill-opacity="1" fill-rule="nonzero"/></g><path fill="#ffffff" d="M 13.9375 17.648438 C 14.1875 17.675781 14.628906 17.675781 14.894531 17.648438 C 15.148438 17.617188 14.941406 17.589844 14.410156 17.589844 C 13.878906 17.589844 13.671875 17.617188 13.9375 17.648438 Z M 13.9375 17.648438 " fill-opacity="1" fill-rule="nonzero"/><path fill="#ffffff" d="M 32.003906 17.648438 C 32.386719 17.675781 33.007812 17.675781 33.40625 17.648438 C 33.789062 17.617188 33.464844 17.601562 32.699219 17.601562 C 31.929688 17.601562 31.605469 17.617188 32.003906 17.648438 Z M 32.003906 17.648438 " fill-opacity="1" fill-rule="nonzero"/><path fill="#ffffff" d="M 12.816406 19.566406 C 13.289062 19.59375 14.054688 19.59375 14.511719 19.566406 C 14.984375 19.535156 14.601562 19.519531 13.671875 19.519531 C 12.742188 19.519531 12.359375 19.535156 12.816406 19.566406 Z M 12.816406 19.566406 " fill-opacity="1" fill-rule="nonzero"/><path fill="#ffffff" d="M 12.59375 21.480469 C 12.949219 21.511719 13.507812 21.511719 13.847656 21.480469 C 14.203125 21.453125 13.921875 21.421875 13.230469 21.421875 C 12.535156 21.421875 12.253906 21.453125 12.59375 21.480469 Z M 12.59375 21.480469 " fill-opacity="1" fill-rule="nonzero"/><g clip-path="url(#9c60d97292)"><path fill="#ffffff" d="M 11.796875 24.035156 C 11.796875 24.5625 11.828125 24.769531 11.859375 24.503906 C 11.886719 24.253906 11.886719 23.8125 11.859375 23.546875 C 11.828125 23.296875 11.796875 23.503906 11.796875 24.035156 Z M 11.796875 24.035156 " fill-opacity="1" fill-rule="nonzero"/></g><path fill="#ffffff" d="M 12.535156 27.085938 C 12.832031 27.117188 13.332031 27.117188 13.640625 27.085938 C 13.9375 27.058594 13.6875 27.027344 13.082031 27.027344 C 12.476562 27.027344 12.226562 27.058594 12.535156 27.085938 Z M 12.535156 27.085938 " fill-opacity="1" fill-rule="nonzero"/><g clip-path="url(#2fa3e9483a)"><path fill="#ffffff" d="M 15.472656 29.152344 L 15.441406 30.65625 L 13.714844 30.714844 L 11.976562 30.757812 L 13.714844 30.789062 L 15.441406 30.816406 L 15.441406 32.574219 L 13.714844 32.632812 L 11.976562 32.675781 L 13.714844 32.707031 L 15.441406 32.734375 L 15.441406 36.261719 L 13.789062 36.320312 L 12.125 36.363281 L 13.773438 36.394531 L 15.425781 36.421875 L 15.484375 37.261719 L 15.53125 38.117188 L 15.558594 37.261719 L 15.589844 36.421875 L 17.34375 36.421875 L 17.402344 37.261719 C 17.433594 37.734375 17.460938 36.910156 17.476562 35.417969 L 17.507812 32.734375 L 21.046875 32.734375 L 21.046875 36.261719 L 19.320312 36.320312 L 17.578125 36.363281 L 19.304688 36.394531 L 21.03125 36.421875 L 21.089844 37.261719 L 21.132812 38.117188 L 21.164062 37.261719 L 21.195312 36.421875 L 22.949219 36.421875 L 23.007812 37.261719 C 23.035156 37.734375 23.066406 36.910156 23.082031 35.433594 L 23.109375 32.75 L 24.628906 32.691406 L 26.132812 32.648438 L 23.125 32.585938 L 23.066406 31.878906 L 23.023438 31.1875 L 22.992188 31.878906 L 22.964844 32.585938 L 21.195312 32.585938 L 21.195312 31.71875 C 21.195312 30.875 21.207031 30.832031 21.605469 30.773438 C 21.828125 30.742188 21 30.699219 19.761719 30.683594 L 17.519531 30.671875 L 17.460938 29.667969 L 17.417969 28.679688 L 17.386719 29.667969 L 17.359375 30.671875 L 15.605469 30.671875 L 15.542969 29.152344 L 15.5 27.648438 Z M 17.359375 31.703125 L 17.359375 32.585938 L 15.589844 32.585938 L 15.589844 30.816406 L 17.359375 30.816406 Z M 21.046875 31.703125 L 21.046875 32.585938 L 17.507812 32.585938 L 17.507812 30.816406 L 21.046875 30.816406 Z M 17.359375 34.503906 L 17.359375 36.273438 L 15.589844 36.273438 L 15.589844 32.734375 L 17.359375 32.734375 Z M 22.964844 34.503906 L 22.964844 36.273438 L 21.195312 36.273438 L 21.195312 32.734375 L 22.964844 32.734375 Z M 22.964844 34.503906 " fill-opacity="1" fill-rule="nonzero"/></g><g clip-path="url(#773fa150ee)"><path fill="#ffffff" d="M 11.8125 34.503906 C 11.8125 35.433594 11.828125 35.816406 11.859375 35.34375 C 11.886719 34.886719 11.886719 34.121094 11.859375 33.648438 C 11.828125 33.191406 11.8125 33.574219 11.8125 34.503906 Z M 11.8125 34.503906 " fill-opacity="1" fill-rule="nonzero"/></g><path fill="#ffffff" d="M 24.941406 34.503906 C 24.941406 35.433594 24.953125 35.816406 24.984375 35.34375 C 25.011719 34.886719 25.011719 34.121094 24.984375 33.648438 C 24.953125 33.191406 24.941406 33.574219 24.941406 34.503906 Z M 24.941406 34.503906 " fill-opacity="1" fill-rule="nonzero"/><path fill="#ffffff" d="M 28.566406 35.09375 L 28.566406 36.273438 L 25.882812 36.304688 C 24.394531 36.320312 23.566406 36.347656 24.023438 36.378906 L 24.867188 36.4375 L 24.925781 37.128906 L 24.96875 37.824219 L 25 37.117188 L 25.027344 36.421875 L 28.554688 36.421875 L 28.613281 37.261719 C 28.640625 37.734375 28.671875 37.175781 28.6875 36.007812 C 28.699219 34.859375 28.6875 33.914062 28.640625 33.914062 C 28.597656 33.914062 28.566406 34.445312 28.566406 35.09375 Z M 28.566406 35.09375 " fill-opacity="1" fill-rule="nonzero"/><path fill="#ffffff" d="M 41.753906 36.199219 C 41.753906 37.261719 41.769531 37.660156 41.796875 37.117188 C 41.828125 36.570312 41.828125 35.699219 41.796875 35.199219 C 41.769531 34.695312 41.753906 35.140625 41.753906 36.199219 Z M 41.753906 36.199219 " fill-opacity="1" fill-rule="nonzero"/><path fill="#ffffff" d="M 30.542969 36.496094 C 30.542969 37.394531 30.558594 37.734375 30.589844 37.261719 C 30.617188 36.789062 30.617188 36.066406 30.589844 35.640625 C 30.558594 35.210938 30.542969 35.597656 30.542969 36.496094 Z M 30.542969 36.496094 " fill-opacity="1" fill-rule="nonzero"/><path fill="#ffffff" d="M 31.488281 36.378906 C 31.914062 36.40625 32.578125 36.40625 32.964844 36.378906 C 33.347656 36.347656 32.992188 36.332031 32.179688 36.332031 C 31.371094 36.332031 31.058594 36.347656 31.488281 36.378906 Z M 31.488281 36.378906 " fill-opacity="1" fill-rule="nonzero"/><path fill="#ffffff" d="M 34.214844 37.160156 C 34.214844 37.691406 34.246094 37.898438 34.277344 37.632812 C 34.304688 37.382812 34.304688 36.9375 34.277344 36.671875 C 34.246094 36.421875 34.214844 36.628906 34.214844 37.160156 Z M 34.214844 37.160156 " fill-opacity="1" fill-rule="nonzero"/><g fill="#ffffff" fill-opacity="1"><g transform="translate(68.413702, 25.480021)"><g><path d="M 0.828125 0 L 0.828125 -3.46875 L 0.171875 -3.46875 L 0.171875 -4.140625 L 0.828125 -4.140625 C 0.773438 -4.316406 0.75 -4.484375 0.75 -4.640625 C 0.75 -4.898438 0.804688 -5.125 0.921875 -5.3125 C 1.046875 -5.5 1.210938 -5.640625 1.421875 -5.734375 C 1.640625 -5.828125 1.894531 -5.875 2.1875 -5.875 C 2.613281 -5.875 2.941406 -5.789062 3.171875 -5.625 L 2.921875 -5.015625 L 2.84375 -5.015625 C 2.6875 -5.128906 2.484375 -5.1875 2.234375 -5.1875 C 2.015625 -5.1875 1.847656 -5.128906 1.734375 -5.015625 C 1.628906 -4.910156 1.578125 -4.765625 1.578125 -4.578125 C 1.578125 -4.429688 1.597656 -4.285156 1.640625 -4.140625 L 2.890625 -4.140625 L 2.890625 -3.46875 L 1.640625 -3.46875 L 1.640625 0 Z M 0.828125 0 "/></g></g></g><g fill="#ffffff" fill-opacity="1"><g transform="translate(71.369253, 25.480021)"><g><path d="M 1.078125 -4.78125 C 0.910156 -4.78125 0.773438 -4.828125 0.671875 -4.921875 C 0.578125 -5.023438 0.53125 -5.148438 0.53125 -5.296875 C 0.53125 -5.453125 0.578125 -5.578125 0.671875 -5.671875 C 0.773438 -5.765625 0.910156 -5.8125 1.078125 -5.8125 C 1.234375 -5.8125 1.359375 -5.765625 1.453125 -5.671875 C 1.554688 -5.578125 1.609375 -5.453125 1.609375 -5.296875 C 1.609375 -5.148438 1.554688 -5.023438 1.453125 -4.921875 C 1.359375 -4.828125 1.234375 -4.78125 1.078125 -4.78125 Z M 0.65625 0 L 0.65625 -4.125 L 1.484375 -4.125 L 1.484375 0 Z M 0.65625 0 "/></g></g></g><g fill="#ffffff" fill-opacity="1"><g transform="translate(73.502783, 25.480021)"><g><path d="M 0.65625 0 L 0.65625 -4.125 L 1.453125 -4.125 L 1.453125 -3.5 L 1.53125 -3.484375 C 1.65625 -3.722656 1.820312 -3.898438 2.03125 -4.015625 C 2.25 -4.140625 2.507812 -4.203125 2.8125 -4.203125 C 3.289062 -4.203125 3.640625 -4.070312 3.859375 -3.8125 C 4.085938 -3.5625 4.203125 -3.179688 4.203125 -2.671875 L 4.203125 0 L 3.375 0 L 3.375 -2.609375 C 3.375 -2.929688 3.3125 -3.160156 3.1875 -3.296875 C 3.0625 -3.429688 2.859375 -3.5 2.578125 -3.5 C 2.242188 -3.5 1.976562 -3.390625 1.78125 -3.171875 C 1.582031 -2.953125 1.484375 -2.601562 1.484375 -2.125 L 1.484375 0 Z M 0.65625 0 "/></g></g></g><g fill="#ffffff" fill-opacity="1"><g transform="translate(78.289203, 25.480021)"><g><path d="M 2.09375 0.078125 C 1.757812 0.078125 1.46875 0 1.21875 -0.15625 C 0.96875 -0.3125 0.769531 -0.550781 0.625 -0.875 C 0.476562 -1.195312 0.40625 -1.59375 0.40625 -2.0625 C 0.40625 -2.53125 0.476562 -2.925781 0.625 -3.25 C 0.78125 -3.570312 0.988281 -3.8125 1.25 -3.96875 C 1.507812 -4.125 1.8125 -4.203125 2.15625 -4.203125 C 2.425781 -4.203125 2.660156 -4.15625 2.859375 -4.0625 C 3.066406 -3.96875 3.238281 -3.816406 3.375 -3.609375 L 3.46875 -3.625 L 3.46875 -5.796875 L 4.28125 -5.796875 L 4.28125 0 L 3.46875 0 L 3.46875 -0.5625 L 3.375 -0.578125 C 3.25 -0.378906 3.078125 -0.21875 2.859375 -0.09375 C 2.648438 0.0195312 2.394531 0.078125 2.09375 0.078125 Z M 2.359375 -0.640625 C 2.691406 -0.640625 2.957031 -0.753906 3.15625 -0.984375 C 3.363281 -1.222656 3.46875 -1.582031 3.46875 -2.0625 C 3.46875 -2.550781 3.363281 -2.910156 3.15625 -3.140625 C 2.957031 -3.378906 2.691406 -3.5 2.359375 -3.5 C 1.628906 -3.5 1.265625 -3.019531 1.265625 -2.0625 C 1.265625 -1.113281 1.628906 -0.640625 2.359375 -0.640625 Z M 2.359375 -0.640625 "/></g></g></g><g fill="#ffffff" fill-opacity="1"><g transform="translate(83.221337, 25.480021)"><g/></g></g><g fill="#ffffff" fill-opacity="1"><g transform="translate(85.063422, 25.480021)"><g><path d="M 0.875 1.75 C 0.71875 1.75 0.570312 1.734375 0.4375 1.703125 C 0.300781 1.679688 0.191406 1.648438 0.109375 1.609375 L 0.25 0.953125 L 0.3125 0.921875 C 0.375 0.953125 0.445312 0.976562 0.53125 1 C 0.625 1.019531 0.722656 1.03125 0.828125 1.03125 C 0.992188 1.03125 1.128906 1.007812 1.234375 0.96875 C 1.347656 0.925781 1.441406 0.851562 1.515625 0.75 C 1.597656 0.644531 1.671875 0.503906 1.734375 0.328125 L 1.8125 0.125 L 0.15625 -4.125 L 1.015625 -4.125 L 2.1875 -1.015625 L 2.265625 -1.015625 L 3.390625 -4.125 L 4.234375 -4.125 L 2.484375 0.453125 C 2.367188 0.765625 2.238281 1.015625 2.09375 1.203125 C 1.945312 1.390625 1.773438 1.523438 1.578125 1.609375 C 1.378906 1.703125 1.144531 1.75 0.875 1.75 Z M 0.875 1.75 "/></g></g></g><g fill="#ffffff" fill-opacity="1"><g transform="translate(89.450032, 25.480021)"><g><path d="M 2.390625 0.078125 C 1.992188 0.078125 1.644531 -0.00390625 1.34375 -0.171875 C 1.050781 -0.335938 0.820312 -0.578125 0.65625 -0.890625 C 0.488281 -1.210938 0.40625 -1.601562 0.40625 -2.0625 C 0.40625 -2.519531 0.488281 -2.910156 0.65625 -3.234375 C 0.820312 -3.554688 1.050781 -3.796875 1.34375 -3.953125 C 1.644531 -4.117188 1.992188 -4.203125 2.390625 -4.203125 C 2.785156 -4.203125 3.128906 -4.117188 3.421875 -3.953125 C 3.722656 -3.796875 3.953125 -3.554688 4.109375 -3.234375 C 4.273438 -2.910156 4.359375 -2.519531 4.359375 -2.0625 C 4.359375 -1.601562 4.273438 -1.210938 4.109375 -0.890625 C 3.953125 -0.578125 3.722656 -0.335938 3.421875 -0.171875 C 3.128906 -0.00390625 2.785156 0.078125 2.390625 0.078125 Z M 2.390625 -0.640625 C 3.128906 -0.640625 3.5 -1.113281 3.5 -2.0625 C 3.5 -3.019531 3.128906 -3.5 2.390625 -3.5 C 2.023438 -3.5 1.742188 -3.378906 1.546875 -3.140625 C 1.359375 -2.910156 1.265625 -2.550781 1.265625 -2.0625 C 1.265625 -1.113281 1.640625 -0.640625 2.390625 -0.640625 Z M 2.390625 -0.640625 "/></g></g></g><g fill="#ffffff" fill-opacity="1"><g transform="translate(94.210289, 25.480021)"><g><path d="M 1.96875 0.078125 C 1.5 0.078125 1.148438 -0.046875 0.921875 -0.296875 C 0.703125 -0.546875 0.59375 -0.910156 0.59375 -1.390625 L 0.59375 -4.125 L 1.421875 -4.125 L 1.421875 -1.46875 C 1.421875 -1.175781 1.484375 -0.960938 1.609375 -0.828125 C 1.742188 -0.691406 1.9375 -0.625 2.1875 -0.625 C 2.519531 -0.625 2.78125 -0.734375 2.96875 -0.953125 C 3.15625 -1.171875 3.25 -1.519531 3.25 -2 L 3.25 -4.125 L 4.078125 -4.125 L 4.078125 0 L 3.296875 0 L 3.296875 -0.625 L 3.21875 -0.640625 C 3.082031 -0.398438 2.914062 -0.21875 2.71875 -0.09375 C 2.519531 0.0195312 2.269531 0.078125 1.96875 0.078125 Z M 1.96875 0.078125 "/></g></g></g><g fill="#ffffff" fill-opacity="1"><g transform="translate(98.936925, 25.480021)"><g><path d="M 0.65625 0 L 0.65625 -4.125 L 1.453125 -4.125 L 1.453125 -3.5 L 1.53125 -3.484375 C 1.632812 -3.722656 1.769531 -3.894531 1.9375 -4 C 2.113281 -4.113281 2.320312 -4.171875 2.5625 -4.171875 C 2.820312 -4.171875 3.019531 -4.125 3.15625 -4.03125 L 2.984375 -3.328125 L 2.90625 -3.3125 C 2.832031 -3.34375 2.757812 -3.363281 2.6875 -3.375 C 2.613281 -3.394531 2.53125 -3.40625 2.4375 -3.40625 C 2.132812 -3.40625 1.898438 -3.289062 1.734375 -3.0625 C 1.566406 -2.84375 1.484375 -2.484375 1.484375 -1.984375 L 1.484375 0 Z M 0.65625 0 "/></g></g></g><g fill="#ffffff" fill-opacity="1"><g transform="translate(68.429545, 34.085703)"><g><path d="M 0.65625 1.671875 L 0.65625 -4.125 L 1.484375 -4.125 L 1.484375 -3.5625 L 1.5625 -3.546875 C 1.695312 -3.765625 1.875 -3.925781 2.09375 -4.03125 C 2.3125 -4.144531 2.5625 -4.203125 2.84375 -4.203125 C 3.1875 -4.203125 3.484375 -4.125 3.734375 -3.96875 C 3.984375 -3.8125 4.175781 -3.570312 4.3125 -3.25 C 4.457031 -2.9375 4.53125 -2.539062 4.53125 -2.0625 C 4.53125 -1.59375 4.453125 -1.195312 4.296875 -0.875 C 4.148438 -0.550781 3.945312 -0.3125 3.6875 -0.15625 C 3.425781 0 3.125 0.078125 2.78125 0.078125 C 2.519531 0.078125 2.285156 0.03125 2.078125 -0.0625 C 1.878906 -0.15625 1.707031 -0.300781 1.5625 -0.5 L 1.484375 -0.484375 L 1.484375 1.671875 Z M 2.578125 -0.640625 C 2.929688 -0.640625 3.203125 -0.753906 3.390625 -0.984375 C 3.578125 -1.210938 3.671875 -1.570312 3.671875 -2.0625 C 3.671875 -2.5625 3.578125 -2.925781 3.390625 -3.15625 C 3.203125 -3.382812 2.929688 -3.5 2.578125 -3.5 C 2.242188 -3.5 1.972656 -3.378906 1.765625 -3.140625 C 1.566406 -2.898438 1.46875 -2.539062 1.46875 -2.0625 C 1.46875 -1.582031 1.566406 -1.222656 1.765625 -0.984375 C 1.972656 -0.753906 2.242188 -0.640625 2.578125 -0.640625 Z M 2.578125 -0.640625 "/></g></g></g><g fill="#ffffff" fill-opacity="1"><g transform="translate(73.35795, 34.085703)"><g><path d="M 4.015625 -1.875 L 1.265625 -1.875 C 1.304688 -1.050781 1.691406 -0.640625 2.421875 -0.640625 C 2.679688 -0.640625 2.894531 -0.6875 3.0625 -0.78125 C 3.226562 -0.875 3.359375 -1.023438 3.453125 -1.234375 L 3.53125 -1.234375 L 4.078125 -0.890625 C 3.941406 -0.597656 3.738281 -0.363281 3.46875 -0.1875 C 3.207031 -0.0078125 2.859375 0.078125 2.421875 0.078125 C 2.003906 0.078125 1.644531 0 1.34375 -0.15625 C 1.050781 -0.320312 0.820312 -0.5625 0.65625 -0.875 C 0.488281 -1.195312 0.40625 -1.59375 0.40625 -2.0625 C 0.40625 -2.53125 0.488281 -2.925781 0.65625 -3.25 C 0.832031 -3.570312 1.066406 -3.8125 1.359375 -3.96875 C 1.660156 -4.125 1.992188 -4.203125 2.359375 -4.203125 C 2.921875 -4.203125 3.351562 -4.050781 3.65625 -3.75 C 3.957031 -3.445312 4.109375 -3 4.109375 -2.40625 C 4.109375 -2.1875 4.101562 -2.023438 4.09375 -1.921875 Z M 3.3125 -2.46875 C 3.300781 -2.84375 3.210938 -3.113281 3.046875 -3.28125 C 2.890625 -3.457031 2.660156 -3.546875 2.359375 -3.546875 C 2.054688 -3.546875 1.8125 -3.457031 1.625 -3.28125 C 1.445312 -3.113281 1.332031 -2.84375 1.28125 -2.46875 Z M 3.3125 -2.46875 "/></g></g></g><g fill="#ffffff" fill-opacity="1"><g transform="translate(77.796871, 34.085703)"><g><path d="M 0.65625 0 L 0.65625 -4.125 L 1.453125 -4.125 L 1.453125 -3.5 L 1.53125 -3.484375 C 1.632812 -3.722656 1.769531 -3.894531 1.9375 -4 C 2.113281 -4.113281 2.320312 -4.171875 2.5625 -4.171875 C 2.820312 -4.171875 3.019531 -4.125 3.15625 -4.03125 L 2.984375 -3.328125 L 2.90625 -3.3125 C 2.832031 -3.34375 2.757812 -3.363281 2.6875 -3.375 C 2.613281 -3.394531 2.53125 -3.40625 2.4375 -3.40625 C 2.132812 -3.40625 1.898438 -3.289062 1.734375 -3.0625 C 1.566406 -2.84375 1.484375 -2.484375 1.484375 -1.984375 L 1.484375 0 Z M 0.65625 0 "/></g></g></g><g fill="#ffffff" fill-opacity="1"><g transform="translate(81.006502, 34.085703)"><g><path d="M 0.828125 0 L 0.828125 -3.46875 L 0.171875 -3.46875 L 0.171875 -4.140625 L 0.828125 -4.140625 C 0.773438 -4.316406 0.75 -4.484375 0.75 -4.640625 C 0.75 -4.898438 0.804688 -5.125 0.921875 -5.3125 C 1.046875 -5.5 1.210938 -5.640625 1.421875 -5.734375 C 1.640625 -5.828125 1.894531 -5.875 2.1875 -5.875 C 2.613281 -5.875 2.941406 -5.789062 3.171875 -5.625 L 2.921875 -5.015625 L 2.84375 -5.015625 C 2.6875 -5.128906 2.484375 -5.1875 2.234375 -5.1875 C 2.015625 -5.1875 1.847656 -5.128906 1.734375 -5.015625 C 1.628906 -4.910156 1.578125 -4.765625 1.578125 -4.578125 C 1.578125 -4.429688 1.597656 -4.285156 1.640625 -4.140625 L 2.890625 -4.140625 L 2.890625 -3.46875 L 1.640625 -3.46875 L 1.640625 0 Z M 0.828125 0 "/></g></g></g><g fill="#ffffff" fill-opacity="1"><g transform="translate(83.962054, 34.085703)"><g><path d="M 4.015625 -1.875 L 1.265625 -1.875 C 1.304688 -1.050781 1.691406 -0.640625 2.421875 -0.640625 C 2.679688 -0.640625 2.894531 -0.6875 3.0625 -0.78125 C 3.226562 -0.875 3.359375 -1.023438 3.453125 -1.234375 L 3.53125 -1.234375 L 4.078125 -0.890625 C 3.941406 -0.597656 3.738281 -0.363281 3.46875 -0.1875 C 3.207031 -0.0078125 2.859375 0.078125 2.421875 0.078125 C 2.003906 0.078125 1.644531 0 1.34375 -0.15625 C 1.050781 -0.320312 0.820312 -0.5625 0.65625 -0.875 C 0.488281 -1.195312 0.40625 -1.59375 0.40625 -2.0625 C 0.40625 -2.53125 0.488281 -2.925781 0.65625 -3.25 C 0.832031 -3.570312 1.066406 -3.8125 1.359375 -3.96875 C 1.660156 -4.125 1.992188 -4.203125 2.359375 -4.203125 C 2.921875 -4.203125 3.351562 -4.050781 3.65625 -3.75 C 3.957031 -3.445312 4.109375 -3 4.109375 -2.40625 C 4.109375 -2.1875 4.101562 -2.023438 4.09375 -1.921875 Z M 3.3125 -2.46875 C 3.300781 -2.84375 3.210938 -3.113281 3.046875 -3.28125 C 2.890625 -3.457031 2.660156 -3.546875 2.359375 -3.546875 C 2.054688 -3.546875 1.8125 -3.457031 1.625 -3.28125 C 1.445312 -3.113281 1.332031 -2.84375 1.28125 -2.46875 Z M 3.3125 -2.46875 "/></g></g></g><g fill="#ffffff" fill-opacity="1"><g transform="translate(88.400975, 34.085703)"><g><path d="M 2.390625 0.078125 C 2.003906 0.078125 1.660156 -0.00390625 1.359375 -0.171875 C 1.066406 -0.335938 0.832031 -0.582031 0.65625 -0.90625 C 0.488281 -1.226562 0.40625 -1.613281 0.40625 -2.0625 C 0.40625 -2.507812 0.488281 -2.894531 0.65625 -3.21875 C 0.832031 -3.550781 1.066406 -3.796875 1.359375 -3.953125 C 1.660156 -4.117188 2 -4.203125 2.375 -4.203125 C 2.820312 -4.203125 3.175781 -4.117188 3.4375 -3.953125 C 3.707031 -3.796875 3.898438 -3.570312 4.015625 -3.28125 L 3.453125 -2.875 L 3.375 -2.875 C 3.28125 -3.09375 3.15625 -3.25 3 -3.34375 C 2.84375 -3.445312 2.632812 -3.5 2.375 -3.5 C 2.03125 -3.5 1.757812 -3.378906 1.5625 -3.140625 C 1.363281 -2.898438 1.265625 -2.539062 1.265625 -2.0625 C 1.265625 -1.59375 1.363281 -1.238281 1.5625 -1 C 1.769531 -0.757812 2.046875 -0.640625 2.390625 -0.640625 C 2.898438 -0.640625 3.242188 -0.890625 3.421875 -1.390625 L 3.5 -1.390625 L 4.078125 -1.078125 C 3.960938 -0.722656 3.765625 -0.441406 3.484375 -0.234375 C 3.210938 -0.0234375 2.847656 0.078125 2.390625 0.078125 Z M 2.390625 0.078125 "/></g></g></g><g fill="#ffffff" fill-opacity="1"><g transform="translate(92.649344, 34.085703)"><g><path d="M 2.828125 -0.828125 L 3.0625 -0.21875 C 2.957031 -0.125 2.820312 -0.0507812 2.65625 0 C 2.488281 0.0507812 2.304688 0.078125 2.109375 0.078125 C 1.691406 0.078125 1.375 -0.03125 1.15625 -0.25 C 0.9375 -0.46875 0.828125 -0.796875 0.828125 -1.234375 L 0.828125 -3.46875 L 0.15625 -3.46875 L 0.15625 -4.140625 L 0.828125 -4.140625 L 0.828125 -4.96875 L 1.65625 -5.109375 L 1.65625 -4.140625 L 2.90625 -4.140625 L 2.90625 -3.46875 L 1.65625 -3.46875 L 1.65625 -1.296875 C 1.65625 -1.066406 1.703125 -0.898438 1.796875 -0.796875 C 1.890625 -0.703125 2.03125 -0.65625 2.21875 -0.65625 C 2.414062 -0.65625 2.59375 -0.710938 2.75 -0.828125 Z M 2.828125 -0.828125 "/></g></g></g><g fill="#ffffff" fill-opacity="1"><g transform="translate(95.82161, 34.085703)"><g/></g></g><g fill="#ffffff" fill-opacity="1"><g transform="translate(97.663696, 34.085703)"><g><path d="M 0.828125 0 L 0.828125 -3.46875 L 0.171875 -3.46875 L 0.171875 -4.140625 L 0.828125 -4.140625 C 0.773438 -4.316406 0.75 -4.484375 0.75 -4.640625 C 0.75 -4.898438 0.804688 -5.125 0.921875 -5.3125 C 1.046875 -5.5 1.210938 -5.640625 1.421875 -5.734375 C 1.640625 -5.828125 1.894531 -5.875 2.1875 -5.875 C 2.613281 -5.875 2.941406 -5.789062 3.171875 -5.625 L 2.921875 -5.015625 L 2.84375 -5.015625 C 2.6875 -5.128906 2.484375 -5.1875 2.234375 -5.1875 C 2.015625 -5.1875 1.847656 -5.128906 1.734375 -5.015625 C 1.628906 -4.910156 1.578125 -4.765625 1.578125 -4.578125 C 1.578125 -4.429688 1.597656 -4.285156 1.640625 -4.140625 L 2.890625 -4.140625 L 2.890625 -3.46875 L 1.640625 -3.46875 L 1.640625 0 Z M 0.828125 0 "/></g></g></g><g fill="#ffffff" fill-opacity="1"><g transform="translate(100.619247, 34.085703)"><g><path d="M 1.078125 -4.78125 C 0.910156 -4.78125 0.773438 -4.828125 0.671875 -4.921875 C 0.578125 -5.023438 0.53125 -5.148438 0.53125 -5.296875 C 0.53125 -5.453125 0.578125 -5.578125 0.671875 -5.671875 C 0.773438 -5.765625 0.910156 -5.8125 1.078125 -5.8125 C 1.234375 -5.8125 1.359375 -5.765625 1.453125 -5.671875 C 1.554688 -5.578125 1.609375 -5.453125 1.609375 -5.296875 C 1.609375 -5.148438 1.554688 -5.023438 1.453125 -4.921875 C 1.359375 -4.828125 1.234375 -4.78125 1.078125 -4.78125 Z M 0.65625 0 L 0.65625 -4.125 L 1.484375 -4.125 L 1.484375 0 Z M 0.65625 0 "/></g></g></g><g fill="#ffffff" fill-opacity="1"><g transform="translate(102.752777, 34.085703)"><g><path d="M 2.828125 -0.828125 L 3.0625 -0.21875 C 2.957031 -0.125 2.820312 -0.0507812 2.65625 0 C 2.488281 0.0507812 2.304688 0.078125 2.109375 0.078125 C 1.691406 0.078125 1.375 -0.03125 1.15625 -0.25 C 0.9375 -0.46875 0.828125 -0.796875 0.828125 -1.234375 L 0.828125 -3.46875 L 0.15625 -3.46875 L 0.15625 -4.140625 L 0.828125 -4.140625 L 0.828125 -4.96875 L 1.65625 -5.109375 L 1.65625 -4.140625 L 2.90625 -4.140625 L 2.90625 -3.46875 L 1.65625 -3.46875 L 1.65625 -1.296875 C 1.65625 -1.066406 1.703125 -0.898438 1.796875 -0.796875 C 1.890625 -0.703125 2.03125 -0.65625 2.21875 -0.65625 C 2.414062 -0.65625 2.59375 -0.710938 2.75 -0.828125 Z M 2.828125 -0.828125 "/></g></g></g></svg>