<svg xmlns="http://www.w3.org/2000/svg" xmlns:xlink="http://www.w3.org/1999/xlink" width="100" zoomAndPan="magnify" viewBox="0 0 75 37.5" height="50" preserveAspectRatio="xMidYMid meet" version="1.0"><defs><g/><clipPath id="405ede15ed"><path d="M 0.492188 0 L 74.503906 0 L 74.503906 37.007812 L 0.492188 37.007812 Z M 0.492188 0 " clip-rule="nonzero"/></clipPath><clipPath id="76dcc7320a"><path d="M 8 1.765625 L 37.605469 1.765625 L 37.605469 13 L 8 13 Z M 8 1.765625 " clip-rule="nonzero"/></clipPath><clipPath id="fcd5daad1f"><path d="M 28 10 L 37.605469 10 L 37.605469 25.449219 L 28 25.449219 Z M 28 10 " clip-rule="nonzero"/></clipPath><clipPath id="7572aacc13"><path d="M 8 18 L 18 18 L 18 25.449219 L 8 25.449219 Z M 8 18 " clip-rule="nonzero"/></clipPath><clipPath id="c2dd364f77"><path d="M 16 22 L 20 22 L 20 25.449219 L 16 25.449219 Z M 16 22 " clip-rule="nonzero"/></clipPath><clipPath id="bba6aa2423"><path d="M 20 23 L 21 23 L 21 25.449219 L 20 25.449219 Z M 20 23 " clip-rule="nonzero"/></clipPath><clipPath id="0cf2fe51fe"><path d="M 23 24 L 24 24 L 24 25.449219 L 23 25.449219 Z M 23 24 " clip-rule="nonzero"/></clipPath></defs><g clip-path="url(#405ede15ed)"><path fill="#ffffff" d="M 0.492188 0 L 74.507812 0 L 74.507812 37.007812 L 0.492188 37.007812 Z M 0.492188 0 " fill-opacity="1" fill-rule="nonzero"/><path fill="#ffffff" d="M 0.492188 0 L 74.507812 0 L 74.507812 37.007812 L 0.492188 37.007812 Z M 0.492188 0 " fill-opacity="1" fill-rule="nonzero"/></g><g fill="#000000" fill-opacity="1"><g transform="translate(10.84176, 32.883408)"><g><path d="M 1.015625 0 L 1.015625 -6.65625 L 1.734375 -6.65625 L 1.734375 -0.609375 L 3.609375 -0.609375 L 3.609375 0 Z M 1.015625 0 "/></g></g></g><g fill="#000000" fill-opacity="1"><g transform="translate(14.656441, 32.883408)"><g><path d="M 4.203125 0 L 3.890625 0 L 3.625 -0.65625 C 3.476562 -0.40625 3.289062 -0.207031 3.0625 -0.0625 C 2.832031 0.0820312 2.578125 0.15625 2.296875 0.15625 C 1.304688 0.15625 0.8125 -0.320312 0.8125 -1.28125 L 0.8125 -2.296875 C 0.8125 -3.253906 1.304688 -3.734375 2.296875 -3.734375 L 3.484375 -3.734375 L 3.484375 -5.40625 C 3.484375 -5.65625 3.40625 -5.847656 3.25 -5.984375 C 3.09375 -6.117188 2.859375 -6.1875 2.546875 -6.1875 C 1.941406 -6.1875 1.640625 -5.925781 1.640625 -5.40625 L 1.640625 -4.8125 L 0.921875 -4.8125 L 0.921875 -5.375 C 0.921875 -5.832031 1.054688 -6.1875 1.328125 -6.4375 C 1.597656 -6.6875 2.003906 -6.8125 2.546875 -6.8125 C 3.085938 -6.8125 3.5 -6.6875 3.78125 -6.4375 C 4.0625 -6.1875 4.203125 -5.832031 4.203125 -5.375 Z M 3.484375 -3.125 L 2.296875 -3.125 C 2.003906 -3.125 1.800781 -3.050781 1.6875 -2.90625 C 1.582031 -2.757812 1.53125 -2.554688 1.53125 -2.296875 L 1.53125 -1.28125 C 1.53125 -1.019531 1.582031 -0.816406 1.6875 -0.671875 C 1.800781 -0.523438 2 -0.453125 2.28125 -0.453125 C 2.570312 -0.453125 2.835938 -0.5625 3.078125 -0.78125 C 3.328125 -1.007812 3.460938 -1.234375 3.484375 -1.453125 Z M 3.484375 -3.125 "/></g></g></g><g fill="#000000" fill-opacity="1"><g transform="translate(19.769948, 32.883408)"><g><path d="M 4.203125 0 L 3.890625 0 L 3.625 -0.65625 C 3.476562 -0.40625 3.289062 -0.207031 3.0625 -0.0625 C 2.832031 0.0820312 2.578125 0.15625 2.296875 0.15625 C 1.304688 0.15625 0.8125 -0.320312 0.8125 -1.28125 L 0.8125 -2.296875 C 0.8125 -3.253906 1.304688 -3.734375 2.296875 -3.734375 L 3.484375 -3.734375 L 3.484375 -5.40625 C 3.484375 -5.65625 3.40625 -5.847656 3.25 -5.984375 C 3.09375 -6.117188 2.859375 -6.1875 2.546875 -6.1875 C 1.941406 -6.1875 1.640625 -5.925781 1.640625 -5.40625 L 1.640625 -4.8125 L 0.921875 -4.8125 L 0.921875 -5.375 C 0.921875 -5.832031 1.054688 -6.1875 1.328125 -6.4375 C 1.597656 -6.6875 2.003906 -6.8125 2.546875 -6.8125 C 3.085938 -6.8125 3.5 -6.6875 3.78125 -6.4375 C 4.0625 -6.1875 4.203125 -5.832031 4.203125 -5.375 Z M 3.484375 -3.125 L 2.296875 -3.125 C 2.003906 -3.125 1.800781 -3.050781 1.6875 -2.90625 C 1.582031 -2.757812 1.53125 -2.554688 1.53125 -2.296875 L 1.53125 -1.28125 C 1.53125 -1.019531 1.582031 -0.816406 1.6875 -0.671875 C 1.800781 -0.523438 2 -0.453125 2.28125 -0.453125 C 2.570312 -0.453125 2.835938 -0.5625 3.078125 -0.78125 C 3.328125 -1.007812 3.460938 -1.234375 3.484375 -1.453125 Z M 3.484375 -3.125 "/></g></g></g><g fill="#000000" fill-opacity="1"><g transform="translate(24.883455, 32.883408)"><g><path d="M 1.75 0 L 1.03125 0 L 1.03125 -6.65625 L 1.75 -6.65625 L 1.75 -3.828125 L 3.53125 -6.65625 L 4.328125 -6.65625 L 2.515625 -3.78125 L 4.453125 0 L 3.65625 0 L 2.09375 -3.09375 L 1.75 -2.5625 Z M 1.75 0 "/></g></g></g><g fill="#000000" fill-opacity="1"><g transform="translate(29.536747, 32.883408)"><g><path d="M 4.203125 0 L 3.890625 0 L 3.625 -0.65625 C 3.476562 -0.40625 3.289062 -0.207031 3.0625 -0.0625 C 2.832031 0.0820312 2.578125 0.15625 2.296875 0.15625 C 1.304688 0.15625 0.8125 -0.320312 0.8125 -1.28125 L 0.8125 -2.296875 C 0.8125 -3.253906 1.304688 -3.734375 2.296875 -3.734375 L 3.484375 -3.734375 L 3.484375 -5.40625 C 3.484375 -5.65625 3.40625 -5.847656 3.25 -5.984375 C 3.09375 -6.117188 2.859375 -6.1875 2.546875 -6.1875 C 1.941406 -6.1875 1.640625 -5.925781 1.640625 -5.40625 L 1.640625 -4.8125 L 0.921875 -4.8125 L 0.921875 -5.375 C 0.921875 -5.832031 1.054688 -6.1875 1.328125 -6.4375 C 1.597656 -6.6875 2.003906 -6.8125 2.546875 -6.8125 C 3.085938 -6.8125 3.5 -6.6875 3.78125 -6.4375 C 4.0625 -6.1875 4.203125 -5.832031 4.203125 -5.375 Z M 3.484375 -3.125 L 2.296875 -3.125 C 2.003906 -3.125 1.800781 -3.050781 1.6875 -2.90625 C 1.582031 -2.757812 1.53125 -2.554688 1.53125 -2.296875 L 1.53125 -1.28125 C 1.53125 -1.019531 1.582031 -0.816406 1.6875 -0.671875 C 1.800781 -0.523438 2 -0.453125 2.28125 -0.453125 C 2.570312 -0.453125 2.835938 -0.5625 3.078125 -0.78125 C 3.328125 -1.007812 3.460938 -1.234375 3.484375 -1.453125 Z M 3.484375 -3.125 "/></g></g></g><path stroke-linecap="butt" transform="matrix(0, 0.740132, -0.740132, 0, 43.180988, 1.765494)" fill="none" stroke-linejoin="miter" d="M 0.00017653 0.497868 L 45.848234 0.497868 " stroke="#000000" stroke-width="1" stroke-opacity="1" stroke-miterlimit="4"/><g clip-path="url(#76dcc7320a)"><path fill="#000000" d="M 9.3125 1.832031 L 10.46875 1.871094 L 10.46875 4.222656 L 9.3125 4.261719 L 8.148438 4.289062 L 9.3125 4.308594 L 10.46875 4.332031 L 10.46875 5.503906 L 9.304688 5.542969 L 8.148438 5.574219 L 9.3125 5.59375 L 10.46875 5.613281 L 10.46875 7.972656 L 9.304688 8.011719 L 8.148438 8.039062 L 9.3125 8.058594 L 10.46875 8.082031 L 10.46875 9.253906 L 9.203125 9.292969 L 7.953125 9.324219 L 9.214844 9.34375 L 10.46875 9.363281 L 10.488281 11.160156 C 10.496094 12.15625 10.515625 12.707031 10.535156 12.402344 C 10.578125 11.851562 10.585938 11.839844 10.890625 11.800781 L 11.207031 11.761719 L 10.890625 11.75 L 10.566406 11.730469 L 10.566406 9.363281 L 11.742188 9.363281 L 11.78125 10.023438 L 11.808594 10.695312 L 11.828125 10.035156 L 11.847656 9.371094 L 12.222656 9.332031 L 12.589844 9.292969 L 12.222656 9.285156 L 11.847656 9.265625 L 11.847656 8.082031 L 13.664062 8.082031 C 15.3125 8.082031 15.492188 8.101562 15.53125 8.246094 C 15.570312 8.414062 15.578125 8.414062 15.589844 8.246094 C 15.597656 8.101562 15.757812 8.082031 17.414062 8.082031 L 19.242188 8.082031 L 19.28125 8.542969 L 19.308594 9.019531 L 19.328125 8.496094 L 19.347656 7.980469 L 15.597656 7.980469 L 15.597656 5.621094 L 16.367188 5.582031 L 17.128906 5.554688 L 16.367188 5.535156 L 15.597656 5.515625 L 15.597656 4.332031 L 16.773438 4.332031 L 16.8125 4.894531 L 16.84375 5.464844 L 16.882812 4.339844 L 17.257812 4.300781 L 17.621094 4.261719 L 17.257812 4.25 L 16.890625 4.230469 L 16.851562 3.066406 L 16.824219 1.914062 L 16.804688 3.066406 L 16.785156 4.230469 L 15.597656 4.230469 L 15.597656 1.863281 L 19.242188 1.863281 L 19.28125 2.277344 L 19.320312 2.703125 L 19.328125 2.277344 L 19.347656 1.863281 L 28.035156 1.863281 L 28.035156 4.222656 L 26.929688 4.261719 L 25.8125 4.289062 L 26.917969 4.308594 L 28.023438 4.332031 L 28.0625 4.84375 L 28.09375 5.367188 L 28.113281 4.84375 L 28.132812 4.332031 L 29.316406 4.332031 L 29.316406 5.503906 L 28.902344 5.542969 L 28.476562 5.582031 L 28.890625 5.59375 C 29.238281 5.613281 29.304688 5.652344 29.347656 5.832031 L 29.386719 6.058594 L 29.40625 5.832031 C 29.414062 5.613281 29.445312 5.613281 30.597656 5.613281 L 31.773438 5.613281 L 31.8125 6.371094 L 31.84375 7.144531 L 31.863281 6.371094 L 31.882812 5.613281 L 33.054688 5.613281 L 33.097656 6.71875 L 33.125 7.832031 L 33.144531 6.71875 L 33.164062 5.613281 L 36.816406 5.613281 L 36.816406 7.972656 L 35.265625 8.011719 L 33.707031 8.039062 L 35.265625 8.058594 L 36.816406 8.082031 L 36.816406 8.664062 C 36.816406 9.226562 36.804688 9.253906 36.550781 9.292969 L 36.273438 9.332031 L 36.539062 9.351562 C 36.757812 9.363281 36.804688 9.414062 36.847656 9.679688 L 36.886719 10.003906 L 36.894531 9.6875 C 36.914062 9.402344 36.945312 9.371094 37.289062 9.332031 L 37.65625 9.292969 L 37.289062 9.285156 L 36.914062 9.265625 L 36.914062 8.089844 L 37.289062 8.050781 L 37.65625 8.011719 L 37.289062 8 L 36.914062 7.980469 L 36.914062 5.621094 L 37.289062 5.582031 L 37.65625 5.542969 L 37.289062 5.535156 L 36.914062 5.515625 L 36.914062 4.339844 L 37.289062 4.300781 L 37.65625 4.261719 L 37.289062 4.25 L 36.914062 4.230469 L 36.914062 1.871094 L 37.289062 1.832031 C 37.488281 1.8125 31.015625 1.804688 22.902344 1.804688 C 14.789062 1.804688 8.671875 1.824219 9.3125 1.832031 Z M 11.75 3.046875 L 11.75 4.230469 L 10.566406 4.230469 L 10.566406 1.863281 L 11.75 1.863281 Z M 15.5 3.046875 L 15.5 4.230469 L 14.316406 4.230469 L 14.296875 3.066406 L 14.277344 1.914062 L 14.246094 3.066406 L 14.207031 4.230469 L 11.847656 4.230469 L 11.847656 1.863281 L 15.5 1.863281 Z M 33.066406 3.046875 L 33.066406 4.230469 L 31.882812 4.230469 L 31.863281 3.066406 L 31.84375 1.914062 L 31.8125 3.066406 L 31.773438 4.230469 L 29.414062 4.230469 L 29.394531 3.066406 L 29.375 1.914062 L 29.347656 3.066406 L 29.304688 4.230469 L 28.132812 4.230469 L 28.132812 1.863281 L 33.066406 1.863281 Z M 36.816406 3.046875 L 36.816406 4.230469 L 33.164062 4.230469 L 33.164062 1.863281 L 36.816406 1.863281 Z M 11.75 4.921875 L 11.75 5.515625 L 10.566406 5.515625 L 10.566406 4.332031 L 11.75 4.332031 Z M 14.21875 4.921875 L 14.21875 5.515625 L 11.847656 5.515625 L 11.847656 4.332031 L 14.21875 4.332031 Z M 15.5 4.921875 L 15.5 5.515625 L 14.316406 5.515625 L 14.316406 4.332031 L 15.5 4.332031 Z M 31.785156 4.921875 L 31.785156 5.515625 L 29.414062 5.515625 L 29.414062 4.332031 L 31.785156 4.332031 Z M 33.066406 4.921875 L 33.066406 5.515625 L 31.882812 5.515625 L 31.882812 4.332031 L 33.066406 4.332031 Z M 36.816406 4.921875 L 36.816406 5.515625 L 33.164062 5.515625 L 33.164062 4.332031 L 36.816406 4.332031 Z M 11.75 6.796875 L 11.75 7.980469 L 10.566406 7.980469 L 10.566406 5.613281 L 11.75 5.613281 Z M 14.21875 6.796875 L 14.21875 7.980469 L 11.847656 7.980469 L 11.847656 5.613281 L 14.21875 5.613281 Z M 15.5 6.796875 L 15.5 7.980469 L 14.316406 7.980469 L 14.316406 5.613281 L 15.5 5.613281 Z M 11.75 8.671875 L 11.75 9.265625 L 10.566406 9.265625 L 10.566406 8.082031 L 11.75 8.082031 Z M 11.75 8.671875 " fill-opacity="1" fill-rule="nonzero"/></g><path fill="#000000" d="M 24.324219 2.800781 C 24.324219 3.285156 24.332031 3.5 24.351562 3.273438 C 24.371094 3.046875 24.371094 2.644531 24.351562 2.386719 C 24.332031 2.128906 24.324219 2.308594 24.324219 2.800781 Z M 24.324219 2.800781 " fill-opacity="1" fill-rule="nonzero"/><path fill="#000000" d="M 8.03125 3.539062 C 8.03125 3.894531 8.050781 4.035156 8.070312 3.855469 C 8.089844 3.6875 8.089844 3.394531 8.070312 3.214844 C 8.050781 3.046875 8.03125 3.183594 8.03125 3.539062 Z M 8.03125 3.539062 " fill-opacity="1" fill-rule="nonzero"/><path fill="#000000" d="M 18.679688 3.34375 C 18.429688 3.5 18.253906 3.757812 17.957031 4.390625 C 17.75 4.84375 17.574219 5.316406 17.574219 5.445312 C 17.574219 5.808594 17.929688 6.273438 18.578125 6.769531 C 20.019531 7.871094 21.550781 9.226562 22.664062 10.371094 C 23.910156 11.652344 24.53125 12.460938 24.945312 13.378906 C 25.171875 13.863281 25.191406 14 25.132812 14.632812 C 24.90625 17.070312 24.945312 17.445312 25.449219 17.632812 C 25.597656 17.683594 26.996094 17.917969 28.566406 18.164062 L 31.410156 18.601562 L 31.832031 18.332031 C 32.574219 17.871094 32.917969 17.425781 33.53125 16.152344 C 33.855469 15.480469 34.535156 14.179688 35.050781 13.261719 C 36.5 10.644531 36.640625 10.261719 36.273438 9.855469 C 36.183594 9.757812 33.117188 8.257812 29.433594 6.519531 L 22.753906 3.351562 L 21.429688 3.253906 C 19.496094 3.097656 19.0625 3.117188 18.679688 3.34375 Z M 21.195312 3.847656 L 22.625 3.957031 L 29.148438 7.054688 C 32.742188 8.761719 35.722656 10.164062 35.78125 10.183594 C 35.890625 10.222656 35.652344 11 35.484375 11.140625 C 35.394531 11.207031 33.984375 10.558594 30.738281 8.957031 C 23.515625 5.394531 22.113281 4.726562 21.679688 4.636719 C 21.453125 4.585938 20.722656 4.46875 20.039062 4.371094 C 19.359375 4.28125 18.785156 4.183594 18.765625 4.164062 C 18.746094 4.152344 18.804688 4.042969 18.90625 3.933594 C 19.113281 3.699219 19.25 3.699219 21.195312 3.847656 Z M 20.335938 5.019531 L 21.765625 5.226562 L 24.648438 6.628906 C 26.226562 7.398438 27.53125 8.050781 27.53125 8.082031 C 27.539062 8.109375 27.332031 8.238281 27.078125 8.375 C 26.492188 8.683594 26.246094 9.027344 26.1875 9.582031 C 26.148438 9.90625 26.1875 10.121094 26.335938 10.410156 C 26.640625 10.972656 28.140625 12.925781 28.449219 13.152344 C 28.636719 13.28125 28.953125 13.359375 29.542969 13.410156 C 30.203125 13.457031 30.519531 13.546875 31.171875 13.851562 C 31.617188 14.058594 31.980469 14.269531 31.980469 14.308594 C 31.980469 14.347656 31.882812 14.503906 31.765625 14.644531 L 31.535156 14.898438 L 29.414062 14.78125 L 27.292969 14.652344 L 26.949219 13.773438 C 26.296875 12.105469 25.171875 10.332031 23.949219 9.046875 C 23.109375 8.160156 22.585938 7.980469 21.90625 8.328125 C 21.617188 8.484375 21.617188 8.476562 20.898438 7.863281 C 20.515625 7.519531 19.902344 7.023438 19.546875 6.757812 C 18.679688 6.105469 18.164062 5.601562 18.164062 5.414062 C 18.164062 5.160156 18.460938 4.824219 18.6875 4.824219 C 18.804688 4.824219 19.546875 4.914062 20.335938 5.019531 Z M 31.496094 10.015625 C 33.097656 10.804688 34.476562 11.523438 34.566406 11.601562 C 34.921875 11.917969 34.890625 12.273438 34.398438 13.164062 C 33.738281 14.375 33.472656 14.457031 32.285156 13.753906 C 31.28125 13.171875 30.382812 12.847656 29.59375 12.789062 C 29.238281 12.757812 28.871094 12.699219 28.785156 12.648438 C 28.527344 12.5 26.847656 10.171875 26.789062 9.875 C 26.769531 9.726562 26.800781 9.5 26.867188 9.363281 C 27.035156 9.046875 27.886719 8.582031 28.289062 8.574219 C 28.496094 8.574219 29.601562 9.066406 31.496094 10.015625 Z M 23.148438 9.078125 C 23.671875 9.539062 24.71875 10.882812 25.289062 11.820312 C 25.792969 12.648438 26.703125 14.582031 26.621094 14.652344 C 26.601562 14.683594 26.394531 14.671875 26.167969 14.632812 C 25.773438 14.574219 25.765625 14.554688 25.765625 14.1875 C 25.765625 13.203125 24.875 11.742188 23.226562 10.042969 C 22.617188 9.414062 22.140625 8.871094 22.179688 8.839844 C 22.339844 8.671875 22.824219 8.789062 23.148438 9.078125 Z M 33.15625 14.789062 C 33.324219 14.789062 33.460938 14.808594 33.460938 14.832031 C 33.460938 14.839844 33.214844 15.382812 32.917969 16.015625 C 32.445312 17 32.296875 17.21875 31.871094 17.554688 C 31.597656 17.769531 31.328125 17.949219 31.269531 17.949219 C 31.140625 17.949219 26.21875 17.179688 25.824219 17.101562 L 25.535156 17.039062 L 25.585938 16.152344 C 25.617188 15.667969 25.65625 15.265625 25.675781 15.246094 C 25.753906 15.195312 29.890625 15.382812 30.628906 15.480469 C 31.578125 15.601562 31.980469 15.472656 32.285156 14.949219 C 32.453125 14.652344 32.523438 14.613281 32.671875 14.691406 C 32.769531 14.75 32.988281 14.789062 33.15625 14.789062 Z M 33.15625 14.789062 " fill-opacity="1" fill-rule="nonzero"/><path fill="#000000" d="M 19.035156 5.535156 C 18.804688 5.59375 18.804688 5.59375 19.023438 5.601562 C 19.160156 5.613281 19.25 5.691406 19.28125 5.832031 L 19.320312 6.058594 L 19.339844 5.839844 C 19.347656 5.644531 19.410156 5.621094 19.921875 5.59375 L 20.484375 5.5625 L 19.871094 5.515625 C 19.527344 5.484375 19.152344 5.496094 19.035156 5.535156 Z M 19.035156 5.535156 " fill-opacity="1" fill-rule="nonzero"/><path fill="#000000" d="M 20.5625 6.304688 C 20.5625 6.660156 20.582031 6.796875 20.601562 6.621094 C 20.621094 6.453125 20.621094 6.15625 20.601562 5.976562 C 20.582031 5.808594 20.5625 5.949219 20.5625 6.304688 Z M 20.5625 6.304688 " fill-opacity="1" fill-rule="nonzero"/><path fill="#000000" d="M 23.03125 7.042969 C 23.03125 7.417969 23.050781 7.566406 23.070312 7.359375 C 23.089844 7.164062 23.089844 6.847656 23.070312 6.667969 C 23.050781 6.5 23.03125 6.660156 23.03125 7.042969 Z M 23.03125 7.042969 " fill-opacity="1" fill-rule="nonzero"/><path fill="#000000" d="M 24.304688 7.457031 L 24.285156 7.972656 L 23.867188 8.011719 L 23.445312 8.050781 L 23.859375 8.058594 C 24.265625 8.082031 24.273438 8.089844 24.3125 8.445312 L 24.351562 8.820312 L 24.363281 8.457031 L 24.382812 8.089844 L 25.398438 8.050781 L 26.40625 8.019531 L 24.390625 7.980469 L 24.351562 7.457031 L 24.324219 6.945312 Z M 24.304688 7.457031 " fill-opacity="1" fill-rule="nonzero"/><path fill="#000000" d="M 28.035156 9.136719 C 28.035156 9.195312 27.914062 9.273438 27.765625 9.292969 L 27.492188 9.332031 L 27.757812 9.351562 C 28.023438 9.363281 28.023438 9.363281 28.0625 10.222656 L 28.09375 11.089844 L 28.113281 10.222656 L 28.132812 9.363281 L 28.605469 9.34375 L 29.070312 9.332031 L 28.625 9.292969 C 28.390625 9.265625 28.152344 9.195312 28.113281 9.136719 C 28.054688 9.046875 28.035156 9.046875 28.035156 9.136719 Z M 28.035156 9.136719 " fill-opacity="1" fill-rule="nonzero"/><path fill="#000000" d="M 29.316406 10.636719 L 29.316406 11.722656 L 28.953125 11.761719 L 28.578125 11.800781 L 28.941406 11.808594 C 29.257812 11.832031 29.304688 11.871094 29.347656 12.097656 C 29.367188 12.253906 29.394531 11.742188 29.40625 10.960938 C 29.40625 10.191406 29.394531 9.558594 29.367188 9.558594 C 29.335938 9.558594 29.316406 10.042969 29.316406 10.636719 Z M 29.316406 10.636719 " fill-opacity="1" fill-rule="nonzero"/><path fill="#000000" d="M 31.785156 11.238281 L 31.785156 11.722656 L 31.121094 11.761719 L 30.453125 11.789062 L 31.113281 11.808594 L 31.773438 11.832031 L 31.8125 12.394531 C 31.832031 12.707031 31.851562 12.460938 31.863281 11.851562 C 31.871094 11.246094 31.863281 10.746094 31.832031 10.746094 C 31.804688 10.746094 31.785156 10.960938 31.785156 11.238281 Z M 31.785156 11.238281 " fill-opacity="1" fill-rule="nonzero"/><path fill="#000000" d="M 33.085938 11.503906 C 33.066406 11.691406 32.996094 11.722656 32.503906 11.761719 L 31.929688 11.789062 L 32.503906 11.808594 L 33.066406 11.832031 L 33.066406 13.003906 L 32.554688 13.042969 L 32.03125 13.074219 L 32.542969 13.09375 C 33.035156 13.113281 33.054688 13.121094 33.097656 13.429688 L 33.136719 13.753906 L 33.144531 13.4375 C 33.164062 13.144531 33.195312 13.121094 33.589844 13.082031 L 34.003906 13.042969 L 33.589844 13.035156 L 33.175781 13.015625 L 33.136719 12.144531 C 33.125 11.671875 33.097656 11.386719 33.085938 11.503906 Z M 33.085938 11.503906 " fill-opacity="1" fill-rule="nonzero"/><path fill="#000000" d="M 28.054688 16.242188 L 28.035156 16.753906 L 27.570312 16.792969 C 27.304688 16.8125 27.589844 16.832031 28.203125 16.84375 C 28.972656 16.851562 29.316406 16.902344 29.347656 16.980469 C 29.386719 17.082031 29.40625 17.082031 29.40625 16.980469 C 29.414062 16.894531 29.730469 16.863281 30.648438 16.863281 L 31.882812 16.863281 L 31.863281 16.339844 L 31.84375 15.828125 L 31.8125 16.289062 L 31.773438 16.765625 L 29.425781 16.765625 L 29.386719 16.289062 L 29.355469 15.828125 L 29.335938 16.289062 L 29.316406 16.765625 L 28.140625 16.765625 L 28.101562 16.242188 L 28.074219 15.726562 Z M 28.054688 16.242188 " fill-opacity="1" fill-rule="nonzero"/><path fill="#000000" d="M 16.824219 6.796875 C 16.824219 7.417969 16.832031 7.675781 16.851562 7.359375 C 16.871094 7.054688 16.871094 6.539062 16.851562 6.226562 C 16.832031 5.917969 16.824219 6.175781 16.824219 6.796875 Z M 16.824219 6.796875 " fill-opacity="1" fill-rule="nonzero"/><path fill="#000000" d="M 13.617188 8.988281 C 12.90625 9.460938 12.746094 9.679688 11.988281 11.238281 C 11.652344 11.917969 10.992188 13.183594 10.507812 14.050781 C 9.3125 16.171875 9.054688 16.773438 9.175781 17.101562 C 9.234375 17.238281 9.371094 17.414062 9.5 17.496094 C 9.628906 17.574219 12.679688 19.042969 16.289062 20.75 L 22.851562 23.851562 L 24.175781 23.957031 C 26.910156 24.175781 27.046875 24.136719 27.648438 22.824219 C 27.855469 22.371094 28.035156 21.886719 28.035156 21.757812 C 28.035156 21.363281 27.617188 20.898438 26.425781 19.972656 C 23.679688 17.820312 21.5 15.570312 20.789062 14.140625 C 20.414062 13.398438 20.355469 12.976562 20.492188 12.175781 C 20.652344 11.296875 20.660156 10.230469 20.523438 9.914062 C 20.453125 9.789062 20.296875 9.628906 20.148438 9.582031 C 20.011719 9.53125 18.609375 9.285156 17.039062 9.046875 L 14.1875 8.601562 Z M 17.03125 9.667969 C 18.5 9.886719 19.765625 10.101562 19.84375 10.152344 C 19.960938 10.210938 19.992188 10.410156 19.972656 11.089844 C 19.972656 11.554688 19.941406 11.957031 19.921875 11.96875 C 19.863281 12.027344 15.746094 11.832031 14.957031 11.742188 C 14.019531 11.632812 13.664062 11.742188 13.308594 12.253906 C 13.132812 12.519531 13.035156 12.582031 12.933594 12.511719 C 12.855469 12.460938 12.640625 12.421875 12.472656 12.421875 C 12.292969 12.421875 12.144531 12.402344 12.144531 12.382812 C 12.144531 12.371094 12.390625 11.832031 12.6875 11.199219 C 13.160156 10.210938 13.308594 9.996094 13.734375 9.660156 C 14.011719 9.441406 14.265625 9.265625 14.296875 9.265625 C 14.335938 9.265625 15.570312 9.441406 17.03125 9.667969 Z M 16.992188 12.480469 L 18.34375 12.550781 L 18.460938 12.957031 C 18.867188 14.296875 20.167969 16.496094 21.402344 17.910156 C 22.347656 18.996094 22.972656 19.261719 23.703125 18.886719 C 23.988281 18.726562 23.988281 18.738281 24.707031 19.351562 C 25.09375 19.695312 25.792969 20.269531 26.257812 20.613281 C 27.5 21.550781 27.617188 21.746094 27.253906 22.203125 L 27.066406 22.4375 L 25.449219 22.210938 L 23.839844 21.984375 L 20.957031 20.582031 C 19.378906 19.8125 18.078125 19.152344 18.078125 19.121094 C 18.066406 19.09375 18.242188 18.984375 18.472656 18.886719 C 19.09375 18.601562 19.398438 18.136719 19.398438 17.464844 C 19.398438 16.921875 19.378906 16.871094 18.570312 15.777344 C 17.660156 14.535156 17.316406 14.128906 17.050781 13.980469 C 16.953125 13.933594 16.496094 13.851562 16.054688 13.804688 C 15.429688 13.746094 15.027344 13.625 14.425781 13.351562 C 13.992188 13.152344 13.625 12.957031 13.625 12.914062 C 13.625 12.875 13.722656 12.71875 13.84375 12.570312 C 14.050781 12.304688 14.070312 12.292969 14.847656 12.351562 C 15.292969 12.394531 16.25 12.453125 16.992188 12.480469 Z M 19.605469 12.621094 C 19.773438 12.621094 19.8125 12.6875 19.824219 13.003906 C 19.863281 14.050781 20.742188 15.480469 22.378906 17.167969 C 22.992188 17.800781 23.464844 18.34375 23.425781 18.371094 C 23.394531 18.414062 23.226562 18.441406 23.058594 18.441406 C 22.804688 18.441406 22.625 18.3125 22.035156 17.691406 C 21.253906 16.871094 20.316406 15.53125 19.792969 14.496094 C 19.496094 13.902344 18.953125 12.648438 18.953125 12.539062 C 18.953125 12.519531 19.054688 12.519531 19.179688 12.558594 C 19.300781 12.589844 19.488281 12.621094 19.605469 12.621094 Z M 13.320312 13.457031 C 14.285156 14.019531 15.253906 14.386719 15.855469 14.40625 C 16.785156 14.433594 16.871094 14.496094 17.859375 15.835938 C 18.835938 17.167969 18.972656 17.503906 18.71875 17.898438 C 18.511719 18.207031 17.679688 18.640625 17.277344 18.640625 C 16.980469 18.640625 11.394531 15.925781 11.039062 15.609375 C 10.683594 15.292969 10.714844 14.9375 11.207031 14.050781 C 11.453125 13.597656 11.730469 13.171875 11.828125 13.121094 C 12.164062 12.925781 12.578125 13.015625 13.320312 13.457031 Z M 15.667969 18.648438 C 24.125 22.824219 23.464844 22.539062 25.300781 22.792969 C 26.148438 22.914062 26.847656 23.039062 26.847656 23.082031 C 26.847656 23.121094 26.761719 23.226562 26.652344 23.328125 C 26.464844 23.503906 26.355469 23.503906 24.726562 23.386719 L 23 23.269531 L 16.46875 20.160156 C 12.867188 18.460938 9.886719 17.050781 9.828125 17.03125 C 9.679688 16.980469 10.0625 15.976562 10.222656 15.976562 C 10.242188 15.976562 12.6875 17.179688 15.667969 18.648438 Z M 15.667969 18.648438 " fill-opacity="1" fill-rule="nonzero"/><path fill="#000000" d="M 14.246094 10.546875 C 14.246094 10.953125 14.265625 11.121094 14.285156 10.914062 C 14.304688 10.714844 14.304688 10.378906 14.285156 10.171875 C 14.265625 9.976562 14.246094 10.144531 14.246094 10.546875 Z M 14.246094 10.546875 " fill-opacity="1" fill-rule="nonzero"/><path fill="#000000" d="M 15.53125 10.597656 C 15.53125 11.03125 15.550781 11.199219 15.570312 10.960938 C 15.589844 10.734375 15.589844 10.378906 15.570312 10.171875 C 15.550781 9.976562 15.53125 10.164062 15.53125 10.597656 Z M 15.53125 10.597656 " fill-opacity="1" fill-rule="nonzero"/><path fill="#000000" d="M 16.8125 10.746094 C 16.8125 11.101562 16.832031 11.238281 16.851562 11.058594 C 16.871094 10.894531 16.871094 10.597656 16.851562 10.417969 C 16.832031 10.25 16.8125 10.390625 16.8125 10.746094 Z M 16.8125 10.746094 " fill-opacity="1" fill-rule="nonzero"/><path fill="#000000" d="M 15.972656 13.082031 C 16.140625 13.101562 16.4375 13.101562 16.617188 13.082031 C 16.785156 13.0625 16.644531 13.042969 16.289062 13.042969 C 15.933594 13.042969 15.796875 13.0625 15.972656 13.082031 Z M 15.972656 13.082031 " fill-opacity="1" fill-rule="nonzero"/><path fill="#000000" d="M 20.542969 17.820312 C 20.535156 17.996094 20.464844 18.039062 20.117188 18.078125 L 19.695312 18.117188 L 20.109375 18.125 L 20.523438 18.144531 L 20.5625 19.054688 L 20.59375 19.972656 L 20.613281 19.0625 C 20.632812 18.292969 20.660156 18.15625 20.808594 18.117188 C 20.957031 18.078125 20.957031 18.066406 20.808594 18.058594 C 20.722656 18.058594 20.621094 17.949219 20.601562 17.820312 L 20.5625 17.601562 Z M 20.542969 17.820312 " fill-opacity="1" fill-rule="nonzero"/><path fill="#000000" d="M 23.019531 19.992188 L 23 20.503906 L 22.488281 20.542969 L 21.964844 20.574219 L 22.476562 20.59375 C 22.953125 20.613281 22.992188 20.632812 23.03125 20.878906 L 23.070312 21.15625 L 23.089844 20.878906 C 23.097656 20.621094 23.117188 20.613281 23.679688 20.613281 L 24.273438 20.613281 L 24.3125 21.125 L 24.34375 21.648438 L 24.363281 21.136719 L 24.382812 20.621094 L 24.90625 20.582031 L 25.417969 20.554688 L 24.90625 20.535156 L 24.390625 20.515625 L 24.351562 20.039062 L 24.324219 19.578125 L 24.304688 20.039062 L 24.285156 20.515625 L 23.109375 20.515625 L 23.070312 19.992188 L 23.039062 19.476562 Z M 23.019531 19.992188 " fill-opacity="1" fill-rule="nonzero"/><path fill="#000000" d="M 11.75 14.101562 C 11.722656 14.238281 11.730469 14.632812 11.761719 14.988281 L 11.820312 15.628906 L 11.828125 15.019531 L 11.847656 14.40625 L 12.964844 14.367188 L 14.070312 14.335938 L 12.964844 14.316406 C 11.910156 14.296875 11.859375 14.289062 11.828125 14.070312 C 11.800781 13.863281 11.789062 13.863281 11.75 14.101562 Z M 11.75 14.101562 " fill-opacity="1" fill-rule="nonzero"/><path fill="#000000" d="M 14.257812 15.628906 C 14.257812 16.222656 14.265625 16.457031 14.285156 16.144531 C 14.304688 15.828125 14.304688 15.34375 14.285156 15.058594 C 14.265625 14.769531 14.257812 15.027344 14.257812 15.628906 Z M 14.257812 15.628906 " fill-opacity="1" fill-rule="nonzero"/><path fill="#000000" d="M 15.519531 15.746094 L 15.5 16.753906 L 14.988281 16.792969 L 14.464844 16.824219 L 14.976562 16.84375 C 15.472656 16.863281 15.492188 16.871094 15.53125 17.179688 L 15.570312 17.503906 L 15.578125 17.179688 L 15.597656 16.863281 L 16.773438 16.863281 L 16.8125 17.425781 L 16.84375 17.996094 L 16.882812 16.871094 L 17.503906 16.832031 C 17.839844 16.8125 17.554688 16.792969 16.863281 16.785156 L 15.609375 16.765625 L 15.570312 15.746094 L 15.539062 14.742188 Z M 15.519531 15.746094 " fill-opacity="1" fill-rule="nonzero"/><path fill="#000000" d="M 16.8125 16.074219 C 16.8125 16.429688 16.832031 16.566406 16.851562 16.390625 C 16.871094 16.222656 16.871094 15.925781 16.851562 15.746094 C 16.832031 15.582031 16.8125 15.71875 16.8125 16.074219 Z M 16.8125 16.074219 " fill-opacity="1" fill-rule="nonzero"/><path fill="#000000" d="M 8.03125 10.054688 C 8.03125 10.410156 8.050781 10.546875 8.070312 10.371094 C 8.089844 10.203125 8.089844 9.90625 8.070312 9.726562 C 8.050781 9.558594 8.03125 9.699219 8.03125 10.054688 Z M 8.03125 10.054688 " fill-opacity="1" fill-rule="nonzero"/><g clip-path="url(#fcd5daad1f)"><path fill="#000000" d="M 36.835938 11.898438 L 36.816406 13.003906 L 36.304688 13.042969 L 35.78125 13.074219 L 36.304688 13.09375 L 36.816406 13.113281 L 36.816406 14.289062 L 35.859375 14.328125 L 34.890625 14.355469 L 35.859375 14.375 L 36.816406 14.394531 L 36.816406 16.765625 L 35.21875 16.792969 L 33.609375 16.824219 L 35.21875 16.84375 L 36.816406 16.863281 L 36.816406 18.046875 L 34.992188 18.046875 C 33.796875 18.046875 33.164062 18.007812 33.164062 17.949219 C 33.164062 17.890625 33.105469 17.898438 33.027344 17.96875 C 32.949219 18.039062 32.929688 18.105469 32.976562 18.125 C 33.027344 18.144531 33.066406 18.6875 33.066406 19.339844 L 33.066406 20.515625 L 31.890625 20.515625 L 31.851562 19.65625 L 31.824219 18.789062 L 31.804688 19.644531 L 31.785156 20.515625 L 29.425781 20.515625 L 29.386719 19.605469 L 29.355469 18.6875 L 29.335938 19.597656 L 29.316406 20.515625 L 28.132812 20.515625 L 28.113281 19.496094 L 28.09375 18.492188 L 28.042969 19.527344 C 27.984375 20.503906 28.015625 21.007812 28.113281 20.730469 C 28.132812 20.652344 28.367188 20.613281 28.734375 20.613281 L 29.316406 20.613281 L 29.316406 21.789062 L 28.902344 21.828125 L 28.476562 21.867188 L 28.902344 21.875 L 29.316406 21.894531 L 29.316406 24.253906 L 28.753906 24.292969 L 28.179688 24.324219 L 29.304688 24.363281 L 29.347656 24.925781 L 29.375 25.496094 L 29.394531 24.925781 L 29.414062 24.363281 L 31.773438 24.363281 L 31.8125 24.925781 C 31.832031 25.242188 31.851562 24.6875 31.863281 23.691406 L 31.882812 21.894531 L 33.066406 21.894531 L 33.097656 23.691406 L 33.117188 25.496094 L 33.144531 23.691406 L 33.164062 21.894531 L 36.816406 21.894531 L 36.816406 24.265625 L 35.019531 24.265625 C 34.035156 24.265625 33.253906 24.285156 33.285156 24.3125 C 33.3125 24.34375 33.828125 24.371094 34.429688 24.371094 L 35.523438 24.371094 L 35.5625 24.640625 L 35.601562 24.90625 L 35.621094 24.628906 C 35.632812 24.371094 35.652344 24.363281 36.222656 24.363281 L 36.804688 24.363281 L 36.847656 24.925781 C 36.867188 25.242188 36.886719 24.6875 36.894531 23.703125 L 36.914062 21.90625 L 37.289062 21.867188 L 37.65625 21.828125 L 37.289062 21.816406 L 36.914062 21.796875 L 36.914062 20.621094 L 37.289062 20.582031 L 37.65625 20.542969 L 37.289062 20.535156 L 36.914062 20.515625 L 36.914062 18.15625 L 37.289062 18.117188 L 37.65625 18.078125 L 37.289062 18.066406 L 36.914062 18.046875 L 36.914062 16.871094 L 37.289062 16.832031 L 37.65625 16.792969 L 37.289062 16.785156 L 36.914062 16.765625 L 36.914062 14.40625 L 37.289062 14.367188 L 37.65625 14.328125 L 37.289062 14.316406 L 36.914062 14.296875 L 36.914062 13.121094 L 37.289062 13.082031 L 37.65625 13.042969 L 37.289062 13.035156 L 36.925781 13.015625 L 36.886719 11.898438 L 36.855469 10.792969 Z M 36.816406 19.332031 L 36.816406 20.515625 L 33.164062 20.515625 L 33.164062 18.144531 L 36.816406 18.144531 Z M 31.785156 21.207031 L 31.785156 21.796875 L 29.414062 21.796875 L 29.414062 20.613281 L 31.785156 20.613281 Z M 33.066406 21.207031 L 33.066406 21.796875 L 31.882812 21.796875 L 31.882812 20.613281 L 33.066406 20.613281 Z M 36.816406 21.207031 L 36.816406 21.796875 L 33.164062 21.796875 L 33.164062 20.613281 L 36.816406 20.613281 Z M 31.785156 23.082031 L 31.785156 24.265625 L 29.414062 24.265625 L 29.414062 21.894531 L 31.785156 21.894531 Z M 31.785156 23.082031 " fill-opacity="1" fill-rule="nonzero"/></g><path fill="#000000" d="M 23.019531 12.195312 L 23 13.003906 L 21.945312 13.042969 L 20.878906 13.074219 L 21.945312 13.09375 L 23 13.113281 L 23 14.289062 L 22.191406 14.328125 L 21.371094 14.355469 L 22.179688 14.375 L 22.992188 14.394531 L 23.03125 15.402344 L 23.058594 16.417969 L 23.078125 15.402344 L 23.097656 14.394531 L 24.285156 14.394531 L 24.285156 16.753906 L 23.867188 16.792969 L 23.445312 16.832031 L 23.859375 16.84375 C 24.273438 16.863281 24.273438 16.863281 24.3125 17.277344 C 24.332031 17.515625 24.351562 16.960938 24.363281 16.054688 C 24.382812 14.582031 24.402344 14.40625 24.558594 14.367188 C 24.707031 14.328125 24.707031 14.316406 24.558594 14.308594 C 24.429688 14.296875 24.382812 14.179688 24.351562 13.726562 L 24.324219 13.164062 L 24.304688 13.726562 L 24.285156 14.296875 L 23.097656 14.296875 L 23.097656 13.121094 L 23.671875 13.082031 L 24.234375 13.054688 L 23.109375 13.015625 L 23.070312 12.195312 L 23.039062 11.386719 Z M 23.019531 12.195312 " fill-opacity="1" fill-rule="nonzero"/><path fill="#000000" d="M 8.03125 12.273438 C 8.03125 12.601562 8.050781 12.71875 8.070312 12.539062 C 8.089844 12.363281 8.089844 12.097656 8.070312 11.949219 C 8.050781 11.800781 8.03125 11.949219 8.03125 12.273438 Z M 8.03125 12.273438 " fill-opacity="1" fill-rule="nonzero"/><path fill="#000000" d="M 9.460938 11.800781 C 9.628906 11.820312 9.925781 11.820312 10.101562 11.800781 C 10.269531 11.78125 10.132812 11.761719 9.777344 11.761719 C 9.421875 11.761719 9.285156 11.78125 9.460938 11.800781 Z M 9.460938 11.800781 " fill-opacity="1" fill-rule="nonzero"/><path fill="#000000" d="M 21.550781 11.800781 C 21.804688 11.820312 22.222656 11.820312 22.488281 11.800781 C 22.742188 11.78125 22.527344 11.769531 22.015625 11.769531 C 21.5 11.769531 21.285156 11.78125 21.550781 11.800781 Z M 21.550781 11.800781 " fill-opacity="1" fill-rule="nonzero"/><path fill="#000000" d="M 8.710938 13.082031 C 9.027344 13.101562 9.539062 13.101562 9.847656 13.082031 C 10.160156 13.0625 9.90625 13.054688 9.285156 13.054688 C 8.660156 13.054688 8.40625 13.0625 8.710938 13.082031 Z M 8.710938 13.082031 " fill-opacity="1" fill-rule="nonzero"/><path fill="#000000" d="M 8.5625 14.367188 C 8.800781 14.386719 9.175781 14.386719 9.402344 14.367188 C 9.640625 14.347656 9.453125 14.328125 8.988281 14.328125 C 8.523438 14.328125 8.335938 14.347656 8.5625 14.367188 Z M 8.5625 14.367188 " fill-opacity="1" fill-rule="nonzero"/><path fill="#000000" d="M 8.03125 16.074219 C 8.03125 16.429688 8.050781 16.566406 8.070312 16.390625 C 8.089844 16.222656 8.089844 15.925781 8.070312 15.746094 C 8.050781 15.582031 8.03125 15.71875 8.03125 16.074219 Z M 8.03125 16.074219 " fill-opacity="1" fill-rule="nonzero"/><path fill="#000000" d="M 8.523438 18.117188 C 8.722656 18.136719 9.054688 18.136719 9.265625 18.117188 C 9.460938 18.097656 9.292969 18.078125 8.890625 18.078125 C 8.484375 18.078125 8.316406 18.097656 8.523438 18.117188 Z M 8.523438 18.117188 " fill-opacity="1" fill-rule="nonzero"/><g clip-path="url(#7572aacc13)"><path fill="#000000" d="M 10.488281 19.496094 L 10.46875 20.503906 L 9.3125 20.542969 L 8.148438 20.574219 L 9.3125 20.59375 L 10.46875 20.613281 L 10.46875 21.789062 L 9.3125 21.828125 L 8.148438 21.855469 L 9.3125 21.875 L 10.46875 21.894531 L 10.46875 24.253906 L 9.363281 24.292969 L 8.246094 24.324219 L 10.457031 24.363281 L 10.496094 24.925781 L 10.527344 25.496094 L 10.546875 24.925781 L 10.566406 24.363281 L 11.742188 24.363281 L 11.78125 24.925781 C 11.800781 25.242188 11.820312 24.6875 11.828125 23.691406 L 11.847656 21.894531 L 14.21875 21.894531 L 14.21875 24.253906 L 13.0625 24.292969 L 11.898438 24.324219 L 13.054688 24.34375 L 14.207031 24.363281 L 14.246094 24.925781 L 14.277344 25.496094 L 14.296875 24.925781 L 14.316406 24.363281 L 15.492188 24.363281 L 15.53125 24.925781 C 15.550781 25.242188 15.570312 24.6875 15.578125 23.703125 L 15.597656 21.90625 L 16.617188 21.867188 L 17.621094 21.835938 L 16.617188 21.816406 L 15.609375 21.796875 L 15.570312 21.324219 L 15.539062 20.859375 L 15.519531 21.324219 L 15.5 21.796875 L 14.316406 21.796875 L 14.316406 21.214844 C 14.316406 20.652344 14.328125 20.621094 14.59375 20.582031 C 14.742188 20.5625 14.1875 20.535156 13.359375 20.523438 L 11.859375 20.515625 L 11.820312 19.84375 L 11.789062 19.183594 L 11.769531 19.84375 L 11.75 20.515625 L 10.578125 20.515625 L 10.535156 19.496094 L 10.507812 18.492188 Z M 11.75 21.207031 L 11.75 21.796875 L 10.566406 21.796875 L 10.566406 20.613281 L 11.75 20.613281 Z M 14.21875 21.207031 L 14.21875 21.796875 L 11.847656 21.796875 L 11.847656 20.613281 L 14.21875 20.613281 Z M 11.75 23.082031 L 11.75 24.265625 L 10.566406 24.265625 L 10.566406 21.894531 L 11.75 21.894531 Z M 15.5 23.082031 L 15.5 24.265625 L 14.316406 24.265625 L 14.316406 21.894531 L 15.5 21.894531 Z M 15.5 23.082031 " fill-opacity="1" fill-rule="nonzero"/></g><path fill="#000000" d="M 8.039062 23.082031 C 8.039062 23.703125 8.050781 23.957031 8.070312 23.644531 C 8.089844 23.335938 8.089844 22.824219 8.070312 22.507812 C 8.050781 22.203125 8.039062 22.457031 8.039062 23.082031 Z M 8.039062 23.082031 " fill-opacity="1" fill-rule="nonzero"/><path fill="#000000" d="M 16.824219 23.082031 C 16.824219 23.703125 16.832031 23.957031 16.851562 23.644531 C 16.871094 23.335938 16.871094 22.824219 16.851562 22.507812 C 16.832031 22.203125 16.824219 22.457031 16.824219 23.082031 Z M 16.824219 23.082031 " fill-opacity="1" fill-rule="nonzero"/><g clip-path="url(#c2dd364f77)"><path fill="#000000" d="M 19.25 23.476562 L 19.25 24.265625 L 17.453125 24.285156 C 16.457031 24.292969 15.90625 24.3125 16.210938 24.332031 L 16.773438 24.371094 L 16.8125 24.835938 L 16.84375 25.300781 L 16.863281 24.828125 L 16.882812 24.363281 L 19.242188 24.363281 L 19.28125 24.925781 C 19.300781 25.242188 19.320312 24.867188 19.328125 24.085938 C 19.339844 23.316406 19.328125 22.683594 19.300781 22.683594 C 19.269531 22.683594 19.25 23.039062 19.25 23.476562 Z M 19.25 23.476562 " fill-opacity="1" fill-rule="nonzero"/></g><path fill="#000000" d="M 28.074219 24.214844 C 28.074219 24.925781 28.082031 25.191406 28.101562 24.828125 C 28.121094 24.460938 28.121094 23.878906 28.101562 23.542969 C 28.082031 23.207031 28.074219 23.503906 28.074219 24.214844 Z M 28.074219 24.214844 " fill-opacity="1" fill-rule="nonzero"/><g clip-path="url(#bba6aa2423)"><path fill="#000000" d="M 20.574219 24.414062 C 20.574219 25.015625 20.582031 25.242188 20.601562 24.925781 C 20.621094 24.609375 20.621094 24.125 20.601562 23.839844 C 20.582031 23.554688 20.574219 23.808594 20.574219 24.414062 Z M 20.574219 24.414062 " fill-opacity="1" fill-rule="nonzero"/></g><path fill="#000000" d="M 21.203125 24.332031 C 21.492188 24.351562 21.933594 24.351562 22.191406 24.332031 C 22.449219 24.3125 22.210938 24.304688 21.667969 24.304688 C 21.125 24.304688 20.917969 24.3125 21.203125 24.332031 Z M 21.203125 24.332031 " fill-opacity="1" fill-rule="nonzero"/><g clip-path="url(#0cf2fe51fe)"><path fill="#000000" d="M 23.03125 24.855469 C 23.03125 25.210938 23.050781 25.351562 23.070312 25.171875 C 23.089844 25.003906 23.089844 24.707031 23.070312 24.53125 C 23.050781 24.363281 23.03125 24.5 23.03125 24.855469 Z M 23.03125 24.855469 " fill-opacity="1" fill-rule="nonzero"/></g><g fill="#000000" fill-opacity="1"><g transform="translate(45.773609, 16.986684)"><g><path d="M 0.546875 0 L 0.546875 -2.3125 L 0.109375 -2.3125 L 0.109375 -2.75 L 0.546875 -2.75 C 0.515625 -2.875 0.5 -2.988281 0.5 -3.09375 C 0.5 -3.269531 0.535156 -3.414062 0.609375 -3.53125 C 0.691406 -3.65625 0.804688 -3.75 0.953125 -3.8125 C 1.097656 -3.875 1.265625 -3.90625 1.453125 -3.90625 C 1.742188 -3.90625 1.960938 -3.851562 2.109375 -3.75 L 1.953125 -3.34375 L 1.890625 -3.328125 C 1.785156 -3.410156 1.648438 -3.453125 1.484375 -3.453125 C 1.335938 -3.453125 1.226562 -3.414062 1.15625 -3.34375 C 1.09375 -3.269531 1.0625 -3.171875 1.0625 -3.046875 C 1.0625 -2.953125 1.070312 -2.851562 1.09375 -2.75 L 1.921875 -2.75 L 1.921875 -2.3125 L 1.09375 -2.3125 L 1.09375 0 Z M 0.546875 0 "/></g></g></g><g fill="#000000" fill-opacity="1"><g transform="translate(47.743978, 16.986684)"><g><path d="M 0.71875 -3.1875 C 0.613281 -3.1875 0.523438 -3.21875 0.453125 -3.28125 C 0.390625 -3.34375 0.359375 -3.425781 0.359375 -3.53125 C 0.359375 -3.632812 0.390625 -3.71875 0.453125 -3.78125 C 0.523438 -3.84375 0.613281 -3.875 0.71875 -3.875 C 0.820312 -3.875 0.90625 -3.84375 0.96875 -3.78125 C 1.039062 -3.71875 1.078125 -3.632812 1.078125 -3.53125 C 1.078125 -3.425781 1.039062 -3.34375 0.96875 -3.28125 C 0.90625 -3.21875 0.820312 -3.1875 0.71875 -3.1875 Z M 0.4375 0 L 0.4375 -2.75 L 0.984375 -2.75 L 0.984375 0 Z M 0.4375 0 "/></g></g></g><g fill="#000000" fill-opacity="1"><g transform="translate(49.166331, 16.986684)"><g><path d="M 0.4375 0 L 0.4375 -2.75 L 0.96875 -2.75 L 0.96875 -2.328125 L 1.015625 -2.328125 C 1.097656 -2.484375 1.207031 -2.597656 1.34375 -2.671875 C 1.488281 -2.753906 1.664062 -2.796875 1.875 -2.796875 C 2.195312 -2.796875 2.429688 -2.710938 2.578125 -2.546875 C 2.722656 -2.378906 2.796875 -2.125 2.796875 -1.78125 L 2.796875 0 L 2.25 0 L 2.25 -1.734375 C 2.25 -1.953125 2.207031 -2.101562 2.125 -2.1875 C 2.039062 -2.28125 1.90625 -2.328125 1.71875 -2.328125 C 1.488281 -2.328125 1.304688 -2.253906 1.171875 -2.109375 C 1.046875 -1.960938 0.984375 -1.734375 0.984375 -1.421875 L 0.984375 0 Z M 0.4375 0 "/></g></g></g><g fill="#000000" fill-opacity="1"><g transform="translate(52.357278, 16.986684)"><g><path d="M 1.390625 0.046875 C 1.171875 0.046875 0.976562 -0.00390625 0.8125 -0.109375 C 0.644531 -0.210938 0.515625 -0.367188 0.421875 -0.578125 C 0.328125 -0.796875 0.28125 -1.0625 0.28125 -1.375 C 0.28125 -1.6875 0.328125 -1.945312 0.421875 -2.15625 C 0.523438 -2.375 0.660156 -2.535156 0.828125 -2.640625 C 1.003906 -2.742188 1.207031 -2.796875 1.4375 -2.796875 C 1.613281 -2.796875 1.769531 -2.765625 1.90625 -2.703125 C 2.039062 -2.640625 2.15625 -2.539062 2.25 -2.40625 L 2.3125 -2.40625 L 2.3125 -3.859375 L 2.859375 -3.859375 L 2.859375 0 L 2.3125 0 L 2.3125 -0.375 L 2.25 -0.390625 C 2.164062 -0.253906 2.050781 -0.144531 1.90625 -0.0625 C 1.769531 0.0078125 1.597656 0.046875 1.390625 0.046875 Z M 1.5625 -0.421875 C 1.789062 -0.421875 1.972656 -0.5 2.109375 -0.65625 C 2.242188 -0.8125 2.3125 -1.050781 2.3125 -1.375 C 2.3125 -1.695312 2.242188 -1.9375 2.109375 -2.09375 C 1.972656 -2.25 1.789062 -2.328125 1.5625 -2.328125 C 1.082031 -2.328125 0.84375 -2.007812 0.84375 -1.375 C 0.84375 -0.738281 1.082031 -0.421875 1.5625 -0.421875 Z M 1.5625 -0.421875 "/></g></g></g><g fill="#000000" fill-opacity="1"><g transform="translate(55.645367, 16.986684)"><g/></g></g><g fill="#000000" fill-opacity="1"><g transform="translate(56.873424, 16.986684)"><g><path d="M 0.578125 1.171875 C 0.472656 1.171875 0.375 1.160156 0.28125 1.140625 C 0.195312 1.128906 0.125 1.109375 0.0625 1.078125 L 0.15625 0.640625 L 0.203125 0.625 C 0.242188 0.644531 0.296875 0.660156 0.359375 0.671875 C 0.421875 0.679688 0.484375 0.6875 0.546875 0.6875 C 0.660156 0.6875 0.753906 0.671875 0.828125 0.640625 C 0.898438 0.609375 0.960938 0.5625 1.015625 0.5 C 1.066406 0.4375 1.113281 0.34375 1.15625 0.21875 L 1.203125 0.078125 L 0.09375 -2.75 L 0.6875 -2.75 L 1.453125 -0.671875 L 1.515625 -0.671875 L 2.265625 -2.75 L 2.828125 -2.75 L 1.65625 0.296875 C 1.570312 0.503906 1.484375 0.671875 1.390625 0.796875 C 1.296875 0.921875 1.179688 1.015625 1.046875 1.078125 C 0.921875 1.140625 0.765625 1.171875 0.578125 1.171875 Z M 0.578125 1.171875 "/></g></g></g><g fill="#000000" fill-opacity="1"><g transform="translate(59.797831, 16.986684)"><g><path d="M 1.59375 0.046875 C 1.320312 0.046875 1.085938 -0.00390625 0.890625 -0.109375 C 0.691406 -0.222656 0.539062 -0.382812 0.4375 -0.59375 C 0.332031 -0.8125 0.28125 -1.070312 0.28125 -1.375 C 0.28125 -1.675781 0.332031 -1.929688 0.4375 -2.140625 C 0.539062 -2.359375 0.691406 -2.519531 0.890625 -2.625 C 1.085938 -2.738281 1.320312 -2.796875 1.59375 -2.796875 C 1.851562 -2.796875 2.082031 -2.738281 2.28125 -2.625 C 2.476562 -2.519531 2.628906 -2.359375 2.734375 -2.140625 C 2.847656 -1.929688 2.90625 -1.675781 2.90625 -1.375 C 2.90625 -1.070312 2.847656 -0.8125 2.734375 -0.59375 C 2.628906 -0.382812 2.476562 -0.222656 2.28125 -0.109375 C 2.082031 -0.00390625 1.851562 0.046875 1.59375 0.046875 Z M 1.59375 -0.421875 C 2.082031 -0.421875 2.328125 -0.738281 2.328125 -1.375 C 2.328125 -2.007812 2.082031 -2.328125 1.59375 -2.328125 C 1.351562 -2.328125 1.164062 -2.25 1.03125 -2.09375 C 0.90625 -1.9375 0.84375 -1.695312 0.84375 -1.375 C 0.84375 -0.738281 1.09375 -0.421875 1.59375 -0.421875 Z M 1.59375 -0.421875 "/></g></g></g><g fill="#000000" fill-opacity="1"><g transform="translate(62.971336, 16.986684)"><g><path d="M 1.3125 0.046875 C 1 0.046875 0.765625 -0.0351562 0.609375 -0.203125 C 0.460938 -0.367188 0.390625 -0.609375 0.390625 -0.921875 L 0.390625 -2.75 L 0.953125 -2.75 L 0.953125 -0.96875 C 0.953125 -0.78125 0.992188 -0.640625 1.078125 -0.546875 C 1.160156 -0.460938 1.289062 -0.421875 1.46875 -0.421875 C 1.6875 -0.421875 1.859375 -0.488281 1.984375 -0.625 C 2.109375 -0.769531 2.171875 -1.003906 2.171875 -1.328125 L 2.171875 -2.75 L 2.71875 -2.75 L 2.71875 0 L 2.1875 0 L 2.1875 -0.421875 L 2.140625 -0.4375 C 2.046875 -0.269531 1.929688 -0.144531 1.796875 -0.0625 C 1.671875 0.0078125 1.507812 0.046875 1.3125 0.046875 Z M 1.3125 0.046875 "/></g></g></g><g fill="#000000" fill-opacity="1"><g transform="translate(66.122428, 16.986684)"><g><path d="M 0.4375 0 L 0.4375 -2.75 L 0.96875 -2.75 L 0.96875 -2.328125 L 1.015625 -2.3125 C 1.085938 -2.476562 1.179688 -2.597656 1.296875 -2.671875 C 1.410156 -2.742188 1.546875 -2.78125 1.703125 -2.78125 C 1.878906 -2.78125 2.007812 -2.75 2.09375 -2.6875 L 1.984375 -2.21875 L 1.9375 -2.203125 C 1.882812 -2.222656 1.832031 -2.238281 1.78125 -2.25 C 1.738281 -2.257812 1.6875 -2.265625 1.625 -2.265625 C 1.414062 -2.265625 1.253906 -2.191406 1.140625 -2.046875 C 1.035156 -1.898438 0.984375 -1.65625 0.984375 -1.3125 L 0.984375 0 Z M 0.4375 0 "/></g></g></g><g fill="#000000" fill-opacity="1"><g transform="translate(45.784172, 22.723807)"><g><path d="M 0.4375 1.109375 L 0.4375 -2.75 L 0.984375 -2.75 L 0.984375 -2.375 L 1.046875 -2.359375 C 1.140625 -2.503906 1.253906 -2.613281 1.390625 -2.6875 C 1.535156 -2.757812 1.703125 -2.796875 1.890625 -2.796875 C 2.117188 -2.796875 2.316406 -2.742188 2.484375 -2.640625 C 2.648438 -2.535156 2.78125 -2.375 2.875 -2.15625 C 2.96875 -1.945312 3.015625 -1.6875 3.015625 -1.375 C 3.015625 -1.0625 2.960938 -0.796875 2.859375 -0.578125 C 2.765625 -0.367188 2.628906 -0.210938 2.453125 -0.109375 C 2.285156 -0.00390625 2.085938 0.046875 1.859375 0.046875 C 1.679688 0.046875 1.523438 0.0195312 1.390625 -0.03125 C 1.253906 -0.09375 1.140625 -0.191406 1.046875 -0.328125 L 0.984375 -0.328125 L 0.984375 1.109375 Z M 1.71875 -0.421875 C 1.957031 -0.421875 2.140625 -0.492188 2.265625 -0.640625 C 2.390625 -0.796875 2.453125 -1.039062 2.453125 -1.375 C 2.453125 -1.707031 2.390625 -1.945312 2.265625 -2.09375 C 2.140625 -2.25 1.957031 -2.328125 1.71875 -2.328125 C 1.488281 -2.328125 1.304688 -2.25 1.171875 -2.09375 C 1.046875 -1.9375 0.984375 -1.695312 0.984375 -1.375 C 0.984375 -1.050781 1.046875 -0.8125 1.171875 -0.65625 C 1.304688 -0.5 1.488281 -0.421875 1.71875 -0.421875 Z M 1.71875 -0.421875 "/></g></g></g><g fill="#000000" fill-opacity="1"><g transform="translate(49.069776, 22.723807)"><g><path d="M 2.671875 -1.25 L 0.84375 -1.25 C 0.875 -0.695312 1.128906 -0.421875 1.609375 -0.421875 C 1.785156 -0.421875 1.925781 -0.453125 2.03125 -0.515625 C 2.144531 -0.578125 2.234375 -0.675781 2.296875 -0.8125 L 2.34375 -0.8125 L 2.71875 -0.59375 C 2.625 -0.394531 2.488281 -0.238281 2.3125 -0.125 C 2.132812 -0.0078125 1.898438 0.046875 1.609375 0.046875 C 1.335938 0.046875 1.097656 -0.00390625 0.890625 -0.109375 C 0.691406 -0.210938 0.539062 -0.367188 0.4375 -0.578125 C 0.332031 -0.796875 0.28125 -1.0625 0.28125 -1.375 C 0.28125 -1.6875 0.332031 -1.945312 0.4375 -2.15625 C 0.550781 -2.375 0.707031 -2.535156 0.90625 -2.640625 C 1.101562 -2.742188 1.328125 -2.796875 1.578125 -2.796875 C 1.941406 -2.796875 2.222656 -2.695312 2.421875 -2.5 C 2.628906 -2.300781 2.734375 -2.003906 2.734375 -1.609375 C 2.734375 -1.453125 2.726562 -1.34375 2.71875 -1.28125 Z M 2.203125 -1.640625 C 2.203125 -1.890625 2.144531 -2.070312 2.03125 -2.1875 C 1.925781 -2.300781 1.773438 -2.359375 1.578125 -2.359375 C 1.367188 -2.359375 1.203125 -2.300781 1.078125 -2.1875 C 0.960938 -2.070312 0.890625 -1.890625 0.859375 -1.640625 Z M 2.203125 -1.640625 "/></g></g></g><g fill="#000000" fill-opacity="1"><g transform="translate(52.029056, 22.723807)"><g><path d="M 0.4375 0 L 0.4375 -2.75 L 0.96875 -2.75 L 0.96875 -2.328125 L 1.015625 -2.3125 C 1.085938 -2.476562 1.179688 -2.597656 1.296875 -2.671875 C 1.410156 -2.742188 1.546875 -2.78125 1.703125 -2.78125 C 1.878906 -2.78125 2.007812 -2.75 2.09375 -2.6875 L 1.984375 -2.21875 L 1.9375 -2.203125 C 1.882812 -2.222656 1.832031 -2.238281 1.78125 -2.25 C 1.738281 -2.257812 1.6875 -2.265625 1.625 -2.265625 C 1.414062 -2.265625 1.253906 -2.191406 1.140625 -2.046875 C 1.035156 -1.898438 0.984375 -1.65625 0.984375 -1.3125 L 0.984375 0 Z M 0.4375 0 "/></g></g></g><g fill="#000000" fill-opacity="1"><g transform="translate(54.168811, 22.723807)"><g><path d="M 0.546875 0 L 0.546875 -2.3125 L 0.109375 -2.3125 L 0.109375 -2.75 L 0.546875 -2.75 C 0.515625 -2.875 0.5 -2.988281 0.5 -3.09375 C 0.5 -3.269531 0.535156 -3.414062 0.609375 -3.53125 C 0.691406 -3.65625 0.804688 -3.75 0.953125 -3.8125 C 1.097656 -3.875 1.265625 -3.90625 1.453125 -3.90625 C 1.742188 -3.90625 1.960938 -3.851562 2.109375 -3.75 L 1.953125 -3.34375 L 1.890625 -3.328125 C 1.785156 -3.410156 1.648438 -3.453125 1.484375 -3.453125 C 1.335938 -3.453125 1.226562 -3.414062 1.15625 -3.34375 C 1.09375 -3.269531 1.0625 -3.171875 1.0625 -3.046875 C 1.0625 -2.953125 1.070312 -2.851562 1.09375 -2.75 L 1.921875 -2.75 L 1.921875 -2.3125 L 1.09375 -2.3125 L 1.09375 0 Z M 0.546875 0 "/></g></g></g><g fill="#000000" fill-opacity="1"><g transform="translate(56.139179, 22.723807)"><g><path d="M 2.671875 -1.25 L 0.84375 -1.25 C 0.875 -0.695312 1.128906 -0.421875 1.609375 -0.421875 C 1.785156 -0.421875 1.925781 -0.453125 2.03125 -0.515625 C 2.144531 -0.578125 2.234375 -0.675781 2.296875 -0.8125 L 2.34375 -0.8125 L 2.71875 -0.59375 C 2.625 -0.394531 2.488281 -0.238281 2.3125 -0.125 C 2.132812 -0.0078125 1.898438 0.046875 1.609375 0.046875 C 1.335938 0.046875 1.097656 -0.00390625 0.890625 -0.109375 C 0.691406 -0.210938 0.539062 -0.367188 0.4375 -0.578125 C 0.332031 -0.796875 0.28125 -1.0625 0.28125 -1.375 C 0.28125 -1.6875 0.332031 -1.945312 0.4375 -2.15625 C 0.550781 -2.375 0.707031 -2.535156 0.90625 -2.640625 C 1.101562 -2.742188 1.328125 -2.796875 1.578125 -2.796875 C 1.941406 -2.796875 2.222656 -2.695312 2.421875 -2.5 C 2.628906 -2.300781 2.734375 -2.003906 2.734375 -1.609375 C 2.734375 -1.453125 2.726562 -1.34375 2.71875 -1.28125 Z M 2.203125 -1.640625 C 2.203125 -1.890625 2.144531 -2.070312 2.03125 -2.1875 C 1.925781 -2.300781 1.773438 -2.359375 1.578125 -2.359375 C 1.367188 -2.359375 1.203125 -2.300781 1.078125 -2.1875 C 0.960938 -2.070312 0.890625 -1.890625 0.859375 -1.640625 Z M 2.203125 -1.640625 "/></g></g></g><g fill="#000000" fill-opacity="1"><g transform="translate(59.09846, 22.723807)"><g><path d="M 1.59375 0.046875 C 1.332031 0.046875 1.101562 -0.00390625 0.90625 -0.109375 C 0.707031 -0.222656 0.550781 -0.382812 0.4375 -0.59375 C 0.332031 -0.8125 0.28125 -1.070312 0.28125 -1.375 C 0.28125 -1.675781 0.332031 -1.929688 0.4375 -2.140625 C 0.550781 -2.359375 0.707031 -2.519531 0.90625 -2.625 C 1.101562 -2.738281 1.332031 -2.796875 1.59375 -2.796875 C 1.882812 -2.796875 2.117188 -2.738281 2.296875 -2.625 C 2.472656 -2.519531 2.597656 -2.375 2.671875 -2.1875 L 2.296875 -1.921875 L 2.25 -1.921875 C 2.1875 -2.054688 2.101562 -2.15625 2 -2.21875 C 1.894531 -2.289062 1.757812 -2.328125 1.59375 -2.328125 C 1.363281 -2.328125 1.179688 -2.242188 1.046875 -2.078125 C 0.910156 -1.921875 0.84375 -1.6875 0.84375 -1.375 C 0.84375 -1.0625 0.910156 -0.820312 1.046875 -0.65625 C 1.179688 -0.5 1.363281 -0.421875 1.59375 -0.421875 C 1.9375 -0.421875 2.164062 -0.585938 2.28125 -0.921875 L 2.328125 -0.9375 L 2.71875 -0.71875 C 2.644531 -0.488281 2.515625 -0.300781 2.328125 -0.15625 C 2.140625 -0.0195312 1.894531 0.046875 1.59375 0.046875 Z M 1.59375 0.046875 "/></g></g></g><g fill="#000000" fill-opacity="1"><g transform="translate(61.930706, 22.723807)"><g><path d="M 1.875 -0.546875 L 2.03125 -0.140625 C 1.96875 -0.078125 1.878906 -0.03125 1.765625 0 C 1.660156 0.03125 1.539062 0.046875 1.40625 0.046875 C 1.125 0.046875 0.910156 -0.0234375 0.765625 -0.171875 C 0.617188 -0.316406 0.546875 -0.535156 0.546875 -0.828125 L 0.546875 -2.3125 L 0.109375 -2.3125 L 0.109375 -2.75 L 0.546875 -2.75 L 0.546875 -3.3125 L 1.109375 -3.40625 L 1.109375 -2.75 L 1.9375 -2.75 L 1.9375 -2.3125 L 1.109375 -2.3125 L 1.109375 -0.875 C 1.109375 -0.71875 1.140625 -0.601562 1.203125 -0.53125 C 1.265625 -0.46875 1.351562 -0.4375 1.46875 -0.4375 C 1.601562 -0.4375 1.722656 -0.472656 1.828125 -0.546875 Z M 1.875 -0.546875 "/></g></g></g><g fill="#000000" fill-opacity="1"><g transform="translate(64.045551, 22.723807)"><g/></g></g><g fill="#000000" fill-opacity="1"><g transform="translate(65.273608, 22.723807)"><g><path d="M 0.546875 0 L 0.546875 -2.3125 L 0.109375 -2.3125 L 0.109375 -2.75 L 0.546875 -2.75 C 0.515625 -2.875 0.5 -2.988281 0.5 -3.09375 C 0.5 -3.269531 0.535156 -3.414062 0.609375 -3.53125 C 0.691406 -3.65625 0.804688 -3.75 0.953125 -3.8125 C 1.097656 -3.875 1.265625 -3.90625 1.453125 -3.90625 C 1.742188 -3.90625 1.960938 -3.851562 2.109375 -3.75 L 1.953125 -3.34375 L 1.890625 -3.328125 C 1.785156 -3.410156 1.648438 -3.453125 1.484375 -3.453125 C 1.335938 -3.453125 1.226562 -3.414062 1.15625 -3.34375 C 1.09375 -3.269531 1.0625 -3.171875 1.0625 -3.046875 C 1.0625 -2.953125 1.070312 -2.851562 1.09375 -2.75 L 1.921875 -2.75 L 1.921875 -2.3125 L 1.09375 -2.3125 L 1.09375 0 Z M 0.546875 0 "/></g></g></g><g fill="#000000" fill-opacity="1"><g transform="translate(67.243976, 22.723807)"><g><path d="M 0.71875 -3.1875 C 0.613281 -3.1875 0.523438 -3.21875 0.453125 -3.28125 C 0.390625 -3.34375 0.359375 -3.425781 0.359375 -3.53125 C 0.359375 -3.632812 0.390625 -3.71875 0.453125 -3.78125 C 0.523438 -3.84375 0.613281 -3.875 0.71875 -3.875 C 0.820312 -3.875 0.90625 -3.84375 0.96875 -3.78125 C 1.039062 -3.71875 1.078125 -3.632812 1.078125 -3.53125 C 1.078125 -3.425781 1.039062 -3.34375 0.96875 -3.28125 C 0.90625 -3.21875 0.820312 -3.1875 0.71875 -3.1875 Z M 0.4375 0 L 0.4375 -2.75 L 0.984375 -2.75 L 0.984375 0 Z M 0.4375 0 "/></g></g></g><g fill="#000000" fill-opacity="1"><g transform="translate(68.666329, 22.723807)"><g><path d="M 1.875 -0.546875 L 2.03125 -0.140625 C 1.96875 -0.078125 1.878906 -0.03125 1.765625 0 C 1.660156 0.03125 1.539062 0.046875 1.40625 0.046875 C 1.125 0.046875 0.910156 -0.0234375 0.765625 -0.171875 C 0.617188 -0.316406 0.546875 -0.535156 0.546875 -0.828125 L 0.546875 -2.3125 L 0.109375 -2.3125 L 0.109375 -2.75 L 0.546875 -2.75 L 0.546875 -3.3125 L 1.109375 -3.40625 L 1.109375 -2.75 L 1.9375 -2.75 L 1.9375 -2.3125 L 1.109375 -2.3125 L 1.109375 -0.875 C 1.109375 -0.71875 1.140625 -0.601562 1.203125 -0.53125 C 1.265625 -0.46875 1.351562 -0.4375 1.46875 -0.4375 C 1.601562 -0.4375 1.722656 -0.472656 1.828125 -0.546875 Z M 1.875 -0.546875 "/></g></g></g></svg>